<svg width="15" height="16" viewBox="0 0 15 16" fill="none" xmlns="http://www.w3.org/2000/svg">
<path fill-rule="evenodd" clip-rule="evenodd" d="M13.3333 16C14.25 16 15 15.28 15 14.4V3.2C15 2.32 14.25 1.6 13.3333 1.6H12.5V0H10.8333V1.6H4.16667V0H2.5V1.6H1.66667C0.741667 1.6 0.00833333 2.32 0.00833333 3.2L0 14.4C0 15.28 0.741667 16 1.66667 16H13.3333ZM5 8.8V7.2H3.33333V8.8H5ZM1.66667 4.8H13.3333V3.2H1.66667V4.8ZM13.3333 6.4V14.4H1.66667V6.4H13.3333ZM10 8.8H11.6667V7.2H10V8.8ZM8.33333 8.8H6.66667V7.2H8.33333V8.8Z" fill="#97A5BB"/>
</svg>
