<svg width="32" height="32" viewBox="0 0 32 32" fill="none" xmlns="http://www.w3.org/2000/svg">
<rect width="32" height="32" rx="6" fill="#26C8F0"/>
<path d="M8.83335 22.6571H8.83339V22.6492V12.0392C8.83339 10.8223 9.81885 9.83528 11.0357 9.83333H20.9644C22.1805 9.83528 23.1657 10.8212 23.1667 12.0374L23.1667 18.4522C23.1667 18.4524 23.1667 18.4526 23.1667 18.4528C23.1647 19.6682 22.1799 20.653 20.9645 20.655C20.9643 20.655 20.9641 20.655 20.9639 20.655L12.4084 20.655H12.063L11.8189 20.8993L9.7064 23.0135L9.70637 23.0135L9.70107 23.0189C9.60992 23.1118 9.48582 23.1648 9.35583 23.1666C9.28816 23.1653 9.22135 23.1511 9.15902 23.1246L9.15067 23.121L9.14225 23.1177C8.95411 23.0426 8.83142 22.8597 8.83335 22.6571Z" stroke="white" stroke-width="1.66666"/>
<rect x="11.5555" y="12.5294" width="8" height="1.76471" rx="0.882353" fill="white"/>
<rect x="11.5555" y="16.0588" width="3.55556" height="1.76471" rx="0.882353" fill="white"/>
</svg>
