<svg width="23" height="23" viewBox="0 0 23 23" fill="none" xmlns="http://www.w3.org/2000/svg">
<rect width="23" height="23" fill="white" fill-opacity="0.3"/>
<path fill-rule="evenodd" clip-rule="evenodd" d="M19.6292 8.97648C19.7215 9.10319 19.8693 9.18118 20.0273 9.18182H20.1818C21.7383 9.18182 23 10.4436 23 12C23 13.5564 21.7383 14.8182 20.1818 14.8182L20.104 14.8182C19.9047 14.819 19.7249 14.938 19.6464 15.1212L19.6421 15.131C19.5596 15.318 19.5992 15.5364 19.7344 15.6747L19.7885 15.7289C20.3177 16.2575 20.6151 16.9748 20.6151 17.7227C20.6151 18.4707 20.3177 19.188 19.7893 19.7158C19.2607 20.245 18.5434 20.5423 17.7955 20.5423C17.0475 20.5423 16.3302 20.245 15.802 19.7162L15.7553 19.6694C15.6092 19.5265 15.3908 19.4869 15.1939 19.5737C15.0108 19.6522 14.8917 19.832 14.8909 20.0273V20.1818C14.8909 21.7383 13.6292 23 12.0727 23C10.5163 23 9.25455 21.7383 9.25455 20.1818L9.25482 20.1234C9.25002 19.9181 9.12023 19.7367 8.86896 19.6421C8.68196 19.5596 8.46356 19.5992 8.32529 19.7344L8.27114 19.7885C7.74253 20.3177 7.02524 20.6151 6.27727 20.6151C5.5293 20.6151 4.81201 20.3177 4.2842 19.7893C3.75501 19.2607 3.45766 18.5434 3.45766 17.7955C3.45766 17.0475 3.75501 16.3302 4.2838 15.802L4.33059 15.7553C4.47352 15.6092 4.51312 15.3908 4.42631 15.1939C4.34781 15.0108 4.16802 14.8917 3.97273 14.8909H3.81818C2.26174 14.8909 1 13.6292 1 12.0727C1 10.5163 2.26174 9.25455 3.81818 9.25455L3.87662 9.25482C4.08187 9.25002 4.26332 9.12023 4.35786 8.86896C4.44039 8.68196 4.40079 8.46356 4.26562 8.32529L4.21147 8.27114C3.68228 7.74253 3.38493 7.02524 3.38493 6.27727C3.38493 5.5293 3.68228 4.81201 4.21068 4.2842C4.73928 3.75501 5.45657 3.45766 6.20455 3.45766C6.95252 3.45766 7.66981 3.75501 8.19802 4.2838L8.24472 4.33059C8.39084 4.47352 8.60924 4.51312 8.79623 4.43059C8.85444 4.4049 8.9148 4.3849 8.97648 4.37075C9.10319 4.27847 9.18118 4.13067 9.18182 3.97273V3.81818C9.18182 2.26174 10.4436 1 12 1C13.5564 1 14.8182 2.26174 14.8182 3.81818L14.8182 3.89601C14.819 4.0953 14.938 4.27508 15.131 4.35786C15.318 4.44039 15.5364 4.40079 15.6747 4.26562L15.7289 4.21147C16.2575 3.68228 16.9748 3.38493 17.7227 3.38493C18.4707 3.38493 19.188 3.68228 19.7158 4.21068C20.245 4.73928 20.5423 5.45657 20.5423 6.20455C20.5423 6.95252 20.245 7.66981 19.7162 8.19802L19.6694 8.24472C19.5265 8.39084 19.4869 8.60924 19.5694 8.79623C19.5951 8.85444 19.6151 8.9148 19.6292 8.97648ZM20.1 12.8182H20.1818C20.6337 12.8182 21 12.4519 21 12C21 11.5481 20.6337 11.1818 20.1818 11.1818L20.0233 11.1818C19.0269 11.1778 18.1279 10.5825 17.7354 9.66666C17.7005 9.58511 17.6766 9.49946 17.6643 9.41201C17.3562 8.52265 17.5739 7.52682 18.2474 6.83835L18.3024 6.78341C18.456 6.62994 18.5423 6.4217 18.5423 6.20455C18.5423 5.98739 18.456 5.77915 18.3016 5.6249C18.1481 5.47126 17.9399 5.38493 17.7227 5.38493C17.5056 5.38493 17.2973 5.47126 17.1435 5.62529L17.0811 5.68759C16.3505 6.40224 15.2585 6.60024 14.3333 6.19187C13.4175 5.79934 12.8222 4.90042 12.8182 3.9V3.81818C12.8182 3.36631 12.4519 3 12 3C11.5481 3 11.1818 3.36631 11.1818 3.81818L11.1818 3.97672C11.1778 4.97314 10.5825 5.87207 9.66666 6.26459C9.58511 6.29955 9.49946 6.32341 9.41201 6.33571C8.52265 6.64377 7.52682 6.42609 6.83835 5.75256L6.78341 5.69762C6.62994 5.54399 6.4217 5.45766 6.20455 5.45766C5.98739 5.45766 5.77915 5.54399 5.6249 5.69841C5.47126 5.85187 5.38493 6.06012 5.38493 6.27727C5.38493 6.49443 5.47126 6.70267 5.62529 6.85653L5.68759 6.91892C6.40224 7.6495 6.60024 8.74151 6.21126 9.61791C5.85692 10.5814 4.94964 11.2303 3.9 11.2545H3.81818C3.36631 11.2545 3 11.6209 3 12.0727C3 12.5246 3.36631 12.8909 3.81818 12.8909L3.97672 12.8909C4.97314 12.8949 5.87207 13.4902 6.26032 14.3962C6.67296 15.3312 6.47496 16.4232 5.75256 17.1617L5.69762 17.2166C5.54399 17.3701 5.45766 17.5783 5.45766 17.7955C5.45766 18.0126 5.54399 18.2209 5.69841 18.3751C5.85187 18.5287 6.06012 18.6151 6.27727 18.6151C6.49443 18.6151 6.70267 18.5287 6.85653 18.3747L6.91892 18.3124C7.6495 17.5978 8.74151 17.3998 9.61791 17.7887C10.5814 18.1431 11.2303 19.0504 11.2545 20.1V20.1818C11.2545 20.6337 11.6209 21 12.0727 21C12.5246 21 12.8909 20.6337 12.8909 20.1818L12.8909 20.0233C12.8949 19.0269 13.4902 18.1279 14.3962 17.7397C15.3312 17.327 16.4232 17.525 17.1617 18.2474L17.2166 18.3024C17.3701 18.456 17.5783 18.5423 17.7955 18.5423C18.0126 18.5423 18.2209 18.456 18.3751 18.3016C18.5287 18.1481 18.6151 17.9399 18.6151 17.7227C18.6151 17.5056 18.5287 17.2973 18.3747 17.1435L18.3124 17.0811C17.599 16.3518 17.4005 15.2623 17.8102 14.3284C18.2039 13.4153 19.1014 12.8222 20.1 12.8182ZM10.2727 12C10.2727 11.0461 11.0461 10.2727 12 10.2727C12.9539 10.2727 13.7273 11.0461 13.7273 12C13.7273 12.9539 12.9539 13.7273 12 13.7273C11.0461 13.7273 10.2727 12.9539 10.2727 12ZM12 8.27273C9.94148 8.27273 8.27273 9.94148 8.27273 12C8.27273 14.0585 9.94148 15.7273 12 15.7273C14.0585 15.7273 15.7273 14.0585 15.7273 12C15.7273 9.94148 14.0585 8.27273 12 8.27273Z" fill="white"/>
</svg>
