<svg width="284" height="229" viewBox="0 0 284 229" fill="none" xmlns="http://www.w3.org/2000/svg">
<path d="M4.01 42.27C4.19667 42.3167 4.37 42.3967 4.53 42.51C4.69667 42.6167 4.84 42.7467 4.96 42.9C5.08 43.0533 5.17333 43.23 5.24 43.43C5.31333 43.63 5.35 43.8433 5.35 44.07C5.35 44.4033 5.28667 44.7 5.16 44.96C5.03333 45.22 4.86 45.44 4.64 45.62C4.42667 45.8 4.17667 45.9367 3.89 46.03C3.60333 46.13 3.3 46.18 2.98 46.18C2.66 46.18 2.35333 46.13 2.06 46.03C1.77333 45.9367 1.52 45.8 1.3 45.62C1.08667 45.44 0.916667 45.22 0.79 44.96C0.663333 44.7 0.6 44.4033 0.6 44.07C0.6 43.8367 0.633333 43.62 0.7 43.42C0.773333 43.22 0.87 43.0433 0.99 42.89C1.11667 42.7367 1.26 42.61 1.42 42.51C1.58667 42.4033 1.76 42.3233 1.94 42.27V42.25C1.62 42.1367 1.35667 41.9433 1.15 41.67C0.95 41.3967 0.85 41.0633 0.85 40.67C0.85 40.3767 0.906667 40.1133 1.02 39.88C1.13333 39.64 1.28667 39.4367 1.48 39.27C1.67333 39.0967 1.89667 38.9667 2.15 38.88C2.41 38.7867 2.68667 38.74 2.98 38.74C3.26667 38.74 3.54 38.7867 3.8 38.88C4.06 38.9667 4.28333 39.0933 4.47 39.26C4.66333 39.42 4.81667 39.62 4.93 39.86C5.04333 40.0933 5.1 40.3567 5.1 40.65C5.1 41.0367 4.99667 41.3733 4.79 41.66C4.59 41.9467 4.33 42.1433 4.01 42.25V42.27ZM1.82 40.7C1.82 40.86 1.84667 41.01 1.9 41.15C1.96 41.29 2.04 41.4133 2.14 41.52C2.24667 41.62 2.37 41.7 2.51 41.76C2.65667 41.82 2.81333 41.85 2.98 41.85C3.14 41.85 3.29 41.82 3.43 41.76C3.57 41.7 3.69333 41.62 3.8 41.52C3.90667 41.4133 3.99 41.29 4.05 41.15C4.11 41.01 4.14 40.86 4.14 40.7C4.14 40.5333 4.10667 40.38 4.04 40.24C3.98 40.0933 3.89667 39.97 3.79 39.87C3.69 39.7633 3.57 39.6833 3.43 39.63C3.29 39.57 3.14 39.54 2.98 39.54C2.81333 39.54 2.65667 39.57 2.51 39.63C2.37 39.6833 2.24667 39.7633 2.14 39.87C2.04 39.97 1.96 40.0933 1.9 40.24C1.84667 40.38 1.82 40.5333 1.82 40.7ZM1.59 44.02C1.59 44.22 1.62333 44.4033 1.69 44.57C1.75667 44.7367 1.85 44.88 1.97 45C2.09667 45.1133 2.24333 45.2033 2.41 45.27C2.58333 45.3367 2.77333 45.37 2.98 45.37C3.18 45.37 3.36333 45.3367 3.53 45.27C3.70333 45.2033 3.85 45.1133 3.97 45C4.09 44.88 4.18333 44.7367 4.25 44.57C4.32333 44.4033 4.36 44.22 4.36 44.02C4.36 43.8267 4.32333 43.65 4.25 43.49C4.18333 43.3233 4.09 43.18 3.97 43.06C3.85 42.94 3.70333 42.8467 3.53 42.78C3.36333 42.7133 3.18 42.68 2.98 42.68C2.78 42.68 2.59333 42.7133 2.42 42.78C2.25333 42.8467 2.10667 42.94 1.98 43.06C1.86 43.18 1.76333 43.3233 1.69 43.49C1.62333 43.65 1.59 43.8267 1.59 44.02ZM8.92727 38.74C9.34727 38.74 9.70727 38.8367 10.0073 39.03C10.3139 39.2233 10.5639 39.49 10.7573 39.83C10.9573 40.1633 11.1039 40.5567 11.1973 41.01C11.2906 41.4633 11.3373 41.9467 11.3373 42.46C11.3373 42.98 11.2906 43.4667 11.1973 43.92C11.1039 44.3667 10.9573 44.76 10.7573 45.1C10.5639 45.4333 10.3139 45.6967 10.0073 45.89C9.70727 46.0833 9.34727 46.18 8.92727 46.18C8.50727 46.18 8.14393 46.0833 7.83727 45.89C7.5306 45.6967 7.27727 45.4333 7.07727 45.1C6.88393 44.76 6.7406 44.3667 6.64727 43.92C6.55393 43.4667 6.50727 42.98 6.50727 42.46C6.50727 41.9467 6.55393 41.4633 6.64727 41.01C6.7406 40.5567 6.88393 40.1633 7.07727 39.83C7.27727 39.49 7.5306 39.2233 7.83727 39.03C8.14393 38.8367 8.50727 38.74 8.92727 38.74ZM8.92727 39.55C8.63393 39.55 8.39393 39.6467 8.20727 39.84C8.0206 40.0267 7.87393 40.2667 7.76727 40.56C7.66727 40.8467 7.59727 41.16 7.55727 41.5C7.51727 41.84 7.49727 42.16 7.49727 42.46C7.49727 42.76 7.51727 43.08 7.55727 43.42C7.59727 43.76 7.66727 44.0733 7.76727 44.36C7.87393 44.6467 8.0206 44.8867 8.20727 45.08C8.39393 45.2667 8.63393 45.36 8.92727 45.36C9.21393 45.36 9.44727 45.2667 9.62727 45.08C9.81393 44.8867 9.9606 44.6467 10.0673 44.36C10.1739 44.0733 10.2473 43.76 10.2873 43.42C10.3273 43.08 10.3473 42.76 10.3473 42.46C10.3473 42.16 10.3273 41.84 10.2873 41.5C10.2473 41.16 10.1739 40.8467 10.0673 40.56C9.9606 40.2667 9.81393 40.0267 9.62727 39.84C9.44727 39.6467 9.21393 39.55 8.92727 39.55Z" fill="#74787C"/>
<path d="M3.79 10H2.82V4.1L1.48 5.22L0.91 4.55L2.92 2.92H3.79V10ZM8.92727 2.74C9.34727 2.74 9.70727 2.83667 10.0073 3.03C10.3139 3.22333 10.5639 3.49 10.7573 3.83C10.9573 4.16333 11.1039 4.55667 11.1973 5.01C11.2906 5.46333 11.3373 5.94667 11.3373 6.46C11.3373 6.98 11.2906 7.46667 11.1973 7.92C11.1039 8.36667 10.9573 8.76 10.7573 9.1C10.5639 9.43333 10.3139 9.69667 10.0073 9.89C9.70727 10.0833 9.34727 10.18 8.92727 10.18C8.50727 10.18 8.14393 10.0833 7.83727 9.89C7.5306 9.69667 7.27727 9.43333 7.07727 9.1C6.88393 8.76 6.7406 8.36667 6.64727 7.92C6.55393 7.46667 6.50727 6.98 6.50727 6.46C6.50727 5.94667 6.55393 5.46333 6.64727 5.01C6.7406 4.55667 6.88393 4.16333 7.07727 3.83C7.27727 3.49 7.5306 3.22333 7.83727 3.03C8.14393 2.83667 8.50727 2.74 8.92727 2.74ZM8.92727 3.55C8.63393 3.55 8.39393 3.64667 8.20727 3.84C8.0206 4.02667 7.87393 4.26667 7.76727 4.56C7.66727 4.84667 7.59727 5.16 7.55727 5.5C7.51727 5.84 7.49727 6.16 7.49727 6.46C7.49727 6.76 7.51727 7.08 7.55727 7.42C7.59727 7.76 7.66727 8.07333 7.76727 8.36C7.87393 8.64667 8.0206 8.88667 8.20727 9.08C8.39393 9.26667 8.63393 9.36 8.92727 9.36C9.21393 9.36 9.44727 9.26667 9.62727 9.08C9.81393 8.88667 9.9606 8.64667 10.0673 8.36C10.1739 8.07333 10.2473 7.76 10.2873 7.42C10.3273 7.08 10.3473 6.76 10.3473 6.46C10.3473 6.16 10.3273 5.84 10.2873 5.5C10.2473 5.16 10.1739 4.84667 10.0673 4.56C9.9606 4.26667 9.81393 4.02667 9.62727 3.84C9.44727 3.64667 9.21393 3.55 8.92727 3.55Z" fill="#74787C"/>
<path opacity="0.25" d="M30 8.5H282" stroke="black" stroke-linecap="round" stroke-linejoin="round" stroke-dasharray="0 10"/>
<path d="M4.51 115.58H5.53V116.41H4.51V118H3.57V116.41H0.31V115.53L3.32 110.92H4.51V115.58ZM3.57 112.03H3.55L1.31 115.58H3.57V112.03ZM8.92727 110.74C9.34727 110.74 9.70727 110.837 10.0073 111.03C10.3139 111.223 10.5639 111.49 10.7573 111.83C10.9573 112.163 11.1039 112.557 11.1973 113.01C11.2906 113.463 11.3373 113.947 11.3373 114.46C11.3373 114.98 11.2906 115.467 11.1973 115.92C11.1039 116.367 10.9573 116.76 10.7573 117.1C10.5639 117.433 10.3139 117.697 10.0073 117.89C9.70727 118.083 9.34727 118.18 8.92727 118.18C8.50727 118.18 8.14393 118.083 7.83727 117.89C7.5306 117.697 7.27727 117.433 7.07727 117.1C6.88393 116.76 6.7406 116.367 6.64727 115.92C6.55393 115.467 6.50727 114.98 6.50727 114.46C6.50727 113.947 6.55393 113.463 6.64727 113.01C6.7406 112.557 6.88393 112.163 7.07727 111.83C7.27727 111.49 7.5306 111.223 7.83727 111.03C8.14393 110.837 8.50727 110.74 8.92727 110.74ZM8.92727 111.55C8.63393 111.55 8.39393 111.647 8.20727 111.84C8.0206 112.027 7.87393 112.267 7.76727 112.56C7.66727 112.847 7.59727 113.16 7.55727 113.5C7.51727 113.84 7.49727 114.16 7.49727 114.46C7.49727 114.76 7.51727 115.08 7.55727 115.42C7.59727 115.76 7.66727 116.073 7.76727 116.36C7.87393 116.647 8.0206 116.887 8.20727 117.08C8.39393 117.267 8.63393 117.36 8.92727 117.36C9.21393 117.36 9.44727 117.267 9.62727 117.08C9.81393 116.887 9.9606 116.647 10.0673 116.36C10.1739 116.073 10.2473 115.76 10.2873 115.42C10.3273 115.08 10.3473 114.76 10.3473 114.46C10.3473 114.16 10.3273 113.84 10.2873 113.5C10.2473 113.16 10.1739 112.847 10.0673 112.56C9.9606 112.267 9.81393 112.027 9.62727 111.84C9.44727 111.647 9.21393 111.55 8.92727 111.55Z" fill="#74787C"/>
<path d="M2.31 77.77L2.32 77.79C2.42 77.73 2.55333 77.6833 2.72 77.65C2.88667 77.6167 3.04667 77.6 3.2 77.6C3.50667 77.6 3.79333 77.6567 4.06 77.77C4.33333 77.8767 4.57 78.03 4.77 78.23C4.97 78.4233 5.12667 78.6567 5.24 78.93C5.35333 79.2033 5.41 79.5 5.41 79.82C5.41 80.1733 5.34667 80.4967 5.22 80.79C5.1 81.0767 4.93 81.3233 4.71 81.53C4.49 81.7367 4.23 81.8967 3.93 82.01C3.63667 82.1233 3.31667 82.18 2.97 82.18C2.61667 82.18 2.29 82.12 1.99 82C1.69 81.8867 1.43 81.7267 1.21 81.52C0.996667 81.3133 0.826667 81.0667 0.7 80.78C0.58 80.4933 0.52 80.1833 0.52 79.85C0.52 79.4633 0.583333 79.1133 0.71 78.8C0.836667 78.4867 1.00333 78.1667 1.21 77.84L3.06 74.92H4.21L2.31 77.77ZM1.5 79.86C1.5 80.0667 1.53333 80.2633 1.6 80.45C1.67333 80.63 1.77333 80.7867 1.9 80.92C2.03333 81.0533 2.19 81.16 2.37 81.24C2.55 81.32 2.75 81.36 2.97 81.36C3.19 81.36 3.38667 81.3233 3.56 81.25C3.74 81.1767 3.89333 81.0733 4.02 80.94C4.15333 80.8 4.25333 80.64 4.32 80.46C4.39333 80.2733 4.43 80.07 4.43 79.85C4.43 79.6367 4.39333 79.44 4.32 79.26C4.25333 79.08 4.15667 78.9233 4.03 78.79C3.91 78.6567 3.76 78.5533 3.58 78.48C3.4 78.4067 3.2 78.37 2.98 78.37C2.76 78.37 2.55667 78.4067 2.37 78.48C2.19 78.5533 2.03333 78.6567 1.9 78.79C1.77333 78.9233 1.67333 79.08 1.6 79.26C1.53333 79.44 1.5 79.64 1.5 79.86ZM8.92727 74.74C9.34727 74.74 9.70727 74.8367 10.0073 75.03C10.3139 75.2233 10.5639 75.49 10.7573 75.83C10.9573 76.1633 11.1039 76.5567 11.1973 77.01C11.2906 77.4633 11.3373 77.9467 11.3373 78.46C11.3373 78.98 11.2906 79.4667 11.1973 79.92C11.1039 80.3667 10.9573 80.76 10.7573 81.1C10.5639 81.4333 10.3139 81.6967 10.0073 81.89C9.70727 82.0833 9.34727 82.18 8.92727 82.18C8.50727 82.18 8.14393 82.0833 7.83727 81.89C7.5306 81.6967 7.27727 81.4333 7.07727 81.1C6.88393 80.76 6.7406 80.3667 6.64727 79.92C6.55393 79.4667 6.50727 78.98 6.50727 78.46C6.50727 77.9467 6.55393 77.4633 6.64727 77.01C6.7406 76.5567 6.88393 76.1633 7.07727 75.83C7.27727 75.49 7.5306 75.2233 7.83727 75.03C8.14393 74.8367 8.50727 74.74 8.92727 74.74ZM8.92727 75.55C8.63393 75.55 8.39393 75.6467 8.20727 75.84C8.0206 76.0267 7.87393 76.2667 7.76727 76.56C7.66727 76.8467 7.59727 77.16 7.55727 77.5C7.51727 77.84 7.49727 78.16 7.49727 78.46C7.49727 78.76 7.51727 79.08 7.55727 79.42C7.59727 79.76 7.66727 80.0733 7.76727 80.36C7.87393 80.6467 8.0206 80.8867 8.20727 81.08C8.39393 81.2667 8.63393 81.36 8.92727 81.36C9.21393 81.36 9.44727 81.2667 9.62727 81.08C9.81393 80.8867 9.9606 80.6467 10.0673 80.36C10.1739 80.0733 10.2473 79.76 10.2873 79.42C10.3273 79.08 10.3473 78.76 10.3473 78.46C10.3473 78.16 10.3273 77.84 10.2873 77.5C10.2473 77.16 10.1739 76.8467 10.0673 76.56C9.9606 76.2667 9.81393 76.0267 9.62727 75.84C9.44727 75.6467 9.21393 75.55 8.92727 75.55Z" fill="#74787C"/>
<path d="M2.98 182.74C3.4 182.74 3.76 182.837 4.06 183.03C4.36667 183.223 4.61667 183.49 4.81 183.83C5.01 184.163 5.15667 184.557 5.25 185.01C5.34333 185.463 5.39 185.947 5.39 186.46C5.39 186.98 5.34333 187.467 5.25 187.92C5.15667 188.367 5.01 188.76 4.81 189.1C4.61667 189.433 4.36667 189.697 4.06 189.89C3.76 190.083 3.4 190.18 2.98 190.18C2.56 190.18 2.19667 190.083 1.89 189.89C1.58333 189.697 1.33 189.433 1.13 189.1C0.936667 188.76 0.793333 188.367 0.7 187.92C0.606667 187.467 0.56 186.98 0.56 186.46C0.56 185.947 0.606667 185.463 0.7 185.01C0.793333 184.557 0.936667 184.163 1.13 183.83C1.33 183.49 1.58333 183.223 1.89 183.03C2.19667 182.837 2.56 182.74 2.98 182.74ZM2.98 183.55C2.68667 183.55 2.44667 183.647 2.26 183.84C2.07333 184.027 1.92667 184.267 1.82 184.56C1.72 184.847 1.65 185.16 1.61 185.5C1.57 185.84 1.55 186.16 1.55 186.46C1.55 186.76 1.57 187.08 1.61 187.42C1.65 187.76 1.72 188.073 1.82 188.36C1.92667 188.647 2.07333 188.887 2.26 189.08C2.44667 189.267 2.68667 189.36 2.98 189.36C3.26667 189.36 3.5 189.267 3.68 189.08C3.86667 188.887 4.01333 188.647 4.12 188.36C4.22667 188.073 4.3 187.76 4.34 187.42C4.38 187.08 4.4 186.76 4.4 186.46C4.4 186.16 4.38 185.84 4.34 185.5C4.3 185.16 4.22667 184.847 4.12 184.56C4.01333 184.267 3.86667 184.027 3.68 183.84C3.5 183.647 3.26667 183.55 2.98 183.55Z" fill="#74787C"/>
<path opacity="0.25" d="M34 44.5H284" stroke="black" stroke-linecap="round" stroke-linejoin="round" stroke-dasharray="0 10"/>
<path opacity="0.25" d="M34 80.5H284" stroke="black" stroke-linecap="round" stroke-linejoin="round" stroke-dasharray="0 10"/>
<path opacity="0.25" d="M34 116.5H284" stroke="black" stroke-linecap="round" stroke-linejoin="round" stroke-dasharray="0 10"/>
<path d="M5.22 153H0.6V152.07L3.42 149.27C3.63333 149.05 3.81667 148.82 3.97 148.58C4.12333 148.34 4.2 148.07 4.2 147.77C4.2 147.583 4.16667 147.417 4.1 147.27C4.03333 147.117 3.94333 146.987 3.83 146.88C3.71667 146.773 3.58333 146.693 3.43 146.64C3.27667 146.58 3.11333 146.55 2.94 146.55C2.58 146.55 2.28333 146.667 2.05 146.9C1.81667 147.127 1.67 147.42 1.61 147.78L0.66 147.62C0.7 147.353 0.783333 147.107 0.91 146.88C1.04333 146.647 1.21 146.447 1.41 146.28C1.61 146.107 1.84 145.973 2.1 145.88C2.36667 145.787 2.65 145.74 2.95 145.74C3.24333 145.74 3.52333 145.783 3.79 145.87C4.06333 145.957 4.30333 146.083 4.51 146.25C4.71667 146.417 4.88 146.627 5 146.88C5.12667 147.133 5.19 147.423 5.19 147.75C5.19 147.977 5.16 148.187 5.1 148.38C5.04 148.573 4.95667 148.757 4.85 148.93C4.75 149.103 4.63 149.27 4.49 149.43C4.35 149.583 4.20333 149.737 4.05 149.89L1.75 152.13H5.22V153ZM8.92727 145.74C9.34727 145.74 9.70727 145.837 10.0073 146.03C10.3139 146.223 10.5639 146.49 10.7573 146.83C10.9573 147.163 11.1039 147.557 11.1973 148.01C11.2906 148.463 11.3373 148.947 11.3373 149.46C11.3373 149.98 11.2906 150.467 11.1973 150.92C11.1039 151.367 10.9573 151.76 10.7573 152.1C10.5639 152.433 10.3139 152.697 10.0073 152.89C9.70727 153.083 9.34727 153.18 8.92727 153.18C8.50727 153.18 8.14393 153.083 7.83727 152.89C7.5306 152.697 7.27727 152.433 7.07727 152.1C6.88393 151.76 6.7406 151.367 6.64727 150.92C6.55393 150.467 6.50727 149.98 6.50727 149.46C6.50727 148.947 6.55393 148.463 6.64727 148.01C6.7406 147.557 6.88393 147.163 7.07727 146.83C7.27727 146.49 7.5306 146.223 7.83727 146.03C8.14393 145.837 8.50727 145.74 8.92727 145.74ZM8.92727 146.55C8.63393 146.55 8.39393 146.647 8.20727 146.84C8.0206 147.027 7.87393 147.267 7.76727 147.56C7.66727 147.847 7.59727 148.16 7.55727 148.5C7.51727 148.84 7.49727 149.16 7.49727 149.46C7.49727 149.76 7.51727 150.08 7.55727 150.42C7.59727 150.76 7.66727 151.073 7.76727 151.36C7.87393 151.647 8.0206 151.887 8.20727 152.08C8.39393 152.267 8.63393 152.36 8.92727 152.36C9.21393 152.36 9.44727 152.267 9.62727 152.08C9.81393 151.887 9.9606 151.647 10.0673 151.36C10.1739 151.073 10.2473 150.76 10.2873 150.42C10.3273 150.08 10.3473 149.76 10.3473 149.46C10.3473 149.16 10.3273 148.84 10.2873 148.5C10.2473 148.16 10.1739 147.847 10.0673 147.56C9.9606 147.267 9.81393 147.027 9.62727 146.84C9.44727 146.647 9.21393 146.55 8.92727 146.55Z" fill="#74787C"/>
<path opacity="0.25" d="M34 152.5H284" stroke="black" stroke-linecap="round" stroke-linejoin="round" stroke-dasharray="0 10"/>
<path opacity="0.25" d="M34 188.5H284" stroke="black" stroke-linecap="round" stroke-linejoin="round" stroke-dasharray="0 10"/>
<path d="M27.5777 203.74C27.9977 203.74 28.3577 203.837 28.6577 204.03C28.9643 204.223 29.2143 204.49 29.4077 204.83C29.6077 205.163 29.7543 205.557 29.8477 206.01C29.941 206.463 29.9877 206.947 29.9877 207.46C29.9877 207.98 29.941 208.467 29.8477 208.92C29.7543 209.367 29.6077 209.76 29.4077 210.1C29.2143 210.433 28.9643 210.697 28.6577 210.89C28.3577 211.083 27.9977 211.18 27.5777 211.18C27.1577 211.18 26.7943 211.083 26.4877 210.89C26.181 210.697 25.9277 210.433 25.7277 210.1C25.5343 209.76 25.391 209.367 25.2977 208.92C25.2043 208.467 25.1577 207.98 25.1577 207.46C25.1577 206.947 25.2043 206.463 25.2977 206.01C25.391 205.557 25.5343 205.163 25.7277 204.83C25.9277 204.49 26.181 204.223 26.4877 204.03C26.7943 203.837 27.1577 203.74 27.5777 203.74ZM27.5777 204.55C27.2843 204.55 27.0443 204.647 26.8577 204.84C26.671 205.027 26.5243 205.267 26.4177 205.56C26.3177 205.847 26.2477 206.16 26.2077 206.5C26.1677 206.84 26.1477 207.16 26.1477 207.46C26.1477 207.76 26.1677 208.08 26.2077 208.42C26.2477 208.76 26.3177 209.073 26.4177 209.36C26.5243 209.647 26.671 209.887 26.8577 210.08C27.0443 210.267 27.2843 210.36 27.5777 210.36C27.8643 210.36 28.0977 210.267 28.2777 210.08C28.4643 209.887 28.611 209.647 28.7177 209.36C28.8243 209.073 28.8977 208.76 28.9377 208.42C28.9777 208.08 28.9977 207.76 28.9977 207.46C28.9977 207.16 28.9777 206.84 28.9377 206.5C28.8977 206.16 28.8243 205.847 28.7177 205.56C28.611 205.267 28.4643 205.027 28.2777 204.84C28.0977 204.647 27.8643 204.55 27.5777 204.55ZM34.3349 211H33.3649V205.1L32.0249 206.22L31.4549 205.55L33.4649 203.92H34.3349V211Z" fill="#74787C"/>
<path d="M25.8443 223.78H25.8543L28.2243 217.92H29.3243V225H28.6043V218.85H28.5843L26.0243 225H25.6443L23.0843 218.85H23.0643V225H22.3443V217.92H23.4443L25.8443 223.78ZM35.8117 222.66C35.8117 223.013 35.7484 223.34 35.6217 223.64C35.5017 223.94 35.3317 224.2 35.1117 224.42C34.8917 224.64 34.6284 224.813 34.3217 224.94C34.0151 225.06 33.6784 225.12 33.3117 225.12C32.9517 225.12 32.6184 225.06 32.3117 224.94C32.0051 224.813 31.7417 224.64 31.5217 224.42C31.3017 224.2 31.1284 223.94 31.0017 223.64C30.8817 223.34 30.8217 223.013 30.8217 222.66C30.8217 222.307 30.8817 221.98 31.0017 221.68C31.1284 221.38 31.3017 221.12 31.5217 220.9C31.7417 220.68 32.0051 220.51 32.3117 220.39C32.6184 220.263 32.9517 220.2 33.3117 220.2C33.6784 220.2 34.0151 220.263 34.3217 220.39C34.6284 220.51 34.8917 220.68 35.1117 220.9C35.3317 221.12 35.5017 221.38 35.6217 221.68C35.7484 221.98 35.8117 222.307 35.8117 222.66ZM35.0917 222.66C35.0917 222.4 35.0484 222.157 34.9617 221.93C34.8817 221.697 34.7651 221.497 34.6117 221.33C34.4584 221.157 34.2717 221.02 34.0517 220.92C33.8317 220.82 33.5851 220.77 33.3117 220.77C33.0384 220.77 32.7917 220.82 32.5717 220.92C32.3584 221.02 32.1751 221.157 32.0217 221.33C31.8684 221.497 31.7484 221.697 31.6617 221.93C31.5817 222.157 31.5417 222.4 31.5417 222.66C31.5417 222.92 31.5817 223.167 31.6617 223.4C31.7484 223.627 31.8684 223.827 32.0217 224C32.1751 224.167 32.3584 224.3 32.5717 224.4C32.7917 224.493 33.0384 224.54 33.3117 224.54C33.5851 224.54 33.8317 224.493 34.0517 224.4C34.2717 224.3 34.4584 224.167 34.6117 224C34.7651 223.827 34.8817 223.627 34.9617 223.4C35.0484 223.167 35.0917 222.92 35.0917 222.66ZM37.885 220.32C37.8983 220.447 37.9083 220.587 37.915 220.74C37.9217 220.893 37.925 221.02 37.925 221.12H37.945C38.0783 220.847 38.295 220.627 38.595 220.46C38.895 220.287 39.2117 220.2 39.545 220.2C40.1383 220.2 40.5817 220.377 40.875 220.73C41.175 221.083 41.325 221.55 41.325 222.13V225H40.645V222.41C40.645 222.163 40.625 221.94 40.585 221.74C40.545 221.54 40.475 221.37 40.375 221.23C40.2817 221.083 40.1517 220.97 39.985 220.89C39.825 220.81 39.6217 220.77 39.375 220.77C39.195 220.77 39.0183 220.807 38.845 220.88C38.6783 220.953 38.5283 221.067 38.395 221.22C38.2617 221.367 38.155 221.557 38.075 221.79C37.995 222.017 37.955 222.287 37.955 222.6V225H37.275V221.35C37.275 221.223 37.2717 221.06 37.265 220.86C37.2583 220.66 37.2483 220.48 37.235 220.32H37.885Z" fill="#989B9F"/>
<path d="M67.3806 203.74C67.8006 203.74 68.1606 203.837 68.4606 204.03C68.7673 204.223 69.0173 204.49 69.2106 204.83C69.4106 205.163 69.5573 205.557 69.6506 206.01C69.744 206.463 69.7906 206.947 69.7906 207.46C69.7906 207.98 69.744 208.467 69.6506 208.92C69.5573 209.367 69.4106 209.76 69.2106 210.1C69.0173 210.433 68.7673 210.697 68.4606 210.89C68.1606 211.083 67.8006 211.18 67.3806 211.18C66.9606 211.18 66.5973 211.083 66.2906 210.89C65.984 210.697 65.7306 210.433 65.5306 210.1C65.3373 209.76 65.194 209.367 65.1006 208.92C65.0073 208.467 64.9606 207.98 64.9606 207.46C64.9606 206.947 65.0073 206.463 65.1006 206.01C65.194 205.557 65.3373 205.163 65.5306 204.83C65.7306 204.49 65.984 204.223 66.2906 204.03C66.5973 203.837 66.9606 203.74 67.3806 203.74ZM67.3806 204.55C67.0873 204.55 66.8473 204.647 66.6606 204.84C66.474 205.027 66.3273 205.267 66.2206 205.56C66.1206 205.847 66.0506 206.16 66.0106 206.5C65.9706 206.84 65.9506 207.16 65.9506 207.46C65.9506 207.76 65.9706 208.08 66.0106 208.42C66.0506 208.76 66.1206 209.073 66.2206 209.36C66.3273 209.647 66.474 209.887 66.6606 210.08C66.8473 210.267 67.0873 210.36 67.3806 210.36C67.6673 210.36 67.9006 210.267 68.0806 210.08C68.2673 209.887 68.414 209.647 68.5206 209.36C68.6273 209.073 68.7006 208.76 68.7406 208.42C68.7806 208.08 68.8006 207.76 68.8006 207.46C68.8006 207.16 68.7806 206.84 68.7406 206.5C68.7006 206.16 68.6273 205.847 68.5206 205.56C68.414 205.267 68.2673 205.027 68.0806 204.84C67.9006 204.647 67.6673 204.55 67.3806 204.55ZM75.5679 211H70.9479V210.07L73.7679 207.27C73.9812 207.05 74.1646 206.82 74.3179 206.58C74.4712 206.34 74.5479 206.07 74.5479 205.77C74.5479 205.583 74.5146 205.417 74.4479 205.27C74.3812 205.117 74.2912 204.987 74.1779 204.88C74.0646 204.773 73.9312 204.693 73.7779 204.64C73.6246 204.58 73.4612 204.55 73.2879 204.55C72.9279 204.55 72.6312 204.667 72.3979 204.9C72.1646 205.127 72.0179 205.42 71.9579 205.78L71.0079 205.62C71.0479 205.353 71.1312 205.107 71.2579 204.88C71.3912 204.647 71.5579 204.447 71.7579 204.28C71.9579 204.107 72.1879 203.973 72.4479 203.88C72.7146 203.787 72.9979 203.74 73.2979 203.74C73.5912 203.74 73.8712 203.783 74.1379 203.87C74.4112 203.957 74.6512 204.083 74.8579 204.25C75.0646 204.417 75.2279 204.627 75.3479 204.88C75.4746 205.133 75.5379 205.423 75.5379 205.75C75.5379 205.977 75.5079 206.187 75.4479 206.38C75.3879 206.573 75.3046 206.757 75.1979 206.93C75.0979 207.103 74.9779 207.27 74.8379 207.43C74.6979 207.583 74.5512 207.737 74.3979 207.89L72.0979 210.13H75.5679V211Z" fill="#74787C"/>
<path d="M66.639 225H65.919V218.56H63.549V217.92H69.009V218.56H66.639V225ZM72.5336 225C72.5203 224.873 72.5103 224.733 72.5036 224.58C72.497 224.427 72.4936 224.3 72.4936 224.2H72.4736C72.3403 224.473 72.1236 224.697 71.8236 224.87C71.5236 225.037 71.207 225.12 70.8736 225.12C70.2803 225.12 69.8336 224.943 69.5336 224.59C69.2403 224.237 69.0936 223.77 69.0936 223.19V220.32H69.7736V222.91C69.7736 223.157 69.7936 223.38 69.8336 223.58C69.8736 223.78 69.9403 223.953 70.0336 224.1C70.1336 224.24 70.2636 224.35 70.4236 224.43C70.5903 224.51 70.797 224.55 71.0436 224.55C71.2236 224.55 71.397 224.513 71.5636 224.44C71.737 224.367 71.8903 224.257 72.0236 224.11C72.157 223.957 72.2636 223.767 72.3436 223.54C72.4236 223.307 72.4636 223.033 72.4636 222.72V220.32H73.1436V223.97C73.1436 224.097 73.147 224.26 73.1536 224.46C73.1603 224.66 73.1703 224.84 73.1836 225H72.5336ZM78.5142 222.3C78.4942 221.86 78.3509 221.497 78.0842 221.21C77.8242 220.917 77.4509 220.77 76.9642 220.77C76.7375 220.77 76.5275 220.813 76.3342 220.9C76.1409 220.98 75.9709 221.093 75.8242 221.24C75.6775 221.38 75.5609 221.543 75.4742 221.73C75.3875 221.91 75.3375 222.1 75.3242 222.3H78.5142ZM79.2042 222.52C79.2042 222.567 79.2042 222.617 79.2042 222.67C79.2042 222.723 79.2009 222.78 79.1942 222.84H75.3142C75.3209 223.073 75.3675 223.293 75.4542 223.5C75.5409 223.707 75.6609 223.887 75.8142 224.04C75.9675 224.193 76.1475 224.317 76.3542 224.41C76.5609 224.497 76.7842 224.54 77.0242 224.54C77.3775 224.54 77.6809 224.46 77.9342 224.3C78.1942 224.133 78.3909 223.943 78.5242 223.73L79.0342 224.13C78.7542 224.483 78.4442 224.737 78.1042 224.89C77.7709 225.043 77.4109 225.12 77.0242 225.12C76.6775 225.12 76.3542 225.06 76.0542 224.94C75.7609 224.813 75.5075 224.64 75.2942 224.42C75.0809 224.2 74.9109 223.94 74.7842 223.64C74.6642 223.34 74.6042 223.013 74.6042 222.66C74.6042 222.307 74.6642 221.98 74.7842 221.68C74.9042 221.38 75.0709 221.12 75.2842 220.9C75.4975 220.68 75.7475 220.51 76.0342 220.39C76.3209 220.263 76.6309 220.2 76.9642 220.2C77.3309 220.2 77.6542 220.263 77.9342 220.39C78.2142 220.51 78.4475 220.677 78.6342 220.89C78.8209 221.097 78.9609 221.34 79.0542 221.62C79.1542 221.9 79.2042 222.2 79.2042 222.52Z" fill="#989B9F"/>
<path d="M107.968 203.74C108.388 203.74 108.748 203.837 109.048 204.03C109.354 204.223 109.604 204.49 109.798 204.83C109.998 205.163 110.144 205.557 110.238 206.01C110.331 206.463 110.378 206.947 110.378 207.46C110.378 207.98 110.331 208.467 110.238 208.92C110.144 209.367 109.998 209.76 109.798 210.1C109.604 210.433 109.354 210.697 109.048 210.89C108.748 211.083 108.388 211.18 107.968 211.18C107.548 211.18 107.184 211.083 106.878 210.89C106.571 210.697 106.318 210.433 106.118 210.1C105.924 209.76 105.781 209.367 105.688 208.92C105.594 208.467 105.548 207.98 105.548 207.46C105.548 206.947 105.594 206.463 105.688 206.01C105.781 205.557 105.924 205.163 106.118 204.83C106.318 204.49 106.571 204.223 106.878 204.03C107.184 203.837 107.548 203.74 107.968 203.74ZM107.968 204.55C107.674 204.55 107.434 204.647 107.248 204.84C107.061 205.027 106.914 205.267 106.808 205.56C106.708 205.847 106.638 206.16 106.598 206.5C106.558 206.84 106.538 207.16 106.538 207.46C106.538 207.76 106.558 208.08 106.598 208.42C106.638 208.76 106.708 209.073 106.808 209.36C106.914 209.647 107.061 209.887 107.248 210.08C107.434 210.267 107.674 210.36 107.968 210.36C108.254 210.36 108.488 210.267 108.668 210.08C108.854 209.887 109.001 209.647 109.108 209.36C109.214 209.073 109.288 208.76 109.328 208.42C109.368 208.08 109.388 207.76 109.388 207.46C109.388 207.16 109.368 206.84 109.328 206.5C109.288 206.16 109.214 205.847 109.108 205.56C109.001 205.267 108.854 205.027 108.668 204.84C108.488 204.647 108.254 204.55 107.968 204.55ZM113.065 206.9H113.375C113.575 206.9 113.768 206.883 113.955 206.85C114.148 206.81 114.318 206.747 114.465 206.66C114.612 206.567 114.728 206.443 114.815 206.29C114.908 206.137 114.955 205.947 114.955 205.72C114.955 205.54 114.922 205.38 114.855 205.24C114.788 205.093 114.695 204.97 114.575 204.87C114.462 204.77 114.328 204.693 114.175 204.64C114.028 204.58 113.872 204.55 113.705 204.55C113.405 204.55 113.148 204.627 112.935 204.78C112.728 204.933 112.572 205.147 112.465 205.42L111.585 205.11C111.758 204.683 112.035 204.35 112.415 204.11C112.802 203.863 113.245 203.74 113.745 203.74C114.038 203.74 114.315 203.783 114.575 203.87C114.842 203.95 115.075 204.07 115.275 204.23C115.475 204.39 115.632 204.59 115.745 204.83C115.865 205.07 115.925 205.347 115.925 205.66C115.925 205.86 115.892 206.047 115.825 206.22C115.765 206.393 115.678 206.55 115.565 206.69C115.458 206.83 115.328 206.95 115.175 207.05C115.022 207.15 114.855 207.223 114.675 207.27V207.29C114.882 207.33 115.072 207.4 115.245 207.5C115.425 207.6 115.578 207.727 115.705 207.88C115.832 208.027 115.932 208.197 116.005 208.39C116.078 208.583 116.115 208.793 116.115 209.02C116.115 209.373 116.048 209.687 115.915 209.96C115.782 210.227 115.605 210.45 115.385 210.63C115.165 210.81 114.912 210.947 114.625 211.04C114.338 211.133 114.045 211.18 113.745 211.18C113.185 211.18 112.692 211.053 112.265 210.8C111.838 210.547 111.528 210.153 111.335 209.62L112.235 209.32C112.342 209.627 112.522 209.877 112.775 210.07C113.035 210.263 113.352 210.36 113.725 210.36C113.905 210.36 114.078 210.333 114.245 210.28C114.418 210.22 114.572 210.133 114.705 210.02C114.838 209.907 114.945 209.767 115.025 209.6C115.105 209.433 115.145 209.237 115.145 209.01C115.145 208.763 115.092 208.557 114.985 208.39C114.878 208.223 114.738 208.09 114.565 207.99C114.398 207.883 114.208 207.81 113.995 207.77C113.782 207.723 113.572 207.7 113.365 207.7H113.065V206.9Z" fill="#74787C"/>
<path d="M104.112 224.01H104.132L105.902 217.92H106.762L108.532 224.01H108.552L110.282 217.92H111.042L108.952 225H108.112L106.332 218.92H106.312L104.532 225H103.692L101.602 217.92H102.362L104.112 224.01ZM115.288 222.3C115.268 221.86 115.124 221.497 114.858 221.21C114.598 220.917 114.224 220.77 113.738 220.77C113.511 220.77 113.301 220.813 113.108 220.9C112.914 220.98 112.744 221.093 112.598 221.24C112.451 221.38 112.334 221.543 112.248 221.73C112.161 221.91 112.111 222.1 112.098 222.3H115.288ZM115.978 222.52C115.978 222.567 115.978 222.617 115.978 222.67C115.978 222.723 115.974 222.78 115.968 222.84H112.088C112.094 223.073 112.141 223.293 112.228 223.5C112.314 223.707 112.434 223.887 112.588 224.04C112.741 224.193 112.921 224.317 113.128 224.41C113.334 224.497 113.558 224.54 113.798 224.54C114.151 224.54 114.454 224.46 114.708 224.3C114.968 224.133 115.164 223.943 115.298 223.73L115.808 224.13C115.528 224.483 115.218 224.737 114.878 224.89C114.544 225.043 114.184 225.12 113.798 225.12C113.451 225.12 113.128 225.06 112.828 224.94C112.534 224.813 112.281 224.64 112.068 224.42C111.854 224.2 111.684 223.94 111.558 223.64C111.438 223.34 111.378 223.013 111.378 222.66C111.378 222.307 111.438 221.98 111.558 221.68C111.678 221.38 111.844 221.12 112.058 220.9C112.271 220.68 112.521 220.51 112.808 220.39C113.094 220.263 113.404 220.2 113.738 220.2C114.104 220.2 114.428 220.263 114.708 220.39C114.988 220.51 115.221 220.677 115.408 220.89C115.594 221.097 115.734 221.34 115.828 221.62C115.928 221.9 115.978 222.2 115.978 222.52ZM121.29 224.21C121.09 224.51 120.83 224.737 120.51 224.89C120.19 225.043 119.86 225.12 119.52 225.12C119.154 225.12 118.82 225.057 118.52 224.93C118.227 224.803 117.974 224.63 117.76 224.41C117.554 224.19 117.39 223.93 117.27 223.63C117.157 223.33 117.1 223.007 117.1 222.66C117.1 222.313 117.157 221.99 117.27 221.69C117.39 221.39 117.554 221.13 117.76 220.91C117.974 220.69 118.227 220.517 118.52 220.39C118.82 220.263 119.154 220.2 119.52 220.2C119.86 220.2 120.19 220.28 120.51 220.44C120.83 220.593 121.09 220.823 121.29 221.13H121.31V217.44H121.99V225H121.31V224.21H121.29ZM117.82 222.66C117.82 222.92 117.86 223.167 117.94 223.4C118.02 223.627 118.134 223.827 118.28 224C118.434 224.167 118.62 224.3 118.84 224.4C119.06 224.493 119.31 224.54 119.59 224.54C119.85 224.54 120.09 224.493 120.31 224.4C120.53 224.3 120.72 224.167 120.88 224C121.04 223.833 121.164 223.637 121.25 223.41C121.344 223.177 121.39 222.927 121.39 222.66C121.39 222.393 121.344 222.147 121.25 221.92C121.164 221.687 121.04 221.487 120.88 221.32C120.72 221.147 120.53 221.013 120.31 220.92C120.09 220.82 119.85 220.77 119.59 220.77C119.31 220.77 119.06 220.82 118.84 220.92C118.62 221.02 118.434 221.157 118.28 221.33C118.134 221.497 118.02 221.697 117.94 221.93C117.86 222.157 117.82 222.4 117.82 222.66Z" fill="#989B9F"/>
<path d="M148.7 203.74C149.12 203.74 149.48 203.837 149.78 204.03C150.086 204.223 150.336 204.49 150.53 204.83C150.73 205.163 150.876 205.557 150.97 206.01C151.063 206.463 151.11 206.947 151.11 207.46C151.11 207.98 151.063 208.467 150.97 208.92C150.876 209.367 150.73 209.76 150.53 210.1C150.336 210.433 150.086 210.697 149.78 210.89C149.48 211.083 149.12 211.18 148.7 211.18C148.28 211.18 147.916 211.083 147.61 210.89C147.303 210.697 147.05 210.433 146.85 210.1C146.656 209.76 146.513 209.367 146.42 208.92C146.326 208.467 146.28 207.98 146.28 207.46C146.28 206.947 146.326 206.463 146.42 206.01C146.513 205.557 146.656 205.163 146.85 204.83C147.05 204.49 147.303 204.223 147.61 204.03C147.916 203.837 148.28 203.74 148.7 203.74ZM148.7 204.55C148.406 204.55 148.166 204.647 147.98 204.84C147.793 205.027 147.646 205.267 147.54 205.56C147.44 205.847 147.37 206.16 147.33 206.5C147.29 206.84 147.27 207.16 147.27 207.46C147.27 207.76 147.29 208.08 147.33 208.42C147.37 208.76 147.44 209.073 147.54 209.36C147.646 209.647 147.793 209.887 147.98 210.08C148.166 210.267 148.406 210.36 148.7 210.36C148.986 210.36 149.22 210.267 149.4 210.08C149.586 209.887 149.733 209.647 149.84 209.36C149.946 209.073 150.02 208.76 150.06 208.42C150.1 208.08 150.12 207.76 150.12 207.46C150.12 207.16 150.1 206.84 150.06 206.5C150.02 206.16 149.946 205.847 149.84 205.56C149.733 205.267 149.586 205.027 149.4 204.84C149.22 204.647 148.986 204.55 148.7 204.55ZM156.177 208.58H157.197V209.41H156.177V211H155.237V209.41H151.977V208.53L154.987 203.92H156.177V208.58ZM155.237 205.03H155.217L152.977 208.58H155.237V205.03Z" fill="#74787C"/>
<path d="M147.543 225H146.823V218.56H144.453V217.92H149.913V218.56H147.543V225ZM151.48 221.09C151.607 220.817 151.817 220.6 152.11 220.44C152.404 220.28 152.717 220.2 153.05 220.2C153.644 220.2 154.087 220.377 154.38 220.73C154.68 221.083 154.83 221.55 154.83 222.13V225H154.15V222.41C154.15 222.163 154.13 221.94 154.09 221.74C154.05 221.54 153.98 221.37 153.88 221.23C153.787 221.083 153.657 220.97 153.49 220.89C153.33 220.81 153.127 220.77 152.88 220.77C152.7 220.77 152.524 220.807 152.35 220.88C152.184 220.953 152.034 221.067 151.9 221.22C151.767 221.367 151.66 221.557 151.58 221.79C151.5 222.017 151.46 222.287 151.46 222.6V225H150.78V217.44H151.46V221.09H151.48ZM159.99 225C159.977 224.873 159.967 224.733 159.96 224.58C159.954 224.427 159.95 224.3 159.95 224.2H159.93C159.797 224.473 159.58 224.697 159.28 224.87C158.98 225.037 158.664 225.12 158.33 225.12C157.737 225.12 157.29 224.943 156.99 224.59C156.697 224.237 156.55 223.77 156.55 223.19V220.32H157.23V222.91C157.23 223.157 157.25 223.38 157.29 223.58C157.33 223.78 157.397 223.953 157.49 224.1C157.59 224.24 157.72 224.35 157.88 224.43C158.047 224.51 158.254 224.55 158.5 224.55C158.68 224.55 158.854 224.513 159.02 224.44C159.194 224.367 159.347 224.257 159.48 224.11C159.614 223.957 159.72 223.767 159.8 223.54C159.88 223.307 159.92 223.033 159.92 222.72V220.32H160.6V223.97C160.6 224.097 160.604 224.26 160.61 224.46C160.617 224.66 160.627 224.84 160.64 225H159.99Z" fill="#989B9F"/>
<path d="M186.216 203.74C186.636 203.74 186.996 203.837 187.296 204.03C187.602 204.223 187.852 204.49 188.046 204.83C188.246 205.163 188.392 205.557 188.486 206.01C188.579 206.463 188.626 206.947 188.626 207.46C188.626 207.98 188.579 208.467 188.486 208.92C188.392 209.367 188.246 209.76 188.046 210.1C187.852 210.433 187.602 210.697 187.296 210.89C186.996 211.083 186.636 211.18 186.216 211.18C185.796 211.18 185.432 211.083 185.126 210.89C184.819 210.697 184.566 210.433 184.366 210.1C184.172 209.76 184.029 209.367 183.936 208.92C183.842 208.467 183.796 207.98 183.796 207.46C183.796 206.947 183.842 206.463 183.936 206.01C184.029 205.557 184.172 205.163 184.366 204.83C184.566 204.49 184.819 204.223 185.126 204.03C185.432 203.837 185.796 203.74 186.216 203.74ZM186.216 204.55C185.922 204.55 185.682 204.647 185.496 204.84C185.309 205.027 185.162 205.267 185.056 205.56C184.956 205.847 184.886 206.16 184.846 206.5C184.806 206.84 184.786 207.16 184.786 207.46C184.786 207.76 184.806 208.08 184.846 208.42C184.886 208.76 184.956 209.073 185.056 209.36C185.162 209.647 185.309 209.887 185.496 210.08C185.682 210.267 185.922 210.36 186.216 210.36C186.502 210.36 186.736 210.267 186.916 210.08C187.102 209.887 187.249 209.647 187.356 209.36C187.462 209.073 187.536 208.76 187.576 208.42C187.616 208.08 187.636 207.76 187.636 207.46C187.636 207.16 187.616 206.84 187.576 206.5C187.536 206.16 187.462 205.847 187.356 205.56C187.249 205.267 187.102 205.027 186.916 204.84C186.736 204.647 186.502 204.55 186.216 204.55ZM194.083 204.78H191.163L191.103 206.64C191.236 206.593 191.383 206.56 191.543 206.54C191.71 206.52 191.866 206.51 192.013 206.51C192.353 206.51 192.666 206.563 192.953 206.67C193.246 206.77 193.496 206.917 193.703 207.11C193.916 207.303 194.083 207.54 194.203 207.82C194.323 208.093 194.383 208.4 194.383 208.74C194.383 209.113 194.32 209.45 194.193 209.75C194.066 210.05 193.893 210.307 193.673 210.52C193.453 210.727 193.193 210.887 192.893 211C192.593 211.12 192.266 211.18 191.913 211.18C191.36 211.18 190.893 211.053 190.513 210.8C190.133 210.54 189.846 210.193 189.653 209.76L190.533 209.41C190.646 209.697 190.823 209.927 191.063 210.1C191.31 210.273 191.593 210.36 191.913 210.36C192.12 210.36 192.313 210.323 192.493 210.25C192.673 210.177 192.83 210.073 192.963 209.94C193.096 209.807 193.2 209.647 193.273 209.46C193.353 209.273 193.393 209.067 193.393 208.84C193.393 208.573 193.346 208.343 193.253 208.15C193.166 207.95 193.046 207.787 192.893 207.66C192.74 207.533 192.563 207.44 192.363 207.38C192.163 207.32 191.953 207.29 191.733 207.29C191.466 207.29 191.193 207.327 190.913 207.4C190.633 207.473 190.383 207.567 190.163 207.68L190.263 203.92H194.083V204.78Z" fill="#74787C"/>
<path d="M186.444 225H185.724V217.92H189.994V218.56H186.444V221.02H189.744V221.65H186.444V225ZM190.879 221.35C190.879 221.223 190.876 221.06 190.869 220.86C190.862 220.66 190.852 220.48 190.839 220.32H191.489C191.502 220.447 191.512 220.587 191.519 220.74C191.526 220.893 191.529 221.02 191.529 221.12H191.549C191.682 220.847 191.882 220.627 192.149 220.46C192.416 220.287 192.716 220.2 193.049 220.2C193.136 220.2 193.212 220.203 193.279 220.21C193.352 220.217 193.426 220.23 193.499 220.25L193.409 220.89C193.369 220.877 193.302 220.863 193.209 220.85C193.116 220.837 193.022 220.83 192.929 220.83C192.749 220.83 192.576 220.863 192.409 220.93C192.242 220.997 192.096 221.103 191.969 221.25C191.849 221.39 191.749 221.573 191.669 221.8C191.596 222.02 191.559 222.287 191.559 222.6V225H190.879V221.35ZM195.172 225H194.492V220.32H195.172V225ZM195.312 218.52C195.312 218.66 195.262 218.777 195.162 218.87C195.062 218.957 194.952 219 194.832 219C194.712 219 194.602 218.957 194.502 218.87C194.402 218.777 194.352 218.66 194.352 218.52C194.352 218.38 194.402 218.267 194.502 218.18C194.602 218.087 194.712 218.04 194.832 218.04C194.952 218.04 195.062 218.087 195.162 218.18C195.262 218.267 195.312 218.38 195.312 218.52Z" fill="#989B9F"/>
<path d="M222.445 203.74C222.865 203.74 223.225 203.837 223.525 204.03C223.832 204.223 224.082 204.49 224.275 204.83C224.475 205.163 224.622 205.557 224.715 206.01C224.808 206.463 224.855 206.947 224.855 207.46C224.855 207.98 224.808 208.467 224.715 208.92C224.622 209.367 224.475 209.76 224.275 210.1C224.082 210.433 223.832 210.697 223.525 210.89C223.225 211.083 222.865 211.18 222.445 211.18C222.025 211.18 221.662 211.083 221.355 210.89C221.048 210.697 220.795 210.433 220.595 210.1C220.402 209.76 220.258 209.367 220.165 208.92C220.072 208.467 220.025 207.98 220.025 207.46C220.025 206.947 220.072 206.463 220.165 206.01C220.258 205.557 220.402 205.163 220.595 204.83C220.795 204.49 221.048 204.223 221.355 204.03C221.662 203.837 222.025 203.74 222.445 203.74ZM222.445 204.55C222.152 204.55 221.912 204.647 221.725 204.84C221.538 205.027 221.392 205.267 221.285 205.56C221.185 205.847 221.115 206.16 221.075 206.5C221.035 206.84 221.015 207.16 221.015 207.46C221.015 207.76 221.035 208.08 221.075 208.42C221.115 208.76 221.185 209.073 221.285 209.36C221.392 209.647 221.538 209.887 221.725 210.08C221.912 210.267 222.152 210.36 222.445 210.36C222.732 210.36 222.965 210.267 223.145 210.08C223.332 209.887 223.478 209.647 223.585 209.36C223.692 209.073 223.765 208.76 223.805 208.42C223.845 208.08 223.865 207.76 223.865 207.46C223.865 207.16 223.845 206.84 223.805 206.5C223.765 206.16 223.692 205.847 223.585 205.56C223.478 205.267 223.332 205.027 223.145 204.84C222.965 204.647 222.732 204.55 222.445 204.55ZM227.722 206.77L227.732 206.79C227.832 206.73 227.966 206.683 228.132 206.65C228.299 206.617 228.459 206.6 228.612 206.6C228.919 206.6 229.206 206.657 229.472 206.77C229.746 206.877 229.982 207.03 230.182 207.23C230.382 207.423 230.539 207.657 230.652 207.93C230.766 208.203 230.822 208.5 230.822 208.82C230.822 209.173 230.759 209.497 230.632 209.79C230.512 210.077 230.342 210.323 230.122 210.53C229.902 210.737 229.642 210.897 229.342 211.01C229.049 211.123 228.729 211.18 228.382 211.18C228.029 211.18 227.702 211.12 227.402 211C227.102 210.887 226.842 210.727 226.622 210.52C226.409 210.313 226.239 210.067 226.112 209.78C225.992 209.493 225.932 209.183 225.932 208.85C225.932 208.463 225.996 208.113 226.122 207.8C226.249 207.487 226.416 207.167 226.622 206.84L228.472 203.92H229.622L227.722 206.77ZM226.912 208.86C226.912 209.067 226.946 209.263 227.012 209.45C227.086 209.63 227.186 209.787 227.312 209.92C227.446 210.053 227.602 210.16 227.782 210.24C227.962 210.32 228.162 210.36 228.382 210.36C228.602 210.36 228.799 210.323 228.972 210.25C229.152 210.177 229.306 210.073 229.432 209.94C229.566 209.8 229.666 209.64 229.732 209.46C229.806 209.273 229.842 209.07 229.842 208.85C229.842 208.637 229.806 208.44 229.732 208.26C229.666 208.08 229.569 207.923 229.442 207.79C229.322 207.657 229.172 207.553 228.992 207.48C228.812 207.407 228.612 207.37 228.392 207.37C228.172 207.37 227.969 207.407 227.782 207.48C227.602 207.553 227.446 207.657 227.312 207.79C227.186 207.923 227.086 208.08 227.012 208.26C226.946 208.44 226.912 208.64 226.912 208.86Z" fill="#74787C"/>
<path d="M223.718 219.06C223.564 218.847 223.368 218.677 223.128 218.55C222.888 218.417 222.598 218.35 222.258 218.35C222.084 218.35 221.908 218.377 221.728 218.43C221.548 218.483 221.384 218.567 221.238 218.68C221.091 218.787 220.971 218.923 220.878 219.09C220.791 219.257 220.748 219.453 220.748 219.68C220.748 219.907 220.791 220.093 220.878 220.24C220.964 220.387 221.078 220.513 221.218 220.62C221.364 220.72 221.528 220.803 221.708 220.87C221.894 220.937 222.088 221.003 222.288 221.07C222.534 221.15 222.781 221.237 223.028 221.33C223.281 221.423 223.508 221.547 223.708 221.7C223.908 221.847 224.071 222.037 224.198 222.27C224.324 222.497 224.388 222.787 224.388 223.14C224.388 223.493 224.318 223.8 224.178 224.06C224.044 224.313 223.868 224.523 223.648 224.69C223.434 224.857 223.188 224.98 222.908 225.06C222.634 225.14 222.358 225.18 222.078 225.18C221.864 225.18 221.651 225.157 221.438 225.11C221.224 225.07 221.021 225.007 220.828 224.92C220.634 224.833 220.454 224.723 220.288 224.59C220.121 224.457 219.974 224.303 219.848 224.13L220.468 223.67C220.621 223.923 220.834 224.137 221.108 224.31C221.388 224.477 221.714 224.56 222.088 224.56C222.268 224.56 222.451 224.533 222.638 224.48C222.824 224.42 222.991 224.333 223.138 224.22C223.291 224.1 223.414 223.957 223.508 223.79C223.608 223.617 223.658 223.417 223.658 223.19C223.658 222.943 223.608 222.74 223.508 222.58C223.414 222.413 223.288 222.277 223.128 222.17C222.968 222.057 222.784 221.963 222.578 221.89C222.371 221.817 222.154 221.743 221.928 221.67C221.694 221.597 221.464 221.513 221.238 221.42C221.011 221.327 220.808 221.207 220.628 221.06C220.448 220.907 220.301 220.72 220.188 220.5C220.081 220.28 220.028 220.01 220.028 219.69C220.028 219.35 220.094 219.057 220.228 218.81C220.368 218.563 220.548 218.36 220.768 218.2C220.988 218.04 221.231 217.923 221.498 217.85C221.764 217.777 222.028 217.74 222.288 217.74C222.768 217.74 223.178 217.827 223.518 218C223.858 218.167 224.114 218.367 224.288 218.6L223.718 219.06ZM229.292 225C229.279 224.873 229.269 224.733 229.262 224.58C229.256 224.427 229.252 224.3 229.252 224.2H229.232C229.099 224.473 228.882 224.697 228.582 224.87C228.282 225.037 227.966 225.12 227.632 225.12C227.039 225.12 226.592 224.943 226.292 224.59C225.999 224.237 225.852 223.77 225.852 223.19V220.32H226.532V222.91C226.532 223.157 226.552 223.38 226.592 223.58C226.632 223.78 226.699 223.953 226.792 224.1C226.892 224.24 227.022 224.35 227.182 224.43C227.349 224.51 227.556 224.55 227.802 224.55C227.982 224.55 228.156 224.513 228.322 224.44C228.496 224.367 228.649 224.257 228.782 224.11C228.916 223.957 229.022 223.767 229.102 223.54C229.182 223.307 229.222 223.033 229.222 222.72V220.32H229.902V223.97C229.902 224.097 229.906 224.26 229.912 224.46C229.919 224.66 229.929 224.84 229.942 225H229.292ZM233.813 220.89H232.493V223.62C232.493 223.793 232.51 223.937 232.543 224.05C232.576 224.163 232.623 224.253 232.683 224.32C232.75 224.38 232.826 224.423 232.913 224.45C233 224.47 233.093 224.48 233.193 224.48C233.286 224.48 233.383 224.467 233.483 224.44C233.59 224.413 233.69 224.377 233.783 224.33L233.813 224.92C233.693 224.967 233.566 225 233.433 225.02C233.306 225.047 233.166 225.06 233.013 225.06C232.886 225.06 232.753 225.043 232.613 225.01C232.473 224.977 232.343 224.913 232.223 224.82C232.103 224.727 232.003 224.6 231.923 224.44C231.85 224.28 231.813 224.07 231.813 223.81V220.89H230.843V220.32H231.813V219H232.493V220.32H233.813V220.89Z" fill="#989B9F"/>
<path d="M260.174 203.74C260.594 203.74 260.954 203.837 261.254 204.03C261.561 204.223 261.811 204.49 262.004 204.83C262.204 205.163 262.351 205.557 262.444 206.01C262.537 206.463 262.584 206.947 262.584 207.46C262.584 207.98 262.537 208.467 262.444 208.92C262.351 209.367 262.204 209.76 262.004 210.1C261.811 210.433 261.561 210.697 261.254 210.89C260.954 211.083 260.594 211.18 260.174 211.18C259.754 211.18 259.391 211.083 259.084 210.89C258.777 210.697 258.524 210.433 258.324 210.1C258.131 209.76 257.987 209.367 257.894 208.92C257.801 208.467 257.754 207.98 257.754 207.46C257.754 206.947 257.801 206.463 257.894 206.01C257.987 205.557 258.131 205.163 258.324 204.83C258.524 204.49 258.777 204.223 259.084 204.03C259.391 203.837 259.754 203.74 260.174 203.74ZM260.174 204.55C259.881 204.55 259.641 204.647 259.454 204.84C259.267 205.027 259.121 205.267 259.014 205.56C258.914 205.847 258.844 206.16 258.804 206.5C258.764 206.84 258.744 207.16 258.744 207.46C258.744 207.76 258.764 208.08 258.804 208.42C258.844 208.76 258.914 209.073 259.014 209.36C259.121 209.647 259.267 209.887 259.454 210.08C259.641 210.267 259.881 210.36 260.174 210.36C260.461 210.36 260.694 210.267 260.874 210.08C261.061 209.887 261.207 209.647 261.314 209.36C261.421 209.073 261.494 208.76 261.534 208.42C261.574 208.08 261.594 207.76 261.594 207.46C261.594 207.16 261.574 206.84 261.534 206.5C261.494 206.16 261.421 205.847 261.314 205.56C261.207 205.267 261.061 205.027 260.874 204.84C260.694 204.647 260.461 204.55 260.174 204.55ZM268.291 204.8L265.451 211H264.341L267.291 204.78H263.781V203.92H268.291V204.8Z" fill="#74787C"/>
<path d="M260.129 219.06C259.975 218.847 259.779 218.677 259.539 218.55C259.299 218.417 259.009 218.35 258.669 218.35C258.495 218.35 258.319 218.377 258.139 218.43C257.959 218.483 257.795 218.567 257.649 218.68C257.502 218.787 257.382 218.923 257.289 219.09C257.202 219.257 257.159 219.453 257.159 219.68C257.159 219.907 257.202 220.093 257.289 220.24C257.375 220.387 257.489 220.513 257.629 220.62C257.775 220.72 257.939 220.803 258.119 220.87C258.305 220.937 258.499 221.003 258.699 221.07C258.945 221.15 259.192 221.237 259.439 221.33C259.692 221.423 259.919 221.547 260.119 221.7C260.319 221.847 260.482 222.037 260.609 222.27C260.735 222.497 260.799 222.787 260.799 223.14C260.799 223.493 260.729 223.8 260.589 224.06C260.455 224.313 260.279 224.523 260.059 224.69C259.845 224.857 259.599 224.98 259.319 225.06C259.045 225.14 258.769 225.18 258.489 225.18C258.275 225.18 258.062 225.157 257.849 225.11C257.635 225.07 257.432 225.007 257.239 224.92C257.045 224.833 256.865 224.723 256.699 224.59C256.532 224.457 256.385 224.303 256.259 224.13L256.879 223.67C257.032 223.923 257.245 224.137 257.519 224.31C257.799 224.477 258.125 224.56 258.499 224.56C258.679 224.56 258.862 224.533 259.049 224.48C259.235 224.42 259.402 224.333 259.549 224.22C259.702 224.1 259.825 223.957 259.919 223.79C260.019 223.617 260.069 223.417 260.069 223.19C260.069 222.943 260.019 222.74 259.919 222.58C259.825 222.413 259.699 222.277 259.539 222.17C259.379 222.057 259.195 221.963 258.989 221.89C258.782 221.817 258.565 221.743 258.339 221.67C258.105 221.597 257.875 221.513 257.649 221.42C257.422 221.327 257.219 221.207 257.039 221.06C256.859 220.907 256.712 220.72 256.599 220.5C256.492 220.28 256.439 220.01 256.439 219.69C256.439 219.35 256.505 219.057 256.639 218.81C256.779 218.563 256.959 218.36 257.179 218.2C257.399 218.04 257.642 217.923 257.909 217.85C258.175 217.777 258.439 217.74 258.699 217.74C259.179 217.74 259.589 217.827 259.929 218C260.269 218.167 260.525 218.367 260.699 218.6L260.129 219.06ZM265.703 225C265.69 224.873 265.68 224.733 265.673 224.58C265.666 224.427 265.663 224.3 265.663 224.2H265.643C265.51 224.473 265.293 224.697 264.993 224.87C264.693 225.037 264.376 225.12 264.043 225.12C263.45 225.12 263.003 224.943 262.703 224.59C262.41 224.237 262.263 223.77 262.263 223.19V220.32H262.943V222.91C262.943 223.157 262.963 223.38 263.003 223.58C263.043 223.78 263.11 223.953 263.203 224.1C263.303 224.24 263.433 224.35 263.593 224.43C263.76 224.51 263.966 224.55 264.213 224.55C264.393 224.55 264.566 224.513 264.733 224.44C264.906 224.367 265.06 224.257 265.193 224.11C265.326 223.957 265.433 223.767 265.513 223.54C265.593 223.307 265.633 223.033 265.633 222.72V220.32H266.313V223.97C266.313 224.097 266.316 224.26 266.323 224.46C266.33 224.66 266.34 224.84 266.353 225H265.703ZM268.724 220.32C268.737 220.447 268.747 220.587 268.754 220.74C268.76 220.893 268.764 221.02 268.764 221.12H268.784C268.917 220.847 269.134 220.627 269.434 220.46C269.734 220.287 270.05 220.2 270.384 220.2C270.977 220.2 271.42 220.377 271.714 220.73C272.014 221.083 272.164 221.55 272.164 222.13V225H271.484V222.41C271.484 222.163 271.464 221.94 271.424 221.74C271.384 221.54 271.314 221.37 271.214 221.23C271.12 221.083 270.99 220.97 270.824 220.89C270.664 220.81 270.46 220.77 270.214 220.77C270.034 220.77 269.857 220.807 269.684 220.88C269.517 220.953 269.367 221.067 269.234 221.22C269.1 221.367 268.994 221.557 268.914 221.79C268.834 222.017 268.794 222.287 268.794 222.6V225H268.114V221.35C268.114 221.223 268.11 221.06 268.104 220.86C268.097 220.66 268.087 220.48 268.074 220.32H268.724Z" fill="#989B9F"/>
<rect x="29" y="26" width="255" height="164" fill="white" fill-opacity="0.01"/>
<mask id="mask0" mask-type="alpha" maskUnits="userSpaceOnUse" x="29" y="26" width="255" height="164">
<path d="M29 26H284V190H29V26Z" fill="white"/>
</mask>
<g mask="url(#mask0)">
<path d="M99.3616 90.2958L98.4298 89.9329V89.9329L99.3616 90.2958ZM103.636 82.9753L102.917 82.2806L103.636 82.9753ZM96.6482 97.2641L97.5801 97.627L96.6482 97.2641ZM88.8236 110.454L88.1113 109.752L88.8236 110.454ZM79.1073 114.653L79.008 115.648L79.1073 114.653ZM62.5469 127.59L63.4232 128.072L62.5469 127.59ZM59.1366 133.791L60.0128 134.273L59.1366 133.791ZM46.8275 145.717L47.0986 146.68L46.8275 145.717ZM33.4667 140.761L34.2027 140.084L33.4667 140.761ZM28.2638 135.104L27.5869 134.368L26.8508 135.044L27.5278 135.781L28.2638 135.104ZM29.7359 133.75L30.472 133.073L29.7951 132.337L29.059 133.014L29.7359 133.75ZM34.9388 139.407L35.6748 138.73L34.9388 139.407ZM46.2854 143.792L46.0143 142.829L46.2854 143.792ZM57.3842 132.827L56.5079 132.345L57.3842 132.827ZM60.7945 126.626L61.6707 127.108L60.7945 126.626ZM79.3058 112.663L79.2065 113.658L79.3058 112.663ZM87.399 109.05L86.6866 108.348L87.399 109.05ZM94.7845 96.5384L95.7164 96.9013L94.7845 96.5384ZM97.498 89.5701L96.5661 89.2072L97.498 89.5701ZM102.197 81.586L102.917 82.2806L102.197 81.586ZM108.014 78.8202L107.989 79.8199L108.014 78.8202ZM113.781 81.8609L113.043 82.5355L113.781 81.8609ZM118.41 90.0613L117.473 90.4123L118.41 90.0613ZM121.437 98.1363L120.5 98.4873V98.4873L121.437 98.1363ZM128.746 111.169L129.486 110.497L128.746 111.169ZM148.625 114.97L148.384 114L148.625 114.97ZM155.858 113.167L155.616 112.197L155.858 113.167ZM165.797 115.685L166.414 114.898L165.797 115.685ZM174.18 127.157L175.083 126.726L174.18 127.157ZM178.304 135.794L178.735 136.696L179.637 136.265L179.206 135.363L178.304 135.794ZM176.499 136.655L175.597 137.086L176.028 137.989L176.93 137.558L176.499 136.655ZM172.375 128.019L173.278 127.588L172.375 128.019ZM164.564 117.26L165.181 116.472L164.564 117.26ZM156.342 115.108L156.584 116.078L156.342 115.108ZM149.109 116.911L148.867 115.941L149.109 116.911ZM127.264 112.513L126.524 113.185L127.264 112.513ZM119.564 98.8383L118.628 99.1893V99.1893L119.564 98.8383ZM116.537 90.7633L117.473 90.4123L116.537 90.7633ZM112.305 83.2102L111.566 83.8848L112.305 83.2102ZM107.964 80.8196L107.939 81.8193L107.964 80.8196ZM217.18 131.922L216.305 131.437L217.18 131.922ZM234.881 117.318V118.318H235.881V117.318H234.881ZM213.943 137.77L214.818 138.255L213.943 137.77ZM195.168 152.856H194.168V153.856H195.168V152.856ZM195.168 150.856V149.856H194.168V150.856H195.168ZM212.193 136.802L211.318 136.318L212.193 136.802ZM215.431 130.953L216.305 131.437L215.431 130.953ZM234.881 115.318H235.881V114.318H234.881V115.318ZM272.432 125.632L271.456 125.415V125.415L272.432 125.632ZM288.119 55.059L289.119 55.0528L287.143 54.8421L288.119 55.059ZM271.824 128.063L272.787 128.333L271.824 128.063ZM268.631 135.654L269.474 136.193L269.474 136.193L268.631 135.654ZM264.378 139.654L263.988 138.733L264.378 139.654ZM259.436 139.31L258.938 140.177L259.436 139.31ZM255.225 134.525L256.102 134.045L255.225 134.525ZM254.05 132.375L253.57 131.498L252.693 131.978L253.172 132.855L254.05 132.375ZM255.805 131.416L256.682 130.937L256.203 130.059L255.325 130.539L255.805 131.416ZM256.98 133.566L257.857 133.086H257.857L256.98 133.566ZM260.433 137.576L259.935 138.443L260.433 137.576ZM263.598 137.812L263.208 136.891L263.598 137.812ZM266.946 134.578L267.789 135.116L267.789 135.116L266.946 134.578ZM269.898 127.524L270.861 127.794L269.898 127.524ZM270.48 125.198L271.456 125.415V125.415L270.48 125.198ZM288.087 45.9836L288.193 44.9892L287.305 44.8945L287.111 45.7666L288.087 45.9836ZM290.064 46.1943L291.064 46.1881L291.058 45.2947L290.17 45.2L290.064 46.1943ZM291 196.033L292 196.027L291 196.033ZM291.006 197.04V198.04H292.013L292.006 197.033L291.006 197.04ZM24 197.04H23V198.04H24V197.04ZM24 135.721V134.721H23V135.721H24ZM26 135.721H27V134.721H26V135.721ZM26 195.04H25V196.04H26V195.04ZM288.994 195.04V196.04H290L289.994 195.033L288.994 195.04ZM100.293 90.6586C101.568 87.3862 102.976 85.0983 104.355 83.6699L102.917 82.2806C101.29 83.9653 99.7606 86.5152 98.4298 89.9329L100.293 90.6586ZM97.5801 97.627L100.293 90.6586L98.4298 89.9329L95.7164 96.9013L97.5801 97.627ZM89.536 111.156C92.6043 108.041 95.3211 103.428 97.5801 97.627L95.7164 96.9013C93.5136 102.558 90.9208 106.9 88.1113 109.752L89.536 111.156ZM79.008 115.648C82.8678 116.033 86.4558 114.282 89.536 111.156L88.1113 109.752C85.3014 112.604 82.2753 113.964 79.2065 113.658L79.008 115.648ZM63.4232 128.072C68.4755 118.885 74.0321 115.152 79.008 115.648L79.2065 113.658C72.9668 113.036 66.8166 117.751 61.6707 127.108L63.4232 128.072ZM60.0128 134.273L63.4232 128.072L61.6707 127.108L58.2604 133.309L60.0128 134.273ZM47.0986 146.68C51.9978 145.3 56.375 140.888 60.0128 134.273L58.2604 133.309C54.7248 139.738 50.6947 143.589 46.5564 144.755L47.0986 146.68ZM32.7306 141.438C37.0267 146.109 42.0072 148.113 47.0986 146.68L46.5564 144.755C42.4189 145.92 38.1722 144.4 34.2027 140.084L32.7306 141.438ZM27.5278 135.781L32.7306 141.438L34.2027 140.084L28.9999 134.427L27.5278 135.781ZM29.059 133.014L27.5869 134.368L28.9407 135.84L30.4129 134.486L29.059 133.014ZM35.6748 138.73L30.472 133.073L28.9999 134.427L34.2027 140.084L35.6748 138.73ZM46.0143 142.829C42.8268 143.727 39.3141 142.687 35.6748 138.73L34.2027 140.084C38.1723 144.4 42.4191 145.92 46.5564 144.755L46.0143 142.829ZM56.5079 132.345C53.0751 138.587 49.3921 141.878 46.0143 142.829L46.5564 144.755C50.6947 143.589 54.7248 139.738 58.2604 133.309L56.5079 132.345ZM59.9182 126.144L56.5079 132.345L58.2604 133.309L61.6707 127.108L59.9182 126.144ZM79.405 111.668C71.8976 110.919 65.1544 116.623 59.9182 126.144L61.6707 127.108C66.8165 117.751 72.9667 113.036 79.2065 113.658L79.405 111.668ZM86.6866 108.348C84.1489 110.924 81.6848 111.895 79.405 111.668L79.2065 113.658C82.2752 113.964 85.3013 112.604 88.1113 109.752L86.6866 108.348ZM93.8527 96.1756C91.7061 101.688 89.2373 105.76 86.6866 108.348L88.1113 109.752C90.9208 106.9 93.5136 102.558 95.7164 96.9013L93.8527 96.1756ZM96.5661 89.2072L93.8527 96.1756L95.7164 96.9013L98.4298 89.9329L96.5661 89.2072ZM101.478 80.8914C99.6036 82.8323 97.9535 85.6442 96.5661 89.2072L98.4298 89.9329C99.7606 86.5152 101.29 83.9653 102.917 82.2806L101.478 80.8914ZM108.039 77.8205C105.593 77.759 103.362 78.9404 101.478 80.8914L102.917 82.2806C104.544 80.5955 106.268 79.7766 107.989 79.8199L108.039 77.8205ZM114.519 81.1862C112.671 79.1644 110.475 77.8818 108.039 77.8205L107.989 79.8199C109.71 79.8632 111.428 80.7688 113.043 82.5355L114.519 81.1862ZM119.346 89.7103C117.987 86.0835 116.364 83.2044 114.519 81.1862L113.043 82.5355C114.657 84.3018 116.168 86.9282 117.473 90.4123L119.346 89.7103ZM122.373 97.7853L119.346 89.7103L117.473 90.4123L120.5 98.4873L122.373 97.7853ZM129.486 110.497C126.93 107.681 124.485 103.42 122.373 97.7853L120.5 98.4873C122.665 104.262 125.221 108.773 128.005 111.841L129.486 110.497ZM136.876 114.534C134.556 114.534 132.042 113.314 129.486 110.497L128.005 111.841C130.789 114.91 133.801 116.534 136.876 116.534V114.534ZM144.098 114.534H136.876V116.534H144.098V114.534ZM148.384 114C146.952 114.357 145.523 114.534 144.098 114.534V116.534C145.691 116.534 147.282 116.336 148.867 115.941L148.384 114ZM155.616 112.197L148.384 114L148.867 115.941L156.1 114.137L155.616 112.197ZM166.414 114.898C163.119 112.318 159.419 111.249 155.616 112.197L156.1 114.137C159.183 113.368 162.264 114.188 165.181 116.472L166.414 114.898ZM175.083 126.726C172.581 121.486 169.662 117.441 166.414 114.898L165.181 116.472C168.097 118.756 170.85 122.503 173.278 127.588L175.083 126.726ZM179.206 135.363L175.083 126.726L173.278 127.588L177.402 136.225L179.206 135.363ZM176.93 137.558L178.735 136.696L177.873 134.891L176.068 135.753L176.93 137.558ZM171.473 128.45L175.597 137.086L177.402 136.225L173.278 127.588L171.473 128.45ZM163.948 118.047C166.533 120.071 169.119 123.52 171.473 128.45L173.278 127.588C170.85 122.503 168.097 118.756 165.181 116.472L163.948 118.047ZM156.584 116.078C158.949 115.488 161.41 116.06 163.948 118.047L165.181 116.472C162.264 114.188 159.183 113.369 156.1 114.137L156.584 116.078ZM149.351 117.881L156.584 116.078L156.1 114.137L148.867 115.941L149.351 117.881ZM144.098 118.534C145.858 118.534 147.612 118.315 149.351 117.881L148.867 115.941C147.282 116.336 145.691 116.534 144.098 116.534V118.534ZM136.876 118.534H144.098V116.534H136.876V118.534ZM126.524 113.185C129.535 116.504 133.044 118.534 136.876 118.534V116.534C133.801 116.534 130.789 114.91 128.005 111.841L126.524 113.185ZM118.628 99.1893C120.845 105.104 123.512 109.866 126.524 113.185L128.005 111.841C125.221 108.773 122.665 104.262 120.5 98.4873L118.628 99.1893ZM115.601 91.1142L118.628 99.1893L120.5 98.4873L117.473 90.4123L115.601 91.1142ZM111.566 83.8848C112.95 85.3992 114.348 87.7729 115.601 91.1142L117.473 90.4123C116.168 86.9282 114.657 84.3018 113.043 82.5355L111.566 83.8848ZM107.939 81.8193C108.947 81.8446 110.187 82.3753 111.566 83.8848L113.043 82.5355C111.428 80.7686 109.71 79.8632 107.989 79.8199L107.939 81.8193ZM104.355 83.6699C105.724 82.2528 106.941 81.7942 107.939 81.8193L107.989 79.8199C106.268 79.7766 104.544 80.5953 102.917 82.2806L104.355 83.6699ZM218.055 132.406C223.404 122.743 229.369 118.318 234.881 118.318V116.318C228.238 116.318 221.754 121.594 216.305 131.437L218.055 132.406ZM214.818 138.255L218.055 132.406L216.305 131.437L213.068 137.286L214.818 138.255ZM195.168 153.856C202.703 153.856 209.47 147.917 214.818 138.255L213.068 137.286C207.818 146.771 201.57 151.856 195.168 151.856V153.856ZM194.168 150.856V152.856H196.168V150.856H194.168ZM211.318 136.318C206.168 145.623 200.439 149.856 195.168 149.856V151.856C201.57 151.856 207.818 146.771 213.068 137.286L211.318 136.318ZM214.556 130.469L211.318 136.318L213.068 137.286L216.305 131.437L214.556 130.469ZM234.881 114.318C227.104 114.318 220.102 120.449 214.556 130.469L216.305 131.437C221.754 121.594 228.238 116.318 234.881 116.318V114.318ZM235.881 117.318V115.318H233.881V117.318H235.881ZM273.408 125.849L289.095 55.276L287.143 54.8421L271.456 125.415L273.408 125.849ZM272.787 128.333C273.012 127.53 273.219 126.701 273.408 125.849L271.456 125.415C271.274 126.234 271.075 127.028 270.861 127.794L272.787 128.333ZM269.474 136.193C270.781 134.147 271.9 131.499 272.787 128.333L270.861 127.794C270.011 130.83 268.96 133.282 267.789 135.116L269.474 136.193ZM264.768 140.574C266.61 139.794 268.179 138.219 269.474 136.193L267.789 135.116C266.617 136.95 265.323 138.167 263.988 138.733L264.768 140.574ZM258.938 140.177C260.799 141.246 262.833 141.394 264.768 140.574L263.988 138.733C262.653 139.298 261.275 139.213 259.935 138.443L258.938 140.177ZM254.348 135.005C255.632 137.355 257.16 139.156 258.938 140.177L259.935 138.443C258.594 137.673 257.29 136.218 256.102 134.045L254.348 135.005ZM253.172 132.855L254.348 135.005L256.102 134.045L254.927 131.896L253.172 132.855ZM255.325 130.539L253.57 131.498L254.53 133.253L256.285 132.294L255.325 130.539ZM257.857 133.086L256.682 130.937L254.927 131.896L256.102 134.045L257.857 133.086ZM260.931 136.709C260.028 136.19 258.948 135.081 257.857 133.086L256.102 134.045C257.29 136.218 258.594 137.673 259.935 138.443L260.931 136.709ZM263.208 136.891C262.472 137.203 261.751 137.18 260.931 136.709L259.935 138.443C261.276 139.213 262.653 139.298 263.988 138.733L263.208 136.891ZM266.103 134.039C265.054 135.681 264.037 136.54 263.208 136.891L263.988 138.733C265.323 138.167 266.617 136.951 267.789 135.116L266.103 134.039ZM268.935 127.255C268.121 130.161 267.14 132.417 266.103 134.039L267.789 135.116C268.96 133.282 270.011 130.83 270.861 127.794L268.935 127.255ZM269.504 124.981C269.329 125.766 269.139 126.525 268.935 127.255L270.861 127.794C271.075 127.028 271.274 126.234 271.456 125.415L269.504 124.981ZM287.111 45.7666L269.504 124.981L271.456 125.415L289.064 46.2006L287.111 45.7666ZM290.17 45.2L288.193 44.9892L287.981 46.9779L289.958 47.1887L290.17 45.2ZM292 196.027L291.064 46.1881L289.064 46.2006L290 196.04L292 196.027ZM292.006 197.033L292 196.027L290 196.04L290.006 197.046L292.006 197.033ZM290 198.04H291.006V196.04H290V198.04ZM25 198.04H290V196.04H25V198.04ZM24 198.04H25V196.04H24V198.04ZM23 196.04V197.04H25V196.04H23ZM23 135.721V196.04H25V135.721H23ZM26 134.721H24V136.721H26V134.721ZM27 195.04V135.721H25V195.04H27ZM288.994 194.04H26V196.04H288.994V194.04ZM287.119 55.0653L287.994 195.046L289.994 195.033L289.119 55.0528L287.119 55.0653Z" fill="#FF5066"/>
<path d="M176.11 138.061L175.642 137.177L174.758 137.645L175.226 138.528L176.11 138.061ZM195.649 153.98V154.98H196.649V153.98H195.649ZM178.761 136.657L179.645 136.19L179.178 135.306L178.294 135.774L178.761 136.657ZM195.649 150.98H196.649V149.98H195.649V150.98ZM236.361 118.012H235.361V119.012H236.361V118.012ZM253.188 132.149L252.31 132.628L253.188 132.149ZM236.361 115.012V114.012H235.361V115.012H236.361ZM255.822 130.713L254.944 131.191L255.822 130.713ZM256.963 132.806L257.442 133.683L258.32 133.205L257.841 132.327L256.963 132.806ZM254.329 134.242L253.452 134.721L253.93 135.599L254.808 135.12L254.329 134.242ZM175.226 138.528C180.533 148.557 187.598 154.98 195.649 154.98V152.98C188.75 152.98 182.202 147.434 176.994 137.593L175.226 138.528ZM178.294 135.774L175.642 137.177L176.578 138.945L179.229 137.541L178.294 135.774ZM195.649 149.98C190.473 149.98 184.702 145.744 179.645 136.19L177.878 137.125C183.036 146.872 189.325 151.98 195.649 151.98V149.98ZM196.649 153.98V150.98H194.649V153.98H196.649ZM236.361 119.012C241.442 119.012 247.139 123.147 252.31 132.628L254.066 131.67C248.797 122.011 242.582 117.012 236.361 117.012V119.012ZM235.361 115.012V118.012H237.361V115.012H235.361ZM256.7 130.234C251.288 120.313 244.297 114.012 236.361 114.012V116.012C243.154 116.012 249.627 121.444 254.944 131.191L256.7 130.234ZM257.841 132.327L256.7 130.234L254.944 131.191L256.085 133.284L257.841 132.327ZM254.808 135.12L257.442 133.683L256.484 131.928L253.851 133.364L254.808 135.12ZM252.31 132.628L253.452 134.721L255.207 133.763L254.066 131.67L252.31 132.628Z" fill="#FFDDE5"/>
<path d="M76.2737 114.5C76.2737 116.812 74.2988 118.778 71.748 118.778C69.1971 118.778 67.2222 116.812 67.2222 114.5C67.2222 112.188 69.1971 110.222 71.748 110.222C74.2988 110.222 76.2737 112.188 76.2737 114.5Z" fill="#FF507C" stroke="white" stroke-width="2.44444"/>
<g filter="url(#filter0_d)">
<path fill-rule="evenodd" clip-rule="evenodd" d="M55.218 81.092C55 81.5198 55 82.0799 55 83.2V100.8C55 101.92 55 102.48 55.218 102.908C55.4097 103.284 55.7157 103.59 56.092 103.782C56.5198 104 57.0799 104 58.2 104H69.8803L72.0198 106.744L74.1593 104H85.2426C86.3627 104 86.9228 104 87.3506 103.782C87.7269 103.59 88.0329 103.284 88.2246 102.908C88.4426 102.48 88.4426 101.92 88.4426 100.8V83.2C88.4426 82.0799 88.4426 81.5198 88.2246 81.092C88.0329 80.7157 87.7269 80.4097 87.3506 80.218C86.9228 80 86.3627 80 85.2426 80H58.2C57.0799 80 56.5198 80 56.092 80.218C55.7157 80.4097 55.4097 80.7157 55.218 81.092Z" fill="white"/>
</g>
<path d="M69.451 93.7112H70.777V94.7902H69.451V96.8572H68.229V94.7902H63.991V93.6462L67.904 87.6532H69.451V93.7112ZM68.229 89.0962H68.203L65.291 93.7112H68.229V89.0962ZM75.1934 87.4192C75.7394 87.4192 76.2074 87.5448 76.5974 87.7962C76.9961 88.0475 77.3211 88.3942 77.5724 88.8362C77.8324 89.2695 78.0231 89.7808 78.1444 90.3702C78.2657 90.9595 78.3264 91.5878 78.3264 92.2552C78.3264 92.9312 78.2657 93.5638 78.1444 94.1532C78.0231 94.7338 77.8324 95.2452 77.5724 95.6872C77.3211 96.1205 76.9961 96.4628 76.5974 96.7142C76.2074 96.9655 75.7394 97.0912 75.1934 97.0912C74.6474 97.0912 74.1751 96.9655 73.7764 96.7142C73.3777 96.4628 73.0484 96.1205 72.7884 95.6872C72.5371 95.2452 72.3507 94.7338 72.2294 94.1532C72.1081 93.5638 72.0474 92.9312 72.0474 92.2552C72.0474 91.5878 72.1081 90.9595 72.2294 90.3702C72.3507 89.7808 72.5371 89.2695 72.7884 88.8362C73.0484 88.3942 73.3777 88.0475 73.7764 87.7962C74.1751 87.5448 74.6474 87.4192 75.1934 87.4192ZM75.1934 88.4722C74.8121 88.4722 74.5001 88.5978 74.2574 88.8492C74.0147 89.0918 73.8241 89.4038 73.6854 89.7852C73.5554 90.1578 73.4644 90.5652 73.4124 91.0072C73.3604 91.4492 73.3344 91.8652 73.3344 92.2552C73.3344 92.6452 73.3604 93.0612 73.4124 93.5032C73.4644 93.9452 73.5554 94.3525 73.6854 94.7252C73.8241 95.0978 74.0147 95.4098 74.2574 95.6612C74.5001 95.9038 74.8121 96.0252 75.1934 96.0252C75.5661 96.0252 75.8694 95.9038 76.1034 95.6612C76.3461 95.4098 76.5367 95.0978 76.6754 94.7252C76.8141 94.3525 76.9094 93.9452 76.9614 93.5032C77.0134 93.0612 77.0394 92.6452 77.0394 92.2552C77.0394 91.8652 77.0134 91.4492 76.9614 91.0072C76.9094 90.5652 76.8141 90.1578 76.6754 89.7852C76.5367 89.4038 76.3461 89.0918 76.1034 88.8492C75.8694 88.5978 75.5661 88.4722 75.1934 88.4722Z" fill="black"/>
<path d="M266.274 136.5C266.274 138.812 264.299 140.778 261.748 140.778C259.197 140.778 257.222 138.812 257.222 136.5C257.222 134.188 259.197 132.222 261.748 132.222C264.299 132.222 266.274 134.188 266.274 136.5Z" fill="#FF507C" stroke="white" stroke-width="2.44444"/>
<path d="M157.274 116.5C157.274 118.812 155.299 120.778 152.748 120.778C150.197 120.778 148.222 118.812 148.222 116.5C148.222 114.188 150.197 112.222 152.748 112.222C155.299 112.222 157.274 114.188 157.274 116.5Z" fill="#FF507C" stroke="white" stroke-width="2.44444"/>
<path d="M114.274 80.5C114.274 82.8123 112.299 84.7778 109.748 84.7778C107.197 84.7778 105.222 82.8123 105.222 80.5C105.222 78.1877 107.197 76.2222 109.748 76.2222C112.299 76.2222 114.274 78.1877 114.274 80.5Z" fill="#FF507C" stroke="white" stroke-width="2.44444"/>
<path d="M38.3638 137.5C38.3638 139.812 36.3889 141.778 33.838 141.778C31.2872 141.778 29.3123 139.812 29.3123 137.5C29.3123 135.188 31.2872 133.222 33.838 133.222C36.3889 133.222 38.3638 135.188 38.3638 137.5Z" fill="#FF507C" stroke="white" stroke-width="2.44444"/>
</g>
<defs>
<filter id="filter0_d" x="35" y="68" width="73.4426" height="66.7436" filterUnits="userSpaceOnUse" color-interpolation-filters="sRGB">
<feFlood flood-opacity="0" result="BackgroundImageFix"/>
<feColorMatrix in="SourceAlpha" type="matrix" values="0 0 0 0 0 0 0 0 0 0 0 0 0 0 0 0 0 0 127 0" result="hardAlpha"/>
<feOffset dy="8"/>
<feGaussianBlur stdDeviation="10"/>
<feColorMatrix type="matrix" values="0 0 0 0 0 0 0 0 0 0 0 0 0 0 0 0 0 0 0.1 0"/>
<feBlend mode="normal" in2="BackgroundImageFix" result="effect1_dropShadow"/>
<feBlend mode="normal" in="SourceGraphic" in2="effect1_dropShadow" result="shape"/>
</filter>
</defs>
</svg>
