<svg width="746" height="229" viewBox="0 0 746 229" fill="none" xmlns="http://www.w3.org/2000/svg">
<g clip-path="url(#clip0)">
<g clip-path="url(#clip1)">
<path d="M4.812 43.524C5.036 43.58 5.244 43.676 5.436 43.812C5.636 43.94 5.808 44.096 5.952 44.28C6.096 44.464 6.208 44.676 6.288 44.916C6.376 45.156 6.42 45.412 6.42 45.684C6.42 46.084 6.344 46.44 6.192 46.752C6.04 47.064 5.832 47.328 5.568 47.544C5.312 47.76 5.012 47.924 4.668 48.036C4.324 48.156 3.96 48.216 3.576 48.216C3.192 48.216 2.824 48.156 2.472 48.036C2.128 47.924 1.824 47.76 1.56 47.544C1.304 47.328 1.1 47.064 0.948 46.752C0.796 46.44 0.72 46.084 0.72 45.684C0.72 45.404 0.76 45.144 0.84 44.904C0.928 44.664 1.044 44.452 1.188 44.268C1.34 44.084 1.512 43.932 1.704 43.812C1.904 43.684 2.112 43.588 2.328 43.524V43.5C1.944 43.364 1.628 43.132 1.38 42.804C1.14 42.476 1.02 42.076 1.02 41.604C1.02 41.252 1.088 40.936 1.224 40.656C1.36 40.368 1.544 40.124 1.776 39.924C2.008 39.716 2.276 39.56 2.58 39.456C2.892 39.344 3.224 39.288 3.576 39.288C3.92 39.288 4.248 39.344 4.56 39.456C4.872 39.56 5.14 39.712 5.364 39.912C5.596 40.104 5.78 40.344 5.916 40.632C6.052 40.912 6.12 41.228 6.12 41.58C6.12 42.044 5.996 42.448 5.748 42.792C5.508 43.136 5.196 43.372 4.812 43.5V43.524ZM2.184 41.64C2.184 41.832 2.216 42.012 2.28 42.18C2.352 42.348 2.448 42.496 2.568 42.624C2.696 42.744 2.844 42.84 3.012 42.912C3.188 42.984 3.376 43.02 3.576 43.02C3.768 43.02 3.948 42.984 4.116 42.912C4.284 42.84 4.432 42.744 4.56 42.624C4.688 42.496 4.788 42.348 4.86 42.18C4.932 42.012 4.968 41.832 4.968 41.64C4.968 41.44 4.928 41.256 4.848 41.088C4.776 40.912 4.676 40.764 4.548 40.644C4.428 40.516 4.284 40.42 4.116 40.356C3.948 40.284 3.768 40.248 3.576 40.248C3.376 40.248 3.188 40.284 3.012 40.356C2.844 40.42 2.696 40.516 2.568 40.644C2.448 40.764 2.352 40.912 2.28 41.088C2.216 41.256 2.184 41.44 2.184 41.64ZM1.908 45.624C1.908 45.864 1.948 46.084 2.028 46.284C2.108 46.484 2.22 46.656 2.364 46.8C2.516 46.936 2.692 47.044 2.892 47.124C3.1 47.204 3.328 47.244 3.576 47.244C3.816 47.244 4.036 47.204 4.236 47.124C4.444 47.044 4.62 46.936 4.764 46.8C4.908 46.656 5.02 46.484 5.1 46.284C5.188 46.084 5.232 45.864 5.232 45.624C5.232 45.392 5.188 45.18 5.1 44.988C5.02 44.788 4.908 44.616 4.764 44.472C4.62 44.328 4.444 44.216 4.236 44.136C4.036 44.056 3.816 44.016 3.576 44.016C3.336 44.016 3.112 44.056 2.904 44.136C2.704 44.216 2.528 44.328 2.376 44.472C2.232 44.616 2.116 44.788 2.028 44.988C1.948 45.18 1.908 45.392 1.908 45.624ZM10.7127 39.288C11.2167 39.288 11.6487 39.404 12.0087 39.636C12.3767 39.868 12.6767 40.188 12.9087 40.596C13.1487 40.996 13.3247 41.468 13.4367 42.012C13.5487 42.556 13.6047 43.136 13.6047 43.752C13.6047 44.376 13.5487 44.96 13.4367 45.504C13.3247 46.04 13.1487 46.512 12.9087 46.92C12.6767 47.32 12.3767 47.636 12.0087 47.868C11.6487 48.1 11.2167 48.216 10.7127 48.216C10.2087 48.216 9.77272 48.1 9.40472 47.868C9.03672 47.636 8.73272 47.32 8.49272 46.92C8.26072 46.512 8.08872 46.04 7.97672 45.504C7.86472 44.96 7.80872 44.376 7.80872 43.752C7.80872 43.136 7.86472 42.556 7.97672 42.012C8.08872 41.468 8.26072 40.996 8.49272 40.596C8.73272 40.188 9.03672 39.868 9.40472 39.636C9.77272 39.404 10.2087 39.288 10.7127 39.288ZM10.7127 40.26C10.3607 40.26 10.0727 40.376 9.84872 40.608C9.62472 40.832 9.44872 41.12 9.32072 41.472C9.20072 41.816 9.11672 42.192 9.06872 42.6C9.02072 43.008 8.99672 43.392 8.99672 43.752C8.99672 44.112 9.02072 44.496 9.06872 44.904C9.11672 45.312 9.20072 45.688 9.32072 46.032C9.44872 46.376 9.62472 46.664 9.84872 46.896C10.0727 47.12 10.3607 47.232 10.7127 47.232C11.0567 47.232 11.3367 47.12 11.5527 46.896C11.7767 46.664 11.9527 46.376 12.0807 46.032C12.2087 45.688 12.2967 45.312 12.3447 44.904C12.3927 44.496 12.4167 44.112 12.4167 43.752C12.4167 43.392 12.3927 43.008 12.3447 42.6C12.2967 42.192 12.2087 41.816 12.0807 41.472C11.9527 41.12 11.7767 40.832 11.5527 40.608C11.3367 40.376 11.0567 40.26 10.7127 40.26Z" fill="#74787C"/>
<path d="M4.548 12H3.384V4.92L1.776 6.264L1.092 5.46L3.504 3.504H4.548V12ZM10.7127 3.288C11.2167 3.288 11.6487 3.404 12.0087 3.636C12.3767 3.868 12.6767 4.188 12.9087 4.596C13.1487 4.996 13.3247 5.468 13.4367 6.012C13.5487 6.556 13.6047 7.136 13.6047 7.752C13.6047 8.376 13.5487 8.96 13.4367 9.504C13.3247 10.04 13.1487 10.512 12.9087 10.92C12.6767 11.32 12.3767 11.636 12.0087 11.868C11.6487 12.1 11.2167 12.216 10.7127 12.216C10.2087 12.216 9.77272 12.1 9.40472 11.868C9.03672 11.636 8.73272 11.32 8.49272 10.92C8.26072 10.512 8.08872 10.04 7.97672 9.504C7.86472 8.96 7.80872 8.376 7.80872 7.752C7.80872 7.136 7.86472 6.556 7.97672 6.012C8.08872 5.468 8.26072 4.996 8.49272 4.596C8.73272 4.188 9.03672 3.868 9.40472 3.636C9.77272 3.404 10.2087 3.288 10.7127 3.288ZM10.7127 4.26C10.3607 4.26 10.0727 4.376 9.84872 4.608C9.62472 4.832 9.44872 5.12 9.32072 5.472C9.20072 5.816 9.11672 6.192 9.06872 6.6C9.02072 7.008 8.99672 7.392 8.99672 7.752C8.99672 8.112 9.02072 8.496 9.06872 8.904C9.11672 9.312 9.20072 9.688 9.32072 10.032C9.44872 10.376 9.62472 10.664 9.84872 10.896C10.0727 11.12 10.3607 11.232 10.7127 11.232C11.0567 11.232 11.3367 11.12 11.5527 10.896C11.7767 10.664 11.9527 10.376 12.0807 10.032C12.2087 9.688 12.2967 9.312 12.3447 8.904C12.3927 8.496 12.4167 8.112 12.4167 7.752C12.4167 7.392 12.3927 7.008 12.3447 6.6C12.2967 6.192 12.2087 5.816 12.0807 5.472C11.9527 5.12 11.7767 4.832 11.5527 4.608C11.3367 4.376 11.0567 4.26 10.7127 4.26Z" fill="#74787C"/>
<path opacity="0.25" d="M43 8.5H746" stroke="black" stroke-linecap="round" stroke-linejoin="round" stroke-dasharray="0 10"/>
</g>
<path d="M5.412 117.096H6.636V118.092H5.412V120H4.284V118.092H0.372V117.036L3.984 111.504H5.412V117.096ZM4.284 112.836H4.26L1.572 117.096H4.284V112.836ZM10.7127 111.288C11.2167 111.288 11.6487 111.404 12.0087 111.636C12.3767 111.868 12.6767 112.188 12.9087 112.596C13.1487 112.996 13.3247 113.468 13.4367 114.012C13.5487 114.556 13.6047 115.136 13.6047 115.752C13.6047 116.376 13.5487 116.96 13.4367 117.504C13.3247 118.04 13.1487 118.512 12.9087 118.92C12.6767 119.32 12.3767 119.636 12.0087 119.868C11.6487 120.1 11.2167 120.216 10.7127 120.216C10.2087 120.216 9.77272 120.1 9.40472 119.868C9.03672 119.636 8.73272 119.32 8.49272 118.92C8.26072 118.512 8.08872 118.04 7.97672 117.504C7.86472 116.96 7.80872 116.376 7.80872 115.752C7.80872 115.136 7.86472 114.556 7.97672 114.012C8.08872 113.468 8.26072 112.996 8.49272 112.596C8.73272 112.188 9.03672 111.868 9.40472 111.636C9.77272 111.404 10.2087 111.288 10.7127 111.288ZM10.7127 112.26C10.3607 112.26 10.0727 112.376 9.84872 112.608C9.62472 112.832 9.44872 113.12 9.32072 113.472C9.20072 113.816 9.11672 114.192 9.06872 114.6C9.02072 115.008 8.99672 115.392 8.99672 115.752C8.99672 116.112 9.02072 116.496 9.06872 116.904C9.11672 117.312 9.20072 117.688 9.32072 118.032C9.44872 118.376 9.62472 118.664 9.84872 118.896C10.0727 119.12 10.3607 119.232 10.7127 119.232C11.0567 119.232 11.3367 119.12 11.5527 118.896C11.7767 118.664 11.9527 118.376 12.0807 118.032C12.2087 117.688 12.2967 117.312 12.3447 116.904C12.3927 116.496 12.4167 116.112 12.4167 115.752C12.4167 115.392 12.3927 115.008 12.3447 114.6C12.2967 114.192 12.2087 113.816 12.0807 113.472C11.9527 113.12 11.7767 112.832 11.5527 112.608C11.3367 112.376 11.0567 112.26 10.7127 112.26Z" fill="#74787C"/>
<path d="M2.772 78.924L2.784 78.948C2.904 78.876 3.064 78.82 3.264 78.78C3.464 78.74 3.656 78.72 3.84 78.72C4.208 78.72 4.552 78.788 4.872 78.924C5.2 79.052 5.484 79.236 5.724 79.476C5.964 79.708 6.152 79.988 6.288 80.316C6.424 80.644 6.492 81 6.492 81.384C6.492 81.808 6.416 82.196 6.264 82.548C6.12 82.892 5.916 83.188 5.652 83.436C5.388 83.684 5.076 83.876 4.716 84.012C4.364 84.148 3.98 84.216 3.564 84.216C3.14 84.216 2.748 84.144 2.388 84C2.028 83.864 1.716 83.672 1.452 83.424C1.196 83.176 0.992 82.88 0.84 82.536C0.696 82.192 0.624 81.82 0.624 81.42C0.624 80.956 0.7 80.536 0.852 80.16C1.004 79.784 1.204 79.4 1.452 79.008L3.672 75.504H5.052L2.772 78.924ZM1.8 81.432C1.8 81.68 1.84 81.916 1.92 82.14C2.008 82.356 2.128 82.544 2.28 82.704C2.44 82.864 2.628 82.992 2.844 83.088C3.06 83.184 3.3 83.232 3.564 83.232C3.828 83.232 4.064 83.188 4.272 83.1C4.488 83.012 4.672 82.888 4.824 82.728C4.984 82.56 5.104 82.368 5.184 82.152C5.272 81.928 5.316 81.684 5.316 81.42C5.316 81.164 5.272 80.928 5.184 80.712C5.104 80.496 4.988 80.308 4.836 80.148C4.692 79.988 4.512 79.864 4.296 79.776C4.08 79.688 3.84 79.644 3.576 79.644C3.312 79.644 3.068 79.688 2.844 79.776C2.628 79.864 2.44 79.988 2.28 80.148C2.128 80.308 2.008 80.496 1.92 80.712C1.84 80.928 1.8 81.168 1.8 81.432ZM10.7127 75.288C11.2167 75.288 11.6487 75.404 12.0087 75.636C12.3767 75.868 12.6767 76.188 12.9087 76.596C13.1487 76.996 13.3247 77.468 13.4367 78.012C13.5487 78.556 13.6047 79.136 13.6047 79.752C13.6047 80.376 13.5487 80.96 13.4367 81.504C13.3247 82.04 13.1487 82.512 12.9087 82.92C12.6767 83.32 12.3767 83.636 12.0087 83.868C11.6487 84.1 11.2167 84.216 10.7127 84.216C10.2087 84.216 9.77272 84.1 9.40472 83.868C9.03672 83.636 8.73272 83.32 8.49272 82.92C8.26072 82.512 8.08872 82.04 7.97672 81.504C7.86472 80.96 7.80872 80.376 7.80872 79.752C7.80872 79.136 7.86472 78.556 7.97672 78.012C8.08872 77.468 8.26072 76.996 8.49272 76.596C8.73272 76.188 9.03672 75.868 9.40472 75.636C9.77272 75.404 10.2087 75.288 10.7127 75.288ZM10.7127 76.26C10.3607 76.26 10.0727 76.376 9.84872 76.608C9.62472 76.832 9.44872 77.12 9.32072 77.472C9.20072 77.816 9.11672 78.192 9.06872 78.6C9.02072 79.008 8.99672 79.392 8.99672 79.752C8.99672 80.112 9.02072 80.496 9.06872 80.904C9.11672 81.312 9.20072 81.688 9.32072 82.032C9.44872 82.376 9.62472 82.664 9.84872 82.896C10.0727 83.12 10.3607 83.232 10.7127 83.232C11.0567 83.232 11.3367 83.12 11.5527 82.896C11.7767 82.664 11.9527 82.376 12.0807 82.032C12.2087 81.688 12.2967 81.312 12.3447 80.904C12.3927 80.496 12.4167 80.112 12.4167 79.752C12.4167 79.392 12.3927 79.008 12.3447 78.6C12.2967 78.192 12.2087 77.816 12.0807 77.472C11.9527 77.12 11.7767 76.832 11.5527 76.608C11.3367 76.376 11.0567 76.26 10.7127 76.26Z" fill="#74787C"/>
<path d="M3.576 183.288C4.08 183.288 4.512 183.404 4.872 183.636C5.24 183.868 5.54 184.188 5.772 184.596C6.012 184.996 6.188 185.468 6.3 186.012C6.412 186.556 6.468 187.136 6.468 187.752C6.468 188.376 6.412 188.96 6.3 189.504C6.188 190.04 6.012 190.512 5.772 190.92C5.54 191.32 5.24 191.636 4.872 191.868C4.512 192.1 4.08 192.216 3.576 192.216C3.072 192.216 2.636 192.1 2.268 191.868C1.9 191.636 1.596 191.32 1.356 190.92C1.124 190.512 0.952 190.04 0.84 189.504C0.728 188.96 0.672 188.376 0.672 187.752C0.672 187.136 0.728 186.556 0.84 186.012C0.952 185.468 1.124 184.996 1.356 184.596C1.596 184.188 1.9 183.868 2.268 183.636C2.636 183.404 3.072 183.288 3.576 183.288ZM3.576 184.26C3.224 184.26 2.936 184.376 2.712 184.608C2.488 184.832 2.312 185.12 2.184 185.472C2.064 185.816 1.98 186.192 1.932 186.6C1.884 187.008 1.86 187.392 1.86 187.752C1.86 188.112 1.884 188.496 1.932 188.904C1.98 189.312 2.064 189.688 2.184 190.032C2.312 190.376 2.488 190.664 2.712 190.896C2.936 191.12 3.224 191.232 3.576 191.232C3.92 191.232 4.2 191.12 4.416 190.896C4.64 190.664 4.816 190.376 4.944 190.032C5.072 189.688 5.16 189.312 5.208 188.904C5.256 188.496 5.28 188.112 5.28 187.752C5.28 187.392 5.256 187.008 5.208 186.6C5.16 186.192 5.072 185.816 4.944 185.472C4.816 185.12 4.64 184.832 4.416 184.608C4.2 184.376 3.92 184.26 3.576 184.26Z" fill="#74787C"/>
<path opacity="0.25" d="M43 44.5H746" stroke="black" stroke-linecap="round" stroke-linejoin="round" stroke-dasharray="0 10"/>
<path opacity="0.25" d="M43 80.5H746" stroke="black" stroke-linecap="round" stroke-linejoin="round" stroke-dasharray="0 10"/>
<path opacity="0.25" d="M43 116.5H746" stroke="black" stroke-linecap="round" stroke-linejoin="round" stroke-dasharray="0 10"/>
<path d="M6.264 155H0.72V153.884L4.104 150.524C4.36 150.26 4.58 149.984 4.764 149.696C4.948 149.408 5.04 149.084 5.04 148.724C5.04 148.5 5 148.3 4.92 148.124C4.84 147.94 4.732 147.784 4.596 147.656C4.46 147.528 4.3 147.432 4.116 147.368C3.932 147.296 3.736 147.26 3.528 147.26C3.096 147.26 2.74 147.4 2.46 147.68C2.18 147.952 2.004 148.304 1.932 148.736L0.792 148.544C0.84 148.224 0.94 147.928 1.092 147.656C1.252 147.376 1.452 147.136 1.692 146.936C1.932 146.728 2.208 146.568 2.52 146.456C2.84 146.344 3.18 146.288 3.54 146.288C3.892 146.288 4.228 146.34 4.548 146.444C4.876 146.548 5.164 146.7 5.412 146.9C5.66 147.1 5.856 147.352 6 147.656C6.152 147.96 6.228 148.308 6.228 148.7C6.228 148.972 6.192 149.224 6.12 149.456C6.048 149.688 5.948 149.908 5.82 150.116C5.7 150.324 5.556 150.524 5.388 150.716C5.22 150.9 5.044 151.084 4.86 151.268L2.1 153.956H6.264V155ZM10.7127 146.288C11.2167 146.288 11.6487 146.404 12.0087 146.636C12.3767 146.868 12.6767 147.188 12.9087 147.596C13.1487 147.996 13.3247 148.468 13.4367 149.012C13.5487 149.556 13.6047 150.136 13.6047 150.752C13.6047 151.376 13.5487 151.96 13.4367 152.504C13.3247 153.04 13.1487 153.512 12.9087 153.92C12.6767 154.32 12.3767 154.636 12.0087 154.868C11.6487 155.1 11.2167 155.216 10.7127 155.216C10.2087 155.216 9.77272 155.1 9.40472 154.868C9.03672 154.636 8.73272 154.32 8.49272 153.92C8.26072 153.512 8.08872 153.04 7.97672 152.504C7.86472 151.96 7.80872 151.376 7.80872 150.752C7.80872 150.136 7.86472 149.556 7.97672 149.012C8.08872 148.468 8.26072 147.996 8.49272 147.596C8.73272 147.188 9.03672 146.868 9.40472 146.636C9.77272 146.404 10.2087 146.288 10.7127 146.288ZM10.7127 147.26C10.3607 147.26 10.0727 147.376 9.84872 147.608C9.62472 147.832 9.44872 148.12 9.32072 148.472C9.20072 148.816 9.11672 149.192 9.06872 149.6C9.02072 150.008 8.99672 150.392 8.99672 150.752C8.99672 151.112 9.02072 151.496 9.06872 151.904C9.11672 152.312 9.20072 152.688 9.32072 153.032C9.44872 153.376 9.62472 153.664 9.84872 153.896C10.0727 154.12 10.3607 154.232 10.7127 154.232C11.0567 154.232 11.3367 154.12 11.5527 153.896C11.7767 153.664 11.9527 153.376 12.0807 153.032C12.2087 152.688 12.2967 152.312 12.3447 151.904C12.3927 151.496 12.4167 151.112 12.4167 150.752C12.4167 150.392 12.3927 150.008 12.3447 149.6C12.2967 149.192 12.2087 148.816 12.0807 148.472C11.9527 148.12 11.7767 147.832 11.5527 147.608C11.3367 147.376 11.0567 147.26 10.7127 147.26Z" fill="#74787C"/>
<path opacity="0.25" d="M43 152.5H746" stroke="black" stroke-linecap="round" stroke-linejoin="round" stroke-dasharray="0 10"/>
<path opacity="0.25" d="M43 188.5H746" stroke="black" stroke-linecap="round" stroke-linejoin="round" stroke-dasharray="0 10"/>
<path d="M40.861 203.014C41.323 203.014 41.719 203.12 42.049 203.333C42.3863 203.546 42.6613 203.839 42.874 204.213C43.094 204.58 43.2553 205.012 43.358 205.511C43.4607 206.01 43.512 206.541 43.512 207.106C43.512 207.678 43.4607 208.213 43.358 208.712C43.2553 209.203 43.094 209.636 42.874 210.01C42.6613 210.377 42.3863 210.666 42.049 210.879C41.719 211.092 41.323 211.198 40.861 211.198C40.399 211.198 39.9993 211.092 39.662 210.879C39.3247 210.666 39.046 210.377 38.826 210.01C38.6133 209.636 38.4557 209.203 38.353 208.712C38.2503 208.213 38.199 207.678 38.199 207.106C38.199 206.541 38.2503 206.01 38.353 205.511C38.4557 205.012 38.6133 204.58 38.826 204.213C39.046 203.839 39.3247 203.546 39.662 203.333C39.9993 203.12 40.399 203.014 40.861 203.014ZM40.861 203.905C40.5383 203.905 40.2743 204.011 40.069 204.224C39.8637 204.429 39.7023 204.693 39.585 205.016C39.475 205.331 39.398 205.676 39.354 206.05C39.31 206.424 39.288 206.776 39.288 207.106C39.288 207.436 39.31 207.788 39.354 208.162C39.398 208.536 39.475 208.881 39.585 209.196C39.7023 209.511 39.8637 209.775 40.069 209.988C40.2743 210.193 40.5383 210.296 40.861 210.296C41.1763 210.296 41.433 210.193 41.631 209.988C41.8363 209.775 41.9977 209.511 42.115 209.196C42.2323 208.881 42.313 208.536 42.357 208.162C42.401 207.788 42.423 207.436 42.423 207.106C42.423 206.776 42.401 206.424 42.357 206.05C42.313 205.676 42.2323 205.331 42.115 205.016C41.9977 204.693 41.8363 204.429 41.631 204.224C41.433 204.011 41.1763 203.905 40.861 203.905ZM48.294 211H47.227V204.51L45.753 205.742L45.126 205.005L47.337 203.212H48.294V211Z" fill="#74787C"/>
<path d="M38.9543 223.658H38.9653L41.5723 217.212H42.7823V225H41.9903V218.235H41.9683L39.1523 225H38.7343L35.9183 218.235H35.8963V225H35.1043V217.212H36.3143L38.9543 223.658ZM49.9185 222.426C49.9185 222.815 49.8488 223.174 49.7095 223.504C49.5775 223.834 49.3905 224.12 49.1485 224.362C48.9065 224.604 48.6168 224.795 48.2795 224.934C47.9421 225.066 47.5718 225.132 47.1685 225.132C46.7725 225.132 46.4058 225.066 46.0685 224.934C45.7311 224.795 45.4415 224.604 45.1995 224.362C44.9575 224.12 44.7668 223.834 44.6275 223.504C44.4955 223.174 44.4295 222.815 44.4295 222.426C44.4295 222.037 44.4955 221.678 44.6275 221.348C44.7668 221.018 44.9575 220.732 45.1995 220.49C45.4415 220.248 45.7311 220.061 46.0685 219.929C46.4058 219.79 46.7725 219.72 47.1685 219.72C47.5718 219.72 47.9421 219.79 48.2795 219.929C48.6168 220.061 48.9065 220.248 49.1485 220.49C49.3905 220.732 49.5775 221.018 49.7095 221.348C49.8488 221.678 49.9185 222.037 49.9185 222.426ZM49.1265 222.426C49.1265 222.14 49.0788 221.872 48.9835 221.623C48.8955 221.366 48.7671 221.146 48.5985 220.963C48.4298 220.772 48.2245 220.622 47.9825 220.512C47.7405 220.402 47.4691 220.347 47.1685 220.347C46.8678 220.347 46.5965 220.402 46.3545 220.512C46.1198 220.622 45.9181 220.772 45.7495 220.963C45.5808 221.146 45.4488 221.366 45.3535 221.623C45.2655 221.872 45.2215 222.14 45.2215 222.426C45.2215 222.712 45.2655 222.983 45.3535 223.24C45.4488 223.489 45.5808 223.709 45.7495 223.9C45.9181 224.083 46.1198 224.23 46.3545 224.34C46.5965 224.443 46.8678 224.494 47.1685 224.494C47.4691 224.494 47.7405 224.443 47.9825 224.34C48.2245 224.23 48.4298 224.083 48.5985 223.9C48.7671 223.709 48.8955 223.489 48.9835 223.24C49.0788 222.983 49.1265 222.712 49.1265 222.426ZM52.1991 219.852C52.2138 219.991 52.2248 220.145 52.2321 220.314C52.2394 220.483 52.2431 220.622 52.2431 220.732H52.2651C52.4118 220.431 52.6501 220.189 52.9801 220.006C53.3101 219.815 53.6584 219.72 54.0251 219.72C54.6778 219.72 55.1654 219.914 55.4881 220.303C55.8181 220.692 55.9831 221.205 55.9831 221.843V225H55.2351V222.151C55.2351 221.88 55.2131 221.634 55.1691 221.414C55.1251 221.194 55.0481 221.007 54.9381 220.853C54.8354 220.692 54.6924 220.567 54.5091 220.479C54.3331 220.391 54.1094 220.347 53.8381 220.347C53.6401 220.347 53.4458 220.387 53.2551 220.468C53.0718 220.549 52.9068 220.673 52.7601 220.842C52.6134 221.003 52.4961 221.212 52.4081 221.469C52.3201 221.718 52.2761 222.015 52.2761 222.36V225H51.5281V220.985C51.5281 220.846 51.5244 220.666 51.5171 220.446C51.5098 220.226 51.4988 220.028 51.4841 219.852H52.1991Z" fill="#989B9F"/>
<path d="M93.361 203.014C93.823 203.014 94.219 203.12 94.549 203.333C94.8863 203.546 95.1613 203.839 95.374 204.213C95.594 204.58 95.7553 205.012 95.858 205.511C95.9607 206.01 96.012 206.541 96.012 207.106C96.012 207.678 95.9607 208.213 95.858 208.712C95.7553 209.203 95.594 209.636 95.374 210.01C95.1613 210.377 94.8863 210.666 94.549 210.879C94.219 211.092 93.823 211.198 93.361 211.198C92.899 211.198 92.4993 211.092 92.162 210.879C91.8247 210.666 91.546 210.377 91.326 210.01C91.1133 209.636 90.9557 209.203 90.853 208.712C90.7503 208.213 90.699 207.678 90.699 207.106C90.699 206.541 90.7503 206.01 90.853 205.511C90.9557 205.012 91.1133 204.58 91.326 204.213C91.546 203.839 91.8247 203.546 92.162 203.333C92.4993 203.12 92.899 203.014 93.361 203.014ZM93.361 203.905C93.0383 203.905 92.7743 204.011 92.569 204.224C92.3637 204.429 92.2023 204.693 92.085 205.016C91.975 205.331 91.898 205.676 91.854 206.05C91.81 206.424 91.788 206.776 91.788 207.106C91.788 207.436 91.81 207.788 91.854 208.162C91.898 208.536 91.975 208.881 92.085 209.196C92.2023 209.511 92.3637 209.775 92.569 209.988C92.7743 210.193 93.0383 210.296 93.361 210.296C93.6763 210.296 93.933 210.193 94.131 209.988C94.3363 209.775 94.4977 209.511 94.615 209.196C94.7323 208.881 94.813 208.536 94.857 208.162C94.901 207.788 94.923 207.436 94.923 207.106C94.923 206.776 94.901 206.424 94.857 206.05C94.813 205.676 94.7323 205.331 94.615 205.016C94.4977 204.693 94.3363 204.429 94.131 204.224C93.933 204.011 93.6763 203.905 93.361 203.905ZM102.367 211H97.285V209.977L100.387 206.897C100.622 206.655 100.823 206.402 100.992 206.138C101.161 205.874 101.245 205.577 101.245 205.247C101.245 205.042 101.208 204.858 101.135 204.697C101.062 204.528 100.963 204.385 100.838 204.268C100.713 204.151 100.567 204.063 100.398 204.004C100.229 203.938 100.05 203.905 99.859 203.905C99.463 203.905 99.1367 204.033 98.88 204.29C98.6233 204.539 98.462 204.862 98.396 205.258L97.351 205.082C97.395 204.789 97.4867 204.517 97.626 204.268C97.7727 204.011 97.956 203.791 98.176 203.608C98.396 203.417 98.649 203.271 98.935 203.168C99.2283 203.065 99.54 203.014 99.87 203.014C100.193 203.014 100.501 203.062 100.794 203.157C101.095 203.252 101.359 203.392 101.586 203.575C101.813 203.758 101.993 203.989 102.125 204.268C102.264 204.547 102.334 204.866 102.334 205.225C102.334 205.474 102.301 205.705 102.235 205.918C102.169 206.131 102.077 206.332 101.96 206.523C101.85 206.714 101.718 206.897 101.564 207.073C101.41 207.242 101.249 207.41 101.08 207.579L98.55 210.043H102.367V211Z" fill="#74787C"/>
<path d="M92.5452 225H91.7532V217.916H89.1462V217.212H95.1522V217.916H92.5452V225ZM99.0293 225C99.0147 224.861 99.0037 224.707 98.9963 224.538C98.989 224.369 98.9853 224.23 98.9853 224.12H98.9633C98.8166 224.421 98.5783 224.666 98.2483 224.857C97.9183 225.04 97.57 225.132 97.2033 225.132C96.5506 225.132 96.0593 224.938 95.7293 224.549C95.4066 224.16 95.2453 223.647 95.2453 223.009V219.852H95.9933V222.701C95.9933 222.972 96.0153 223.218 96.0593 223.438C96.1033 223.658 96.1766 223.849 96.2793 224.01C96.3893 224.164 96.5323 224.285 96.7083 224.373C96.8916 224.461 97.119 224.505 97.3903 224.505C97.5883 224.505 97.779 224.465 97.9623 224.384C98.153 224.303 98.3216 224.182 98.4683 224.021C98.615 223.852 98.7323 223.643 98.8203 223.394C98.9083 223.137 98.9523 222.837 98.9523 222.492V219.852H99.7003V223.867C99.7003 224.006 99.704 224.186 99.7113 224.406C99.7187 224.626 99.7297 224.824 99.7443 225H99.0293ZM105.608 222.03C105.586 221.546 105.428 221.146 105.135 220.831C104.849 220.508 104.438 220.347 103.903 220.347C103.654 220.347 103.423 220.395 103.21 220.49C102.997 220.578 102.81 220.703 102.649 220.864C102.488 221.018 102.359 221.198 102.264 221.403C102.169 221.601 102.114 221.81 102.099 222.03H105.608ZM106.367 222.272C106.367 222.323 106.367 222.378 106.367 222.437C106.367 222.496 106.363 222.558 106.356 222.624H102.088C102.095 222.881 102.147 223.123 102.242 223.35C102.337 223.577 102.469 223.775 102.638 223.944C102.807 224.113 103.005 224.248 103.232 224.351C103.459 224.446 103.705 224.494 103.969 224.494C104.358 224.494 104.691 224.406 104.97 224.23C105.256 224.047 105.472 223.838 105.619 223.603L106.18 224.043C105.872 224.432 105.531 224.71 105.157 224.879C104.79 225.048 104.394 225.132 103.969 225.132C103.588 225.132 103.232 225.066 102.902 224.934C102.579 224.795 102.301 224.604 102.066 224.362C101.831 224.12 101.644 223.834 101.505 223.504C101.373 223.174 101.307 222.815 101.307 222.426C101.307 222.037 101.373 221.678 101.505 221.348C101.637 221.018 101.82 220.732 102.055 220.49C102.29 220.248 102.565 220.061 102.88 219.929C103.195 219.79 103.536 219.72 103.903 219.72C104.306 219.72 104.662 219.79 104.97 219.929C105.278 220.061 105.535 220.244 105.74 220.479C105.945 220.706 106.099 220.974 106.202 221.282C106.312 221.59 106.367 221.92 106.367 222.272Z" fill="#989B9F"/>
<path d="M146.361 203.014C146.823 203.014 147.219 203.12 147.549 203.333C147.886 203.546 148.161 203.839 148.374 204.213C148.594 204.58 148.755 205.012 148.858 205.511C148.961 206.01 149.012 206.541 149.012 207.106C149.012 207.678 148.961 208.213 148.858 208.712C148.755 209.203 148.594 209.636 148.374 210.01C148.161 210.377 147.886 210.666 147.549 210.879C147.219 211.092 146.823 211.198 146.361 211.198C145.899 211.198 145.499 211.092 145.162 210.879C144.825 210.666 144.546 210.377 144.326 210.01C144.113 209.636 143.956 209.203 143.853 208.712C143.75 208.213 143.699 207.678 143.699 207.106C143.699 206.541 143.75 206.01 143.853 205.511C143.956 205.012 144.113 204.58 144.326 204.213C144.546 203.839 144.825 203.546 145.162 203.333C145.499 203.12 145.899 203.014 146.361 203.014ZM146.361 203.905C146.038 203.905 145.774 204.011 145.569 204.224C145.364 204.429 145.202 204.693 145.085 205.016C144.975 205.331 144.898 205.676 144.854 206.05C144.81 206.424 144.788 206.776 144.788 207.106C144.788 207.436 144.81 207.788 144.854 208.162C144.898 208.536 144.975 208.881 145.085 209.196C145.202 209.511 145.364 209.775 145.569 209.988C145.774 210.193 146.038 210.296 146.361 210.296C146.676 210.296 146.933 210.193 147.131 209.988C147.336 209.775 147.498 209.511 147.615 209.196C147.732 208.881 147.813 208.536 147.857 208.162C147.901 207.788 147.923 207.436 147.923 207.106C147.923 206.776 147.901 206.424 147.857 206.05C147.813 205.676 147.732 205.331 147.615 205.016C147.498 204.693 147.336 204.429 147.131 204.224C146.933 204.011 146.676 203.905 146.361 203.905ZM151.968 206.49H152.309C152.529 206.49 152.742 206.472 152.947 206.435C153.16 206.391 153.347 206.321 153.508 206.226C153.669 206.123 153.798 205.988 153.893 205.819C153.996 205.65 154.047 205.441 154.047 205.192C154.047 204.994 154.01 204.818 153.937 204.664C153.864 204.503 153.761 204.367 153.629 204.257C153.504 204.147 153.358 204.063 153.189 204.004C153.028 203.938 152.855 203.905 152.672 203.905C152.342 203.905 152.06 203.989 151.825 204.158C151.598 204.327 151.425 204.561 151.308 204.862L150.34 204.521C150.531 204.052 150.835 203.685 151.253 203.421C151.678 203.15 152.166 203.014 152.716 203.014C153.039 203.014 153.343 203.062 153.629 203.157C153.922 203.245 154.179 203.377 154.399 203.553C154.619 203.729 154.791 203.949 154.916 204.213C155.048 204.477 155.114 204.781 155.114 205.126C155.114 205.346 155.077 205.551 155.004 205.742C154.938 205.933 154.843 206.105 154.718 206.259C154.601 206.413 154.458 206.545 154.289 206.655C154.12 206.765 153.937 206.846 153.739 206.897V206.919C153.966 206.963 154.175 207.04 154.366 207.15C154.564 207.26 154.733 207.399 154.872 207.568C155.011 207.729 155.121 207.916 155.202 208.129C155.283 208.342 155.323 208.573 155.323 208.822C155.323 209.211 155.25 209.555 155.103 209.856C154.956 210.149 154.762 210.395 154.52 210.593C154.278 210.791 153.999 210.941 153.684 211.044C153.369 211.147 153.046 211.198 152.716 211.198C152.1 211.198 151.557 211.059 151.088 210.78C150.619 210.501 150.278 210.069 150.065 209.482L151.055 209.152C151.172 209.489 151.37 209.764 151.649 209.977C151.935 210.19 152.283 210.296 152.694 210.296C152.892 210.296 153.083 210.267 153.266 210.208C153.457 210.142 153.625 210.047 153.772 209.922C153.919 209.797 154.036 209.643 154.124 209.46C154.212 209.277 154.256 209.06 154.256 208.811C154.256 208.54 154.197 208.312 154.08 208.129C153.963 207.946 153.809 207.799 153.618 207.689C153.435 207.572 153.226 207.491 152.991 207.447C152.756 207.396 152.525 207.37 152.298 207.37H151.968V206.49Z" fill="#74787C"/>
<path d="M142.12 223.911H142.142L144.089 217.212H145.035L146.982 223.911H147.004L148.907 217.212H149.743L147.444 225H146.52L144.562 218.312H144.54L142.582 225H141.658L139.359 217.212H140.195L142.12 223.911ZM154.413 222.03C154.391 221.546 154.233 221.146 153.94 220.831C153.654 220.508 153.243 220.347 152.708 220.347C152.459 220.347 152.228 220.395 152.015 220.49C151.802 220.578 151.615 220.703 151.454 220.864C151.293 221.018 151.164 221.198 151.069 221.403C150.974 221.601 150.919 221.81 150.904 222.03H154.413ZM155.172 222.272C155.172 222.323 155.172 222.378 155.172 222.437C155.172 222.496 155.168 222.558 155.161 222.624H150.893C150.9 222.881 150.952 223.123 151.047 223.35C151.142 223.577 151.274 223.775 151.443 223.944C151.612 224.113 151.81 224.248 152.037 224.351C152.264 224.446 152.51 224.494 152.774 224.494C153.163 224.494 153.496 224.406 153.775 224.23C154.061 224.047 154.277 223.838 154.424 223.603L154.985 224.043C154.677 224.432 154.336 224.71 153.962 224.879C153.595 225.048 153.199 225.132 152.774 225.132C152.393 225.132 152.037 225.066 151.707 224.934C151.384 224.795 151.106 224.604 150.871 224.362C150.636 224.12 150.449 223.834 150.31 223.504C150.178 223.174 150.112 222.815 150.112 222.426C150.112 222.037 150.178 221.678 150.31 221.348C150.442 221.018 150.625 220.732 150.86 220.49C151.095 220.248 151.37 220.061 151.685 219.929C152 219.79 152.341 219.72 152.708 219.72C153.111 219.72 153.467 219.79 153.775 219.929C154.083 220.061 154.34 220.244 154.545 220.479C154.75 220.706 154.904 220.974 155.007 221.282C155.117 221.59 155.172 221.92 155.172 222.272ZM161.016 224.131C160.796 224.461 160.51 224.71 160.158 224.879C159.806 225.048 159.443 225.132 159.069 225.132C158.666 225.132 158.299 225.062 157.969 224.923C157.646 224.784 157.368 224.593 157.133 224.351C156.906 224.109 156.726 223.823 156.594 223.493C156.469 223.163 156.407 222.807 156.407 222.426C156.407 222.045 156.469 221.689 156.594 221.359C156.726 221.029 156.906 220.743 157.133 220.501C157.368 220.259 157.646 220.068 157.969 219.929C158.299 219.79 158.666 219.72 159.069 219.72C159.443 219.72 159.806 219.808 160.158 219.984C160.51 220.153 160.796 220.406 161.016 220.743H161.038V216.684H161.786V225H161.038V224.131H161.016ZM157.199 222.426C157.199 222.712 157.243 222.983 157.331 223.24C157.419 223.489 157.544 223.709 157.705 223.9C157.874 224.083 158.079 224.23 158.321 224.34C158.563 224.443 158.838 224.494 159.146 224.494C159.432 224.494 159.696 224.443 159.938 224.34C160.18 224.23 160.389 224.083 160.565 223.9C160.741 223.717 160.877 223.5 160.972 223.251C161.075 222.994 161.126 222.719 161.126 222.426C161.126 222.133 161.075 221.861 160.972 221.612C160.877 221.355 160.741 221.135 160.565 220.952C160.389 220.761 160.18 220.615 159.938 220.512C159.696 220.402 159.432 220.347 159.146 220.347C158.838 220.347 158.563 220.402 158.321 220.512C158.079 220.622 157.874 220.772 157.705 220.963C157.544 221.146 157.419 221.366 157.331 221.623C157.243 221.872 157.199 222.14 157.199 222.426Z" fill="#989B9F"/>
<path d="M199.861 203.014C200.323 203.014 200.719 203.12 201.049 203.333C201.386 203.546 201.661 203.839 201.874 204.213C202.094 204.58 202.255 205.012 202.358 205.511C202.461 206.01 202.512 206.541 202.512 207.106C202.512 207.678 202.461 208.213 202.358 208.712C202.255 209.203 202.094 209.636 201.874 210.01C201.661 210.377 201.386 210.666 201.049 210.879C200.719 211.092 200.323 211.198 199.861 211.198C199.399 211.198 198.999 211.092 198.662 210.879C198.325 210.666 198.046 210.377 197.826 210.01C197.613 209.636 197.456 209.203 197.353 208.712C197.25 208.213 197.199 207.678 197.199 207.106C197.199 206.541 197.25 206.01 197.353 205.511C197.456 205.012 197.613 204.58 197.826 204.213C198.046 203.839 198.325 203.546 198.662 203.333C198.999 203.12 199.399 203.014 199.861 203.014ZM199.861 203.905C199.538 203.905 199.274 204.011 199.069 204.224C198.864 204.429 198.702 204.693 198.585 205.016C198.475 205.331 198.398 205.676 198.354 206.05C198.31 206.424 198.288 206.776 198.288 207.106C198.288 207.436 198.31 207.788 198.354 208.162C198.398 208.536 198.475 208.881 198.585 209.196C198.702 209.511 198.864 209.775 199.069 209.988C199.274 210.193 199.538 210.296 199.861 210.296C200.176 210.296 200.433 210.193 200.631 209.988C200.836 209.775 200.998 209.511 201.115 209.196C201.232 208.881 201.313 208.536 201.357 208.162C201.401 207.788 201.423 207.436 201.423 207.106C201.423 206.776 201.401 206.424 201.357 206.05C201.313 205.676 201.232 205.331 201.115 205.016C200.998 204.693 200.836 204.429 200.631 204.224C200.433 204.011 200.176 203.905 199.861 203.905ZM208.086 208.338H209.208V209.251H208.086V211H207.052V209.251H203.466V208.283L206.777 203.212H208.086V208.338ZM207.052 204.433H207.03L204.566 208.338H207.052V204.433Z" fill="#74787C"/>
<path d="M198.589 225H197.797V217.916H195.19V217.212H201.196V217.916H198.589V225ZM202.92 220.699C203.059 220.398 203.29 220.16 203.613 219.984C203.935 219.808 204.28 219.72 204.647 219.72C205.299 219.72 205.787 219.914 206.11 220.303C206.44 220.692 206.605 221.205 206.605 221.843V225H205.857V222.151C205.857 221.88 205.835 221.634 205.791 221.414C205.747 221.194 205.67 221.007 205.56 220.853C205.457 220.692 205.314 220.567 205.131 220.479C204.955 220.391 204.731 220.347 204.46 220.347C204.262 220.347 204.067 220.387 203.877 220.468C203.693 220.549 203.528 220.673 203.382 220.842C203.235 221.003 203.118 221.212 203.03 221.469C202.942 221.718 202.898 222.015 202.898 222.36V225H202.15V216.684H202.898V220.699H202.92ZM212.281 225C212.266 224.861 212.255 224.707 212.248 224.538C212.24 224.369 212.237 224.23 212.237 224.12H212.215C212.068 224.421 211.83 224.666 211.5 224.857C211.17 225.04 210.821 225.132 210.455 225.132C209.802 225.132 209.311 224.938 208.981 224.549C208.658 224.16 208.497 223.647 208.497 223.009V219.852H209.245V222.701C209.245 222.972 209.267 223.218 209.311 223.438C209.355 223.658 209.428 223.849 209.531 224.01C209.641 224.164 209.784 224.285 209.96 224.373C210.143 224.461 210.37 224.505 210.642 224.505C210.84 224.505 211.03 224.465 211.214 224.384C211.404 224.303 211.573 224.182 211.72 224.021C211.866 223.852 211.984 223.643 212.072 223.394C212.16 223.137 212.204 222.837 212.204 222.492V219.852H212.952V223.867C212.952 224.006 212.955 224.186 212.963 224.406C212.97 224.626 212.981 224.824 212.996 225H212.281Z" fill="#989B9F"/>
<path d="M252.361 203.014C252.823 203.014 253.219 203.12 253.549 203.333C253.886 203.546 254.161 203.839 254.374 204.213C254.594 204.58 254.755 205.012 254.858 205.511C254.961 206.01 255.012 206.541 255.012 207.106C255.012 207.678 254.961 208.213 254.858 208.712C254.755 209.203 254.594 209.636 254.374 210.01C254.161 210.377 253.886 210.666 253.549 210.879C253.219 211.092 252.823 211.198 252.361 211.198C251.899 211.198 251.499 211.092 251.162 210.879C250.825 210.666 250.546 210.377 250.326 210.01C250.113 209.636 249.956 209.203 249.853 208.712C249.75 208.213 249.699 207.678 249.699 207.106C249.699 206.541 249.75 206.01 249.853 205.511C249.956 205.012 250.113 204.58 250.326 204.213C250.546 203.839 250.825 203.546 251.162 203.333C251.499 203.12 251.899 203.014 252.361 203.014ZM252.361 203.905C252.038 203.905 251.774 204.011 251.569 204.224C251.364 204.429 251.202 204.693 251.085 205.016C250.975 205.331 250.898 205.676 250.854 206.05C250.81 206.424 250.788 206.776 250.788 207.106C250.788 207.436 250.81 207.788 250.854 208.162C250.898 208.536 250.975 208.881 251.085 209.196C251.202 209.511 251.364 209.775 251.569 209.988C251.774 210.193 252.038 210.296 252.361 210.296C252.676 210.296 252.933 210.193 253.131 209.988C253.336 209.775 253.498 209.511 253.615 209.196C253.732 208.881 253.813 208.536 253.857 208.162C253.901 207.788 253.923 207.436 253.923 207.106C253.923 206.776 253.901 206.424 253.857 206.05C253.813 205.676 253.732 205.331 253.615 205.016C253.498 204.693 253.336 204.429 253.131 204.224C252.933 204.011 252.676 203.905 252.361 203.905ZM261.015 204.158H257.803L257.737 206.204C257.884 206.153 258.045 206.116 258.221 206.094C258.404 206.072 258.577 206.061 258.738 206.061C259.112 206.061 259.457 206.12 259.772 206.237C260.095 206.347 260.37 206.508 260.597 206.721C260.832 206.934 261.015 207.194 261.147 207.502C261.279 207.803 261.345 208.14 261.345 208.514C261.345 208.925 261.275 209.295 261.136 209.625C260.997 209.955 260.806 210.237 260.564 210.472C260.322 210.699 260.036 210.875 259.706 211C259.376 211.132 259.017 211.198 258.628 211.198C258.019 211.198 257.506 211.059 257.088 210.78C256.67 210.494 256.355 210.113 256.142 209.636L257.11 209.251C257.235 209.566 257.429 209.819 257.693 210.01C257.964 210.201 258.276 210.296 258.628 210.296C258.855 210.296 259.068 210.256 259.266 210.175C259.464 210.094 259.636 209.981 259.783 209.834C259.93 209.687 260.043 209.511 260.124 209.306C260.212 209.101 260.256 208.873 260.256 208.624C260.256 208.331 260.205 208.078 260.102 207.865C260.007 207.645 259.875 207.465 259.706 207.326C259.537 207.187 259.343 207.084 259.123 207.018C258.903 206.952 258.672 206.919 258.43 206.919C258.137 206.919 257.836 206.959 257.528 207.04C257.22 207.121 256.945 207.223 256.703 207.348L256.813 203.212H261.015V204.158Z" fill="#74787C"/>
<path d="M252.612 225H251.82V217.212H256.517V217.916H252.612V220.622H256.242V221.315H252.612V225ZM257.49 220.985C257.49 220.846 257.487 220.666 257.479 220.446C257.472 220.226 257.461 220.028 257.446 219.852H258.161C258.176 219.991 258.187 220.145 258.194 220.314C258.202 220.483 258.205 220.622 258.205 220.732H258.227C258.374 220.431 258.594 220.189 258.887 220.006C259.181 219.815 259.511 219.72 259.877 219.72C259.973 219.72 260.057 219.724 260.13 219.731C260.211 219.738 260.292 219.753 260.372 219.775L260.273 220.479C260.229 220.464 260.156 220.45 260.053 220.435C259.951 220.42 259.848 220.413 259.745 220.413C259.547 220.413 259.357 220.45 259.173 220.523C258.99 220.596 258.829 220.714 258.689 220.875C258.557 221.029 258.447 221.231 258.359 221.48C258.279 221.722 258.238 222.015 258.238 222.36V225H257.49V220.985ZM262.213 225H261.465V219.852H262.213V225ZM262.367 217.872C262.367 218.026 262.312 218.154 262.202 218.257C262.092 218.352 261.971 218.4 261.839 218.4C261.707 218.4 261.586 218.352 261.476 218.257C261.366 218.154 261.311 218.026 261.311 217.872C261.311 217.718 261.366 217.593 261.476 217.498C261.586 217.395 261.707 217.344 261.839 217.344C261.971 217.344 262.092 217.395 262.202 217.498C262.312 217.593 262.367 217.718 262.367 217.872Z" fill="#989B9F"/>
<path d="M305.861 203.014C306.323 203.014 306.719 203.12 307.049 203.333C307.386 203.546 307.661 203.839 307.874 204.213C308.094 204.58 308.255 205.012 308.358 205.511C308.461 206.01 308.512 206.541 308.512 207.106C308.512 207.678 308.461 208.213 308.358 208.712C308.255 209.203 308.094 209.636 307.874 210.01C307.661 210.377 307.386 210.666 307.049 210.879C306.719 211.092 306.323 211.198 305.861 211.198C305.399 211.198 304.999 211.092 304.662 210.879C304.325 210.666 304.046 210.377 303.826 210.01C303.613 209.636 303.456 209.203 303.353 208.712C303.25 208.213 303.199 207.678 303.199 207.106C303.199 206.541 303.25 206.01 303.353 205.511C303.456 205.012 303.613 204.58 303.826 204.213C304.046 203.839 304.325 203.546 304.662 203.333C304.999 203.12 305.399 203.014 305.861 203.014ZM305.861 203.905C305.538 203.905 305.274 204.011 305.069 204.224C304.864 204.429 304.702 204.693 304.585 205.016C304.475 205.331 304.398 205.676 304.354 206.05C304.31 206.424 304.288 206.776 304.288 207.106C304.288 207.436 304.31 207.788 304.354 208.162C304.398 208.536 304.475 208.881 304.585 209.196C304.702 209.511 304.864 209.775 305.069 209.988C305.274 210.193 305.538 210.296 305.861 210.296C306.176 210.296 306.433 210.193 306.631 209.988C306.836 209.775 306.998 209.511 307.115 209.196C307.232 208.881 307.313 208.536 307.357 208.162C307.401 207.788 307.423 207.436 307.423 207.106C307.423 206.776 307.401 206.424 307.357 206.05C307.313 205.676 307.232 205.331 307.115 205.016C306.998 204.693 306.836 204.429 306.631 204.224C306.433 204.011 306.176 203.905 305.861 203.905ZM311.666 206.347L311.677 206.369C311.787 206.303 311.934 206.252 312.117 206.215C312.3 206.178 312.476 206.16 312.645 206.16C312.982 206.16 313.298 206.222 313.591 206.347C313.892 206.464 314.152 206.633 314.372 206.853C314.592 207.066 314.764 207.322 314.889 207.623C315.014 207.924 315.076 208.25 315.076 208.602C315.076 208.991 315.006 209.346 314.867 209.669C314.735 209.984 314.548 210.256 314.306 210.483C314.064 210.71 313.778 210.886 313.448 211.011C313.125 211.136 312.773 211.198 312.392 211.198C312.003 211.198 311.644 211.132 311.314 211C310.984 210.875 310.698 210.699 310.456 210.472C310.221 210.245 310.034 209.973 309.895 209.658C309.763 209.343 309.697 209.002 309.697 208.635C309.697 208.21 309.767 207.825 309.906 207.48C310.045 207.135 310.229 206.783 310.456 206.424L312.491 203.212H313.756L311.666 206.347ZM310.775 208.646C310.775 208.873 310.812 209.09 310.885 209.295C310.966 209.493 311.076 209.665 311.215 209.812C311.362 209.959 311.534 210.076 311.732 210.164C311.93 210.252 312.15 210.296 312.392 210.296C312.634 210.296 312.85 210.256 313.041 210.175C313.239 210.094 313.408 209.981 313.547 209.834C313.694 209.68 313.804 209.504 313.877 209.306C313.958 209.101 313.998 208.877 313.998 208.635C313.998 208.4 313.958 208.184 313.877 207.986C313.804 207.788 313.697 207.616 313.558 207.469C313.426 207.322 313.261 207.209 313.063 207.128C312.865 207.047 312.645 207.007 312.403 207.007C312.161 207.007 311.937 207.047 311.732 207.128C311.534 207.209 311.362 207.322 311.215 207.469C311.076 207.616 310.966 207.788 310.885 207.986C310.812 208.184 310.775 208.404 310.775 208.646Z" fill="#74787C"/>
<path d="M307.261 218.466C307.092 218.231 306.876 218.044 306.612 217.905C306.348 217.758 306.029 217.685 305.655 217.685C305.464 217.685 305.27 217.714 305.072 217.773C304.874 217.832 304.694 217.923 304.533 218.048C304.372 218.165 304.24 218.316 304.137 218.499C304.042 218.682 303.994 218.899 303.994 219.148C303.994 219.397 304.042 219.603 304.137 219.764C304.232 219.925 304.357 220.065 304.511 220.182C304.672 220.292 304.852 220.384 305.05 220.457C305.255 220.53 305.468 220.604 305.688 220.677C305.959 220.765 306.231 220.86 306.502 220.963C306.781 221.066 307.03 221.201 307.25 221.37C307.47 221.531 307.65 221.74 307.789 221.997C307.928 222.246 307.998 222.565 307.998 222.954C307.998 223.343 307.921 223.68 307.767 223.966C307.62 224.245 307.426 224.476 307.184 224.659C306.949 224.842 306.678 224.978 306.37 225.066C306.069 225.154 305.765 225.198 305.457 225.198C305.222 225.198 304.988 225.172 304.753 225.121C304.518 225.077 304.295 225.007 304.082 224.912C303.869 224.817 303.671 224.696 303.488 224.549C303.305 224.402 303.143 224.234 303.004 224.043L303.686 223.537C303.855 223.816 304.089 224.05 304.39 224.241C304.698 224.424 305.057 224.516 305.468 224.516C305.666 224.516 305.868 224.487 306.073 224.428C306.278 224.362 306.462 224.267 306.623 224.142C306.792 224.01 306.927 223.852 307.03 223.669C307.14 223.478 307.195 223.258 307.195 223.009C307.195 222.738 307.14 222.514 307.03 222.338C306.927 222.155 306.788 222.004 306.612 221.887C306.436 221.762 306.234 221.66 306.007 221.579C305.78 221.498 305.541 221.418 305.292 221.337C305.035 221.256 304.782 221.165 304.533 221.062C304.284 220.959 304.06 220.827 303.862 220.666C303.664 220.497 303.503 220.292 303.378 220.05C303.261 219.808 303.202 219.511 303.202 219.159C303.202 218.785 303.275 218.462 303.422 218.191C303.576 217.92 303.774 217.696 304.016 217.52C304.258 217.344 304.526 217.216 304.819 217.135C305.112 217.054 305.402 217.014 305.688 217.014C306.216 217.014 306.667 217.109 307.041 217.3C307.415 217.483 307.697 217.703 307.888 217.96L307.261 218.466ZM313.393 225C313.378 224.861 313.367 224.707 313.36 224.538C313.353 224.369 313.349 224.23 313.349 224.12H313.327C313.18 224.421 312.942 224.666 312.612 224.857C312.282 225.04 311.934 225.132 311.567 225.132C310.914 225.132 310.423 224.938 310.093 224.549C309.77 224.16 309.609 223.647 309.609 223.009V219.852H310.357V222.701C310.357 222.972 310.379 223.218 310.423 223.438C310.467 223.658 310.54 223.849 310.643 224.01C310.753 224.164 310.896 224.285 311.072 224.373C311.255 224.461 311.483 224.505 311.754 224.505C311.952 224.505 312.143 224.465 312.326 224.384C312.517 224.303 312.685 224.182 312.832 224.021C312.979 223.852 313.096 223.643 313.184 223.394C313.272 223.137 313.316 222.837 313.316 222.492V219.852H314.064V223.867C314.064 224.006 314.068 224.186 314.075 224.406C314.082 224.626 314.093 224.824 314.108 225H313.393ZM318.366 220.479H316.914V223.482C316.914 223.673 316.932 223.83 316.969 223.955C317.005 224.08 317.057 224.179 317.123 224.252C317.196 224.318 317.28 224.366 317.376 224.395C317.471 224.417 317.574 224.428 317.684 224.428C317.786 224.428 317.893 224.413 318.003 224.384C318.12 224.355 318.23 224.314 318.333 224.263L318.366 224.912C318.234 224.963 318.094 225 317.948 225.022C317.808 225.051 317.654 225.066 317.486 225.066C317.346 225.066 317.2 225.048 317.046 225.011C316.892 224.974 316.749 224.905 316.617 224.802C316.485 224.699 316.375 224.56 316.287 224.384C316.206 224.208 316.166 223.977 316.166 223.691V220.479H315.099V219.852H316.166V218.4H316.914V219.852H318.366V220.479Z" fill="#989B9F"/>
<path d="M358.861 203.014C359.323 203.014 359.719 203.12 360.049 203.333C360.386 203.546 360.661 203.839 360.874 204.213C361.094 204.58 361.255 205.012 361.358 205.511C361.461 206.01 361.512 206.541 361.512 207.106C361.512 207.678 361.461 208.213 361.358 208.712C361.255 209.203 361.094 209.636 360.874 210.01C360.661 210.377 360.386 210.666 360.049 210.879C359.719 211.092 359.323 211.198 358.861 211.198C358.399 211.198 357.999 211.092 357.662 210.879C357.325 210.666 357.046 210.377 356.826 210.01C356.613 209.636 356.456 209.203 356.353 208.712C356.25 208.213 356.199 207.678 356.199 207.106C356.199 206.541 356.25 206.01 356.353 205.511C356.456 205.012 356.613 204.58 356.826 204.213C357.046 203.839 357.325 203.546 357.662 203.333C357.999 203.12 358.399 203.014 358.861 203.014ZM358.861 203.905C358.538 203.905 358.274 204.011 358.069 204.224C357.864 204.429 357.702 204.693 357.585 205.016C357.475 205.331 357.398 205.676 357.354 206.05C357.31 206.424 357.288 206.776 357.288 207.106C357.288 207.436 357.31 207.788 357.354 208.162C357.398 208.536 357.475 208.881 357.585 209.196C357.702 209.511 357.864 209.775 358.069 209.988C358.274 210.193 358.538 210.296 358.861 210.296C359.176 210.296 359.433 210.193 359.631 209.988C359.836 209.775 359.998 209.511 360.115 209.196C360.232 208.881 360.313 208.536 360.357 208.162C360.401 207.788 360.423 207.436 360.423 207.106C360.423 206.776 360.401 206.424 360.357 206.05C360.313 205.676 360.232 205.331 360.115 205.016C359.998 204.693 359.836 204.429 359.631 204.224C359.433 204.011 359.176 203.905 358.861 203.905ZM367.79 204.18L364.666 211H363.445L366.69 204.158H362.829V203.212H367.79V204.18Z" fill="#74787C"/>
<path d="M358.811 218.466C358.642 218.231 358.426 218.044 358.162 217.905C357.898 217.758 357.579 217.685 357.205 217.685C357.014 217.685 356.82 217.714 356.622 217.773C356.424 217.832 356.244 217.923 356.083 218.048C355.922 218.165 355.79 218.316 355.687 218.499C355.592 218.682 355.544 218.899 355.544 219.148C355.544 219.397 355.592 219.603 355.687 219.764C355.782 219.925 355.907 220.065 356.061 220.182C356.222 220.292 356.402 220.384 356.6 220.457C356.805 220.53 357.018 220.604 357.238 220.677C357.509 220.765 357.781 220.86 358.052 220.963C358.331 221.066 358.58 221.201 358.8 221.37C359.02 221.531 359.2 221.74 359.339 221.997C359.478 222.246 359.548 222.565 359.548 222.954C359.548 223.343 359.471 223.68 359.317 223.966C359.17 224.245 358.976 224.476 358.734 224.659C358.499 224.842 358.228 224.978 357.92 225.066C357.619 225.154 357.315 225.198 357.007 225.198C356.772 225.198 356.538 225.172 356.303 225.121C356.068 225.077 355.845 225.007 355.632 224.912C355.419 224.817 355.221 224.696 355.038 224.549C354.855 224.402 354.693 224.234 354.554 224.043L355.236 223.537C355.405 223.816 355.639 224.05 355.94 224.241C356.248 224.424 356.607 224.516 357.018 224.516C357.216 224.516 357.418 224.487 357.623 224.428C357.828 224.362 358.012 224.267 358.173 224.142C358.342 224.01 358.477 223.852 358.58 223.669C358.69 223.478 358.745 223.258 358.745 223.009C358.745 222.738 358.69 222.514 358.58 222.338C358.477 222.155 358.338 222.004 358.162 221.887C357.986 221.762 357.784 221.66 357.557 221.579C357.33 221.498 357.091 221.418 356.842 221.337C356.585 221.256 356.332 221.165 356.083 221.062C355.834 220.959 355.61 220.827 355.412 220.666C355.214 220.497 355.053 220.292 354.928 220.05C354.811 219.808 354.752 219.511 354.752 219.159C354.752 218.785 354.825 218.462 354.972 218.191C355.126 217.92 355.324 217.696 355.566 217.52C355.808 217.344 356.076 217.216 356.369 217.135C356.662 217.054 356.952 217.014 357.238 217.014C357.766 217.014 358.217 217.109 358.591 217.3C358.965 217.483 359.247 217.703 359.438 217.96L358.811 218.466ZM364.943 225C364.928 224.861 364.917 224.707 364.91 224.538C364.903 224.369 364.899 224.23 364.899 224.12H364.877C364.73 224.421 364.492 224.666 364.162 224.857C363.832 225.04 363.484 225.132 363.117 225.132C362.464 225.132 361.973 224.938 361.643 224.549C361.32 224.16 361.159 223.647 361.159 223.009V219.852H361.907V222.701C361.907 222.972 361.929 223.218 361.973 223.438C362.017 223.658 362.09 223.849 362.193 224.01C362.303 224.164 362.446 224.285 362.622 224.373C362.805 224.461 363.033 224.505 363.304 224.505C363.502 224.505 363.693 224.465 363.876 224.384C364.067 224.303 364.235 224.182 364.382 224.021C364.529 223.852 364.646 223.643 364.734 223.394C364.822 223.137 364.866 222.837 364.866 222.492V219.852H365.614V223.867C365.614 224.006 365.618 224.186 365.625 224.406C365.632 224.626 365.643 224.824 365.658 225H364.943ZM368.265 219.852C368.28 219.991 368.291 220.145 368.298 220.314C368.306 220.483 368.309 220.622 368.309 220.732H368.331C368.478 220.431 368.716 220.189 369.046 220.006C369.376 219.815 369.725 219.72 370.091 219.72C370.744 219.72 371.232 219.914 371.554 220.303C371.884 220.692 372.049 221.205 372.049 221.843V225H371.301V222.151C371.301 221.88 371.279 221.634 371.235 221.414C371.191 221.194 371.114 221.007 371.004 220.853C370.902 220.692 370.759 220.567 370.575 220.479C370.399 220.391 370.176 220.347 369.904 220.347C369.706 220.347 369.512 220.387 369.321 220.468C369.138 220.549 368.973 220.673 368.826 220.842C368.68 221.003 368.562 221.212 368.474 221.469C368.386 221.718 368.342 222.015 368.342 222.36V225H367.594V220.985C367.594 220.846 367.591 220.666 367.583 220.446C367.576 220.226 367.565 220.028 367.55 219.852H368.265Z" fill="#989B9F"/>
<path d="M411.861 203.014C412.323 203.014 412.719 203.12 413.049 203.333C413.386 203.546 413.661 203.839 413.874 204.213C414.094 204.58 414.255 205.012 414.358 205.511C414.461 206.01 414.512 206.541 414.512 207.106C414.512 207.678 414.461 208.213 414.358 208.712C414.255 209.203 414.094 209.636 413.874 210.01C413.661 210.377 413.386 210.666 413.049 210.879C412.719 211.092 412.323 211.198 411.861 211.198C411.399 211.198 410.999 211.092 410.662 210.879C410.325 210.666 410.046 210.377 409.826 210.01C409.613 209.636 409.456 209.203 409.353 208.712C409.25 208.213 409.199 207.678 409.199 207.106C409.199 206.541 409.25 206.01 409.353 205.511C409.456 205.012 409.613 204.58 409.826 204.213C410.046 203.839 410.325 203.546 410.662 203.333C410.999 203.12 411.399 203.014 411.861 203.014ZM411.861 203.905C411.538 203.905 411.274 204.011 411.069 204.224C410.864 204.429 410.702 204.693 410.585 205.016C410.475 205.331 410.398 205.676 410.354 206.05C410.31 206.424 410.288 206.776 410.288 207.106C410.288 207.436 410.31 207.788 410.354 208.162C410.398 208.536 410.475 208.881 410.585 209.196C410.702 209.511 410.864 209.775 411.069 209.988C411.274 210.193 411.538 210.296 411.861 210.296C412.176 210.296 412.433 210.193 412.631 209.988C412.836 209.775 412.998 209.511 413.115 209.196C413.232 208.881 413.313 208.536 413.357 208.162C413.401 207.788 413.423 207.436 413.423 207.106C413.423 206.776 413.401 206.424 413.357 206.05C413.313 205.676 413.232 205.331 413.115 205.016C412.998 204.693 412.836 204.429 412.631 204.224C412.433 204.011 412.176 203.905 411.861 203.905ZM419.536 206.897C419.741 206.948 419.932 207.036 420.108 207.161C420.291 207.278 420.449 207.421 420.581 207.59C420.713 207.759 420.816 207.953 420.889 208.173C420.97 208.393 421.01 208.628 421.01 208.877C421.01 209.244 420.94 209.57 420.801 209.856C420.662 210.142 420.471 210.384 420.229 210.582C419.994 210.78 419.719 210.93 419.404 211.033C419.089 211.143 418.755 211.198 418.403 211.198C418.051 211.198 417.714 211.143 417.391 211.033C417.076 210.93 416.797 210.78 416.555 210.582C416.32 210.384 416.133 210.142 415.994 209.856C415.855 209.57 415.785 209.244 415.785 208.877C415.785 208.62 415.822 208.382 415.895 208.162C415.976 207.942 416.082 207.748 416.214 207.579C416.353 207.41 416.511 207.271 416.687 207.161C416.87 207.044 417.061 206.956 417.259 206.897V206.875C416.907 206.75 416.617 206.538 416.39 206.237C416.17 205.936 416.06 205.57 416.06 205.137C416.06 204.814 416.122 204.525 416.247 204.268C416.372 204.004 416.54 203.78 416.753 203.597C416.966 203.406 417.211 203.263 417.49 203.168C417.776 203.065 418.08 203.014 418.403 203.014C418.718 203.014 419.019 203.065 419.305 203.168C419.591 203.263 419.837 203.403 420.042 203.586C420.255 203.762 420.423 203.982 420.548 204.246C420.673 204.503 420.735 204.792 420.735 205.115C420.735 205.54 420.621 205.911 420.394 206.226C420.174 206.541 419.888 206.758 419.536 206.875V206.897ZM417.127 205.17C417.127 205.346 417.156 205.511 417.215 205.665C417.281 205.819 417.369 205.955 417.479 206.072C417.596 206.182 417.732 206.27 417.886 206.336C418.047 206.402 418.22 206.435 418.403 206.435C418.579 206.435 418.744 206.402 418.898 206.336C419.052 206.27 419.188 206.182 419.305 206.072C419.422 205.955 419.514 205.819 419.58 205.665C419.646 205.511 419.679 205.346 419.679 205.17C419.679 204.987 419.642 204.818 419.569 204.664C419.503 204.503 419.411 204.367 419.294 204.257C419.184 204.14 419.052 204.052 418.898 203.993C418.744 203.927 418.579 203.894 418.403 203.894C418.22 203.894 418.047 203.927 417.886 203.993C417.732 204.052 417.596 204.14 417.479 204.257C417.369 204.367 417.281 204.503 417.215 204.664C417.156 204.818 417.127 204.987 417.127 205.17ZM416.874 208.822C416.874 209.042 416.911 209.244 416.984 209.427C417.057 209.61 417.16 209.768 417.292 209.9C417.431 210.025 417.593 210.124 417.776 210.197C417.967 210.27 418.176 210.307 418.403 210.307C418.623 210.307 418.825 210.27 419.008 210.197C419.199 210.124 419.36 210.025 419.492 209.9C419.624 209.768 419.727 209.61 419.8 209.427C419.881 209.244 419.921 209.042 419.921 208.822C419.921 208.609 419.881 208.415 419.8 208.239C419.727 208.056 419.624 207.898 419.492 207.766C419.36 207.634 419.199 207.531 419.008 207.458C418.825 207.385 418.623 207.348 418.403 207.348C418.183 207.348 417.978 207.385 417.787 207.458C417.604 207.531 417.442 207.634 417.303 207.766C417.171 207.898 417.065 208.056 416.984 208.239C416.911 208.415 416.874 208.609 416.874 208.822Z" fill="#74787C"/>
<path d="M409.954 223.658H409.965L412.572 217.212H413.782V225H412.99V218.235H412.968L410.152 225H409.734L406.918 218.235H406.896V225H406.104V217.212H407.314L409.954 223.658ZM420.918 222.426C420.918 222.815 420.849 223.174 420.709 223.504C420.577 223.834 420.39 224.12 420.148 224.362C419.906 224.604 419.617 224.795 419.279 224.934C418.942 225.066 418.572 225.132 418.168 225.132C417.772 225.132 417.406 225.066 417.068 224.934C416.731 224.795 416.441 224.604 416.199 224.362C415.957 224.12 415.767 223.834 415.627 223.504C415.495 223.174 415.429 222.815 415.429 222.426C415.429 222.037 415.495 221.678 415.627 221.348C415.767 221.018 415.957 220.732 416.199 220.49C416.441 220.248 416.731 220.061 417.068 219.929C417.406 219.79 417.772 219.72 418.168 219.72C418.572 219.72 418.942 219.79 419.279 219.929C419.617 220.061 419.906 220.248 420.148 220.49C420.39 220.732 420.577 221.018 420.709 221.348C420.849 221.678 420.918 222.037 420.918 222.426ZM420.126 222.426C420.126 222.14 420.079 221.872 419.983 221.623C419.895 221.366 419.767 221.146 419.598 220.963C419.43 220.772 419.224 220.622 418.982 220.512C418.74 220.402 418.469 220.347 418.168 220.347C417.868 220.347 417.596 220.402 417.354 220.512C417.12 220.622 416.918 220.772 416.749 220.963C416.581 221.146 416.449 221.366 416.353 221.623C416.265 221.872 416.221 222.14 416.221 222.426C416.221 222.712 416.265 222.983 416.353 223.24C416.449 223.489 416.581 223.709 416.749 223.9C416.918 224.083 417.12 224.23 417.354 224.34C417.596 224.443 417.868 224.494 418.168 224.494C418.469 224.494 418.74 224.443 418.982 224.34C419.224 224.23 419.43 224.083 419.598 223.9C419.767 223.709 419.895 223.489 419.983 223.24C420.079 222.983 420.126 222.712 420.126 222.426ZM423.199 219.852C423.214 219.991 423.225 220.145 423.232 220.314C423.239 220.483 423.243 220.622 423.243 220.732H423.265C423.412 220.431 423.65 220.189 423.98 220.006C424.31 219.815 424.658 219.72 425.025 219.72C425.678 219.72 426.165 219.914 426.488 220.303C426.818 220.692 426.983 221.205 426.983 221.843V225H426.235V222.151C426.235 221.88 426.213 221.634 426.169 221.414C426.125 221.194 426.048 221.007 425.938 220.853C425.835 220.692 425.692 220.567 425.509 220.479C425.333 220.391 425.109 220.347 424.838 220.347C424.64 220.347 424.446 220.387 424.255 220.468C424.072 220.549 423.907 220.673 423.76 220.842C423.613 221.003 423.496 221.212 423.408 221.469C423.32 221.718 423.276 222.015 423.276 222.36V225H422.528V220.985C422.528 220.846 422.524 220.666 422.517 220.446C422.51 220.226 422.499 220.028 422.484 219.852H423.199Z" fill="#989B9F"/>
<path d="M464.361 203.014C464.823 203.014 465.219 203.12 465.549 203.333C465.886 203.546 466.161 203.839 466.374 204.213C466.594 204.58 466.755 205.012 466.858 205.511C466.961 206.01 467.012 206.541 467.012 207.106C467.012 207.678 466.961 208.213 466.858 208.712C466.755 209.203 466.594 209.636 466.374 210.01C466.161 210.377 465.886 210.666 465.549 210.879C465.219 211.092 464.823 211.198 464.361 211.198C463.899 211.198 463.499 211.092 463.162 210.879C462.825 210.666 462.546 210.377 462.326 210.01C462.113 209.636 461.956 209.203 461.853 208.712C461.75 208.213 461.699 207.678 461.699 207.106C461.699 206.541 461.75 206.01 461.853 205.511C461.956 205.012 462.113 204.58 462.326 204.213C462.546 203.839 462.825 203.546 463.162 203.333C463.499 203.12 463.899 203.014 464.361 203.014ZM464.361 203.905C464.038 203.905 463.774 204.011 463.569 204.224C463.364 204.429 463.202 204.693 463.085 205.016C462.975 205.331 462.898 205.676 462.854 206.05C462.81 206.424 462.788 206.776 462.788 207.106C462.788 207.436 462.81 207.788 462.854 208.162C462.898 208.536 462.975 208.881 463.085 209.196C463.202 209.511 463.364 209.775 463.569 209.988C463.774 210.193 464.038 210.296 464.361 210.296C464.676 210.296 464.933 210.193 465.131 209.988C465.336 209.775 465.498 209.511 465.615 209.196C465.732 208.881 465.813 208.536 465.857 208.162C465.901 207.788 465.923 207.436 465.923 207.106C465.923 206.776 465.901 206.424 465.857 206.05C465.813 205.676 465.732 205.331 465.615 205.016C465.498 204.693 465.336 204.429 465.131 204.224C464.933 204.011 464.676 203.905 464.361 203.905ZM471.64 207.854L471.629 207.843C471.519 207.909 471.369 207.96 471.178 207.997C471.09 208.012 470.998 208.026 470.903 208.041C470.815 208.048 470.731 208.052 470.65 208.052C470.305 208.052 469.986 207.993 469.693 207.876C469.4 207.751 469.143 207.583 468.923 207.37C468.703 207.15 468.531 206.89 468.406 206.589C468.281 206.288 468.219 205.962 468.219 205.61C468.219 205.221 468.285 204.869 468.417 204.554C468.556 204.231 468.747 203.956 468.989 203.729C469.231 203.502 469.517 203.326 469.847 203.201C470.177 203.076 470.533 203.014 470.914 203.014C471.295 203.014 471.651 203.08 471.981 203.212C472.311 203.337 472.593 203.513 472.828 203.74C473.07 203.967 473.257 204.239 473.389 204.554C473.528 204.869 473.598 205.21 473.598 205.577C473.598 206.002 473.528 206.387 473.389 206.732C473.25 207.077 473.07 207.429 472.85 207.788L470.815 211H469.55L471.64 207.854ZM472.531 205.566C472.531 205.339 472.491 205.126 472.41 204.928C472.337 204.723 472.227 204.547 472.08 204.4C471.941 204.246 471.772 204.125 471.574 204.037C471.376 203.949 471.156 203.905 470.914 203.905C470.672 203.905 470.452 203.949 470.254 204.037C470.056 204.118 469.884 204.231 469.737 204.378C469.598 204.525 469.488 204.701 469.407 204.906C469.334 205.111 469.297 205.335 469.297 205.577C469.297 205.812 469.334 206.028 469.407 206.226C469.488 206.424 469.598 206.596 469.737 206.743C469.876 206.89 470.045 207.003 470.243 207.084C470.441 207.165 470.661 207.205 470.903 207.205C471.145 207.205 471.365 207.165 471.563 207.084C471.768 207.003 471.941 206.89 472.08 206.743C472.227 206.596 472.337 206.424 472.41 206.226C472.491 206.028 472.531 205.808 472.531 205.566Z" fill="#74787C"/>
<path d="M463.545 225H462.753V217.916H460.146V217.212H466.152V217.916H463.545V225ZM470.029 225C470.015 224.861 470.004 224.707 469.996 224.538C469.989 224.369 469.985 224.23 469.985 224.12H469.963C469.817 224.421 469.578 224.666 469.248 224.857C468.918 225.04 468.57 225.132 468.203 225.132C467.551 225.132 467.059 224.938 466.729 224.549C466.407 224.16 466.245 223.647 466.245 223.009V219.852H466.993V222.701C466.993 222.972 467.015 223.218 467.059 223.438C467.103 223.658 467.177 223.849 467.279 224.01C467.389 224.164 467.532 224.285 467.708 224.373C467.892 224.461 468.119 224.505 468.39 224.505C468.588 224.505 468.779 224.465 468.962 224.384C469.153 224.303 469.322 224.182 469.468 224.021C469.615 223.852 469.732 223.643 469.82 223.394C469.908 223.137 469.952 222.837 469.952 222.492V219.852H470.7V223.867C470.7 224.006 470.704 224.186 470.711 224.406C470.719 224.626 470.73 224.824 470.744 225H470.029ZM476.608 222.03C476.586 221.546 476.428 221.146 476.135 220.831C475.849 220.508 475.438 220.347 474.903 220.347C474.654 220.347 474.423 220.395 474.21 220.49C473.997 220.578 473.81 220.703 473.649 220.864C473.488 221.018 473.359 221.198 473.264 221.403C473.169 221.601 473.114 221.81 473.099 222.03H476.608ZM477.367 222.272C477.367 222.323 477.367 222.378 477.367 222.437C477.367 222.496 477.363 222.558 477.356 222.624H473.088C473.095 222.881 473.147 223.123 473.242 223.35C473.337 223.577 473.469 223.775 473.638 223.944C473.807 224.113 474.005 224.248 474.232 224.351C474.459 224.446 474.705 224.494 474.969 224.494C475.358 224.494 475.691 224.406 475.97 224.23C476.256 224.047 476.472 223.838 476.619 223.603L477.18 224.043C476.872 224.432 476.531 224.71 476.157 224.879C475.79 225.048 475.394 225.132 474.969 225.132C474.588 225.132 474.232 225.066 473.902 224.934C473.579 224.795 473.301 224.604 473.066 224.362C472.831 224.12 472.644 223.834 472.505 223.504C472.373 223.174 472.307 222.815 472.307 222.426C472.307 222.037 472.373 221.678 472.505 221.348C472.637 221.018 472.82 220.732 473.055 220.49C473.29 220.248 473.565 220.061 473.88 219.929C474.195 219.79 474.536 219.72 474.903 219.72C475.306 219.72 475.662 219.79 475.97 219.929C476.278 220.061 476.535 220.244 476.74 220.479C476.945 220.706 477.099 220.974 477.202 221.282C477.312 221.59 477.367 221.92 477.367 222.272Z" fill="#989B9F"/>
<path d="M518.252 211H517.185V204.51L515.711 205.742L515.084 205.005L517.295 203.212H518.252V211ZM523.903 203.014C524.365 203.014 524.761 203.12 525.091 203.333C525.428 203.546 525.703 203.839 525.916 204.213C526.136 204.58 526.297 205.012 526.4 205.511C526.503 206.01 526.554 206.541 526.554 207.106C526.554 207.678 526.503 208.213 526.4 208.712C526.297 209.203 526.136 209.636 525.916 210.01C525.703 210.377 525.428 210.666 525.091 210.879C524.761 211.092 524.365 211.198 523.903 211.198C523.441 211.198 523.041 211.092 522.704 210.879C522.367 210.666 522.088 210.377 521.868 210.01C521.655 209.636 521.498 209.203 521.395 208.712C521.292 208.213 521.241 207.678 521.241 207.106C521.241 206.541 521.292 206.01 521.395 205.511C521.498 205.012 521.655 204.58 521.868 204.213C522.088 203.839 522.367 203.546 522.704 203.333C523.041 203.12 523.441 203.014 523.903 203.014ZM523.903 203.905C523.58 203.905 523.316 204.011 523.111 204.224C522.906 204.429 522.744 204.693 522.627 205.016C522.517 205.331 522.44 205.676 522.396 206.05C522.352 206.424 522.33 206.776 522.33 207.106C522.33 207.436 522.352 207.788 522.396 208.162C522.44 208.536 522.517 208.881 522.627 209.196C522.744 209.511 522.906 209.775 523.111 209.988C523.316 210.193 523.58 210.296 523.903 210.296C524.218 210.296 524.475 210.193 524.673 209.988C524.878 209.775 525.04 209.511 525.157 209.196C525.274 208.881 525.355 208.536 525.399 208.162C525.443 207.788 525.465 207.436 525.465 207.106C525.465 206.776 525.443 206.424 525.399 206.05C525.355 205.676 525.274 205.331 525.157 205.016C525.04 204.693 524.878 204.429 524.673 204.224C524.475 204.011 524.218 203.905 523.903 203.905Z" fill="#74787C"/>
<path d="M513.12 223.911H513.142L515.089 217.212H516.035L517.982 223.911H518.004L519.907 217.212H520.743L518.444 225H517.52L515.562 218.312H515.54L513.582 225H512.658L510.359 217.212H511.195L513.12 223.911ZM525.413 222.03C525.391 221.546 525.233 221.146 524.94 220.831C524.654 220.508 524.243 220.347 523.708 220.347C523.459 220.347 523.228 220.395 523.015 220.49C522.802 220.578 522.615 220.703 522.454 220.864C522.293 221.018 522.164 221.198 522.069 221.403C521.974 221.601 521.919 221.81 521.904 222.03H525.413ZM526.172 222.272C526.172 222.323 526.172 222.378 526.172 222.437C526.172 222.496 526.168 222.558 526.161 222.624H521.893C521.9 222.881 521.952 223.123 522.047 223.35C522.142 223.577 522.274 223.775 522.443 223.944C522.612 224.113 522.81 224.248 523.037 224.351C523.264 224.446 523.51 224.494 523.774 224.494C524.163 224.494 524.496 224.406 524.775 224.23C525.061 224.047 525.277 223.838 525.424 223.603L525.985 224.043C525.677 224.432 525.336 224.71 524.962 224.879C524.595 225.048 524.199 225.132 523.774 225.132C523.393 225.132 523.037 225.066 522.707 224.934C522.384 224.795 522.106 224.604 521.871 224.362C521.636 224.12 521.449 223.834 521.31 223.504C521.178 223.174 521.112 222.815 521.112 222.426C521.112 222.037 521.178 221.678 521.31 221.348C521.442 221.018 521.625 220.732 521.86 220.49C522.095 220.248 522.37 220.061 522.685 219.929C523 219.79 523.341 219.72 523.708 219.72C524.111 219.72 524.467 219.79 524.775 219.929C525.083 220.061 525.34 220.244 525.545 220.479C525.75 220.706 525.904 220.974 526.007 221.282C526.117 221.59 526.172 221.92 526.172 222.272ZM532.016 224.131C531.796 224.461 531.51 224.71 531.158 224.879C530.806 225.048 530.443 225.132 530.069 225.132C529.666 225.132 529.299 225.062 528.969 224.923C528.646 224.784 528.368 224.593 528.133 224.351C527.906 224.109 527.726 223.823 527.594 223.493C527.469 223.163 527.407 222.807 527.407 222.426C527.407 222.045 527.469 221.689 527.594 221.359C527.726 221.029 527.906 220.743 528.133 220.501C528.368 220.259 528.646 220.068 528.969 219.929C529.299 219.79 529.666 219.72 530.069 219.72C530.443 219.72 530.806 219.808 531.158 219.984C531.51 220.153 531.796 220.406 532.016 220.743H532.038V216.684H532.786V225H532.038V224.131H532.016ZM528.199 222.426C528.199 222.712 528.243 222.983 528.331 223.24C528.419 223.489 528.544 223.709 528.705 223.9C528.874 224.083 529.079 224.23 529.321 224.34C529.563 224.443 529.838 224.494 530.146 224.494C530.432 224.494 530.696 224.443 530.938 224.34C531.18 224.23 531.389 224.083 531.565 223.9C531.741 223.717 531.877 223.5 531.972 223.251C532.075 222.994 532.126 222.719 532.126 222.426C532.126 222.133 532.075 221.861 531.972 221.612C531.877 221.355 531.741 221.135 531.565 220.952C531.389 220.761 531.18 220.615 530.938 220.512C530.696 220.402 530.432 220.347 530.146 220.347C529.838 220.347 529.563 220.402 529.321 220.512C529.079 220.622 528.874 220.772 528.705 220.963C528.544 221.146 528.419 221.366 528.331 221.623C528.243 221.872 528.199 222.14 528.199 222.426Z" fill="#989B9F"/>
<path d="M571.752 211H570.685V204.51L569.211 205.742L568.584 205.005L570.795 203.212H571.752V211ZM578.294 211H577.227V204.51L575.753 205.742L575.126 205.005L577.337 203.212H578.294V211Z" fill="#74787C"/>
<path d="M569.589 225H568.797V217.916H566.19V217.212H572.196V217.916H569.589V225ZM573.92 220.699C574.059 220.398 574.29 220.16 574.613 219.984C574.935 219.808 575.28 219.72 575.647 219.72C576.299 219.72 576.787 219.914 577.11 220.303C577.44 220.692 577.605 221.205 577.605 221.843V225H576.857V222.151C576.857 221.88 576.835 221.634 576.791 221.414C576.747 221.194 576.67 221.007 576.56 220.853C576.457 220.692 576.314 220.567 576.131 220.479C575.955 220.391 575.731 220.347 575.46 220.347C575.262 220.347 575.067 220.387 574.877 220.468C574.693 220.549 574.528 220.673 574.382 220.842C574.235 221.003 574.118 221.212 574.03 221.469C573.942 221.718 573.898 222.015 573.898 222.36V225H573.15V216.684H573.898V220.699H573.92ZM583.281 225C583.266 224.861 583.255 224.707 583.248 224.538C583.24 224.369 583.237 224.23 583.237 224.12H583.215C583.068 224.421 582.83 224.666 582.5 224.857C582.17 225.04 581.821 225.132 581.455 225.132C580.802 225.132 580.311 224.938 579.981 224.549C579.658 224.16 579.497 223.647 579.497 223.009V219.852H580.245V222.701C580.245 222.972 580.267 223.218 580.311 223.438C580.355 223.658 580.428 223.849 580.531 224.01C580.641 224.164 580.784 224.285 580.96 224.373C581.143 224.461 581.37 224.505 581.642 224.505C581.84 224.505 582.03 224.465 582.214 224.384C582.404 224.303 582.573 224.182 582.72 224.021C582.866 223.852 582.984 223.643 583.072 223.394C583.16 223.137 583.204 222.837 583.204 222.492V219.852H583.952V223.867C583.952 224.006 583.955 224.186 583.963 224.406C583.97 224.626 583.981 224.824 583.996 225H583.281Z" fill="#989B9F"/>
<path d="M624.252 211H623.185V204.51L621.711 205.742L621.084 205.005L623.295 203.212H624.252V211ZM632.367 211H627.285V209.977L630.387 206.897C630.622 206.655 630.823 206.402 630.992 206.138C631.161 205.874 631.245 205.577 631.245 205.247C631.245 205.042 631.208 204.858 631.135 204.697C631.062 204.528 630.963 204.385 630.838 204.268C630.713 204.151 630.567 204.063 630.398 204.004C630.229 203.938 630.05 203.905 629.859 203.905C629.463 203.905 629.137 204.033 628.88 204.29C628.623 204.539 628.462 204.862 628.396 205.258L627.351 205.082C627.395 204.789 627.487 204.517 627.626 204.268C627.773 204.011 627.956 203.791 628.176 203.608C628.396 203.417 628.649 203.271 628.935 203.168C629.228 203.065 629.54 203.014 629.87 203.014C630.193 203.014 630.501 203.062 630.794 203.157C631.095 203.252 631.359 203.392 631.586 203.575C631.813 203.758 631.993 203.989 632.125 204.268C632.264 204.547 632.334 204.866 632.334 205.225C632.334 205.474 632.301 205.705 632.235 205.918C632.169 206.131 632.077 206.332 631.96 206.523C631.85 206.714 631.718 206.897 631.564 207.073C631.41 207.242 631.249 207.41 631.08 207.579L628.55 210.043H632.367V211Z" fill="#74787C"/>
<path d="M623.612 225H622.82V217.212H627.517V217.916H623.612V220.622H627.242V221.315H623.612V225ZM628.49 220.985C628.49 220.846 628.487 220.666 628.479 220.446C628.472 220.226 628.461 220.028 628.446 219.852H629.161C629.176 219.991 629.187 220.145 629.194 220.314C629.202 220.483 629.205 220.622 629.205 220.732H629.227C629.374 220.431 629.594 220.189 629.887 220.006C630.181 219.815 630.511 219.72 630.877 219.72C630.973 219.72 631.057 219.724 631.13 219.731C631.211 219.738 631.292 219.753 631.372 219.775L631.273 220.479C631.229 220.464 631.156 220.45 631.053 220.435C630.951 220.42 630.848 220.413 630.745 220.413C630.547 220.413 630.357 220.45 630.173 220.523C629.99 220.596 629.829 220.714 629.689 220.875C629.557 221.029 629.447 221.231 629.359 221.48C629.279 221.722 629.238 222.015 629.238 222.36V225H628.49V220.985ZM633.213 225H632.465V219.852H633.213V225ZM633.367 217.872C633.367 218.026 633.312 218.154 633.202 218.257C633.092 218.352 632.971 218.4 632.839 218.4C632.707 218.4 632.586 218.352 632.476 218.257C632.366 218.154 632.311 218.026 632.311 217.872C632.311 217.718 632.366 217.593 632.476 217.498C632.586 217.395 632.707 217.344 632.839 217.344C632.971 217.344 633.092 217.395 633.202 217.498C633.312 217.593 633.367 217.718 633.367 217.872Z" fill="#989B9F"/>
<path d="M677.752 211H676.685V204.51L675.211 205.742L674.584 205.005L676.795 203.212H677.752V211ZM682.468 206.49H682.809C683.029 206.49 683.242 206.472 683.447 206.435C683.66 206.391 683.847 206.321 684.008 206.226C684.169 206.123 684.298 205.988 684.393 205.819C684.496 205.65 684.547 205.441 684.547 205.192C684.547 204.994 684.51 204.818 684.437 204.664C684.364 204.503 684.261 204.367 684.129 204.257C684.004 204.147 683.858 204.063 683.689 204.004C683.528 203.938 683.355 203.905 683.172 203.905C682.842 203.905 682.56 203.989 682.325 204.158C682.098 204.327 681.925 204.561 681.808 204.862L680.84 204.521C681.031 204.052 681.335 203.685 681.753 203.421C682.178 203.15 682.666 203.014 683.216 203.014C683.539 203.014 683.843 203.062 684.129 203.157C684.422 203.245 684.679 203.377 684.899 203.553C685.119 203.729 685.291 203.949 685.416 204.213C685.548 204.477 685.614 204.781 685.614 205.126C685.614 205.346 685.577 205.551 685.504 205.742C685.438 205.933 685.343 206.105 685.218 206.259C685.101 206.413 684.958 206.545 684.789 206.655C684.62 206.765 684.437 206.846 684.239 206.897V206.919C684.466 206.963 684.675 207.04 684.866 207.15C685.064 207.26 685.233 207.399 685.372 207.568C685.511 207.729 685.621 207.916 685.702 208.129C685.783 208.342 685.823 208.573 685.823 208.822C685.823 209.211 685.75 209.555 685.603 209.856C685.456 210.149 685.262 210.395 685.02 210.593C684.778 210.791 684.499 210.941 684.184 211.044C683.869 211.147 683.546 211.198 683.216 211.198C682.6 211.198 682.057 211.059 681.588 210.78C681.119 210.501 680.778 210.069 680.565 209.482L681.555 209.152C681.672 209.489 681.87 209.764 682.149 209.977C682.435 210.19 682.783 210.296 683.194 210.296C683.392 210.296 683.583 210.267 683.766 210.208C683.957 210.142 684.125 210.047 684.272 209.922C684.419 209.797 684.536 209.643 684.624 209.46C684.712 209.277 684.756 209.06 684.756 208.811C684.756 208.54 684.697 208.312 684.58 208.129C684.463 207.946 684.309 207.799 684.118 207.689C683.935 207.572 683.726 207.491 683.491 207.447C683.256 207.396 683.025 207.37 682.798 207.37H682.468V206.49Z" fill="#74787C"/>
<path d="M678.261 218.466C678.092 218.231 677.876 218.044 677.612 217.905C677.348 217.758 677.029 217.685 676.655 217.685C676.464 217.685 676.27 217.714 676.072 217.773C675.874 217.832 675.694 217.923 675.533 218.048C675.372 218.165 675.24 218.316 675.137 218.499C675.042 218.682 674.994 218.899 674.994 219.148C674.994 219.397 675.042 219.603 675.137 219.764C675.232 219.925 675.357 220.065 675.511 220.182C675.672 220.292 675.852 220.384 676.05 220.457C676.255 220.53 676.468 220.604 676.688 220.677C676.959 220.765 677.231 220.86 677.502 220.963C677.781 221.066 678.03 221.201 678.25 221.37C678.47 221.531 678.65 221.74 678.789 221.997C678.928 222.246 678.998 222.565 678.998 222.954C678.998 223.343 678.921 223.68 678.767 223.966C678.62 224.245 678.426 224.476 678.184 224.659C677.949 224.842 677.678 224.978 677.37 225.066C677.069 225.154 676.765 225.198 676.457 225.198C676.222 225.198 675.988 225.172 675.753 225.121C675.518 225.077 675.295 225.007 675.082 224.912C674.869 224.817 674.671 224.696 674.488 224.549C674.305 224.402 674.143 224.234 674.004 224.043L674.686 223.537C674.855 223.816 675.089 224.05 675.39 224.241C675.698 224.424 676.057 224.516 676.468 224.516C676.666 224.516 676.868 224.487 677.073 224.428C677.278 224.362 677.462 224.267 677.623 224.142C677.792 224.01 677.927 223.852 678.03 223.669C678.14 223.478 678.195 223.258 678.195 223.009C678.195 222.738 678.14 222.514 678.03 222.338C677.927 222.155 677.788 222.004 677.612 221.887C677.436 221.762 677.234 221.66 677.007 221.579C676.78 221.498 676.541 221.418 676.292 221.337C676.035 221.256 675.782 221.165 675.533 221.062C675.284 220.959 675.06 220.827 674.862 220.666C674.664 220.497 674.503 220.292 674.378 220.05C674.261 219.808 674.202 219.511 674.202 219.159C674.202 218.785 674.275 218.462 674.422 218.191C674.576 217.92 674.774 217.696 675.016 217.52C675.258 217.344 675.526 217.216 675.819 217.135C676.112 217.054 676.402 217.014 676.688 217.014C677.216 217.014 677.667 217.109 678.041 217.3C678.415 217.483 678.697 217.703 678.888 217.96L678.261 218.466ZM684.393 225C684.378 224.861 684.367 224.707 684.36 224.538C684.353 224.369 684.349 224.23 684.349 224.12H684.327C684.18 224.421 683.942 224.666 683.612 224.857C683.282 225.04 682.934 225.132 682.567 225.132C681.914 225.132 681.423 224.938 681.093 224.549C680.77 224.16 680.609 223.647 680.609 223.009V219.852H681.357V222.701C681.357 222.972 681.379 223.218 681.423 223.438C681.467 223.658 681.54 223.849 681.643 224.01C681.753 224.164 681.896 224.285 682.072 224.373C682.255 224.461 682.483 224.505 682.754 224.505C682.952 224.505 683.143 224.465 683.326 224.384C683.517 224.303 683.685 224.182 683.832 224.021C683.979 223.852 684.096 223.643 684.184 223.394C684.272 223.137 684.316 222.837 684.316 222.492V219.852H685.064V223.867C685.064 224.006 685.068 224.186 685.075 224.406C685.082 224.626 685.093 224.824 685.108 225H684.393ZM689.366 220.479H687.914V223.482C687.914 223.673 687.932 223.83 687.969 223.955C688.005 224.08 688.057 224.179 688.123 224.252C688.196 224.318 688.28 224.366 688.376 224.395C688.471 224.417 688.574 224.428 688.684 224.428C688.786 224.428 688.893 224.413 689.003 224.384C689.12 224.355 689.23 224.314 689.333 224.263L689.366 224.912C689.234 224.963 689.094 225 688.948 225.022C688.808 225.051 688.654 225.066 688.486 225.066C688.346 225.066 688.2 225.048 688.046 225.011C687.892 224.974 687.749 224.905 687.617 224.802C687.485 224.699 687.375 224.56 687.287 224.384C687.206 224.208 687.166 223.977 687.166 223.691V220.479H686.099V219.852H687.166V218.4H687.914V219.852H689.366V220.479Z" fill="#989B9F"/>
<path d="M730.752 211H729.685V204.51L728.211 205.742L727.584 205.005L729.795 203.212H730.752V211ZM738.086 208.338H739.208V209.251H738.086V211H737.052V209.251H733.466V208.283L736.777 203.212H738.086V208.338ZM737.052 204.433H737.03L734.566 208.338H737.052V204.433Z" fill="#74787C"/>
<path d="M729.811 218.466C729.642 218.231 729.426 218.044 729.162 217.905C728.898 217.758 728.579 217.685 728.205 217.685C728.014 217.685 727.82 217.714 727.622 217.773C727.424 217.832 727.244 217.923 727.083 218.048C726.922 218.165 726.79 218.316 726.687 218.499C726.592 218.682 726.544 218.899 726.544 219.148C726.544 219.397 726.592 219.603 726.687 219.764C726.782 219.925 726.907 220.065 727.061 220.182C727.222 220.292 727.402 220.384 727.6 220.457C727.805 220.53 728.018 220.604 728.238 220.677C728.509 220.765 728.781 220.86 729.052 220.963C729.331 221.066 729.58 221.201 729.8 221.37C730.02 221.531 730.2 221.74 730.339 221.997C730.478 222.246 730.548 222.565 730.548 222.954C730.548 223.343 730.471 223.68 730.317 223.966C730.17 224.245 729.976 224.476 729.734 224.659C729.499 224.842 729.228 224.978 728.92 225.066C728.619 225.154 728.315 225.198 728.007 225.198C727.772 225.198 727.538 225.172 727.303 225.121C727.068 225.077 726.845 225.007 726.632 224.912C726.419 224.817 726.221 224.696 726.038 224.549C725.855 224.402 725.693 224.234 725.554 224.043L726.236 223.537C726.405 223.816 726.639 224.05 726.94 224.241C727.248 224.424 727.607 224.516 728.018 224.516C728.216 224.516 728.418 224.487 728.623 224.428C728.828 224.362 729.012 224.267 729.173 224.142C729.342 224.01 729.477 223.852 729.58 223.669C729.69 223.478 729.745 223.258 729.745 223.009C729.745 222.738 729.69 222.514 729.58 222.338C729.477 222.155 729.338 222.004 729.162 221.887C728.986 221.762 728.784 221.66 728.557 221.579C728.33 221.498 728.091 221.418 727.842 221.337C727.585 221.256 727.332 221.165 727.083 221.062C726.834 220.959 726.61 220.827 726.412 220.666C726.214 220.497 726.053 220.292 725.928 220.05C725.811 219.808 725.752 219.511 725.752 219.159C725.752 218.785 725.825 218.462 725.972 218.191C726.126 217.92 726.324 217.696 726.566 217.52C726.808 217.344 727.076 217.216 727.369 217.135C727.662 217.054 727.952 217.014 728.238 217.014C728.766 217.014 729.217 217.109 729.591 217.3C729.965 217.483 730.247 217.703 730.438 217.96L729.811 218.466ZM735.943 225C735.928 224.861 735.917 224.707 735.91 224.538C735.903 224.369 735.899 224.23 735.899 224.12H735.877C735.73 224.421 735.492 224.666 735.162 224.857C734.832 225.04 734.484 225.132 734.117 225.132C733.464 225.132 732.973 224.938 732.643 224.549C732.32 224.16 732.159 223.647 732.159 223.009V219.852H732.907V222.701C732.907 222.972 732.929 223.218 732.973 223.438C733.017 223.658 733.09 223.849 733.193 224.01C733.303 224.164 733.446 224.285 733.622 224.373C733.805 224.461 734.033 224.505 734.304 224.505C734.502 224.505 734.693 224.465 734.876 224.384C735.067 224.303 735.235 224.182 735.382 224.021C735.529 223.852 735.646 223.643 735.734 223.394C735.822 223.137 735.866 222.837 735.866 222.492V219.852H736.614V223.867C736.614 224.006 736.618 224.186 736.625 224.406C736.632 224.626 736.643 224.824 736.658 225H735.943ZM739.265 219.852C739.28 219.991 739.291 220.145 739.298 220.314C739.306 220.483 739.309 220.622 739.309 220.732H739.331C739.478 220.431 739.716 220.189 740.046 220.006C740.376 219.815 740.725 219.72 741.091 219.72C741.744 219.72 742.232 219.914 742.554 220.303C742.884 220.692 743.049 221.205 743.049 221.843V225H742.301V222.151C742.301 221.88 742.279 221.634 742.235 221.414C742.191 221.194 742.114 221.007 742.004 220.853C741.902 220.692 741.759 220.567 741.575 220.479C741.399 220.391 741.176 220.347 740.904 220.347C740.706 220.347 740.512 220.387 740.321 220.468C740.138 220.549 739.973 220.673 739.826 220.842C739.68 221.003 739.562 221.212 739.474 221.469C739.386 221.718 739.342 222.015 739.342 222.36V225H738.594V220.985C738.594 220.846 738.591 220.666 738.583 220.446C738.576 220.226 738.565 220.028 738.55 219.852H739.265Z" fill="#989B9F"/>
</g>
<rect x="40" y="26" width="702" height="164" fill="white" fill-opacity="0.01"/>
<mask id="mask0" mask-type="alpha" maskUnits="userSpaceOnUse" x="40" y="26" width="702" height="164">
<rect x="40" y="26" width="702" height="164" fill="white"/>
</mask>
<g mask="url(#mask0)">
<path d="M231.197 85.9672L230.5 85.25L231.197 85.9672ZM282.294 86.4538L283.005 85.7501V85.7501L282.294 86.4538ZM223.716 93.2366L224.413 93.9538L223.716 93.2366ZM177.462 110.999L177.425 111.999L177.462 110.999ZM129.719 124.855L130.286 125.679H130.286L129.719 124.855ZM120.317 131.324L119.75 130.5L120.317 131.324ZM53.0408 138.492L53.4213 137.568H53.4213L53.0408 138.492ZM38.6962 132.591L37.7714 132.21L37.3909 133.135L38.3157 133.515L38.6962 132.591ZM39.4571 130.741L39.8376 129.816L38.9128 129.436L38.5324 130.361L39.4571 130.741ZM53.8017 136.643L53.4213 137.568L53.8017 136.643ZM119.183 129.676L118.616 128.852L119.183 129.676ZM128.586 123.207L129.152 124.031H129.152L128.586 123.207ZM177.538 109.001L177.575 108.001L177.538 109.001ZM222.322 91.8022L223.019 92.5194L222.322 91.8022ZM229.803 84.5328L229.106 83.8156L229.803 84.5328ZM283.715 85.0463L283.005 85.7501L283.715 85.0463ZM292.06 93.4701L291.35 94.1739L292.06 93.4701ZM369.466 111.386L369.56 112.381L369.466 111.386ZM389.406 109.504L389.312 108.509L389.406 109.504ZM437.483 123.748L438.104 122.964L437.483 123.748ZM448.852 132.758L449.636 133.379L450.257 132.595L449.473 131.974L448.852 132.758ZM447.61 134.325L446.989 135.109L447.772 135.73L448.393 134.946L447.61 134.325ZM436.24 125.315L435.619 126.099L436.24 125.315ZM389.594 111.496L389.688 112.491L389.594 111.496ZM369.654 113.377L369.56 112.381L369.654 113.377ZM290.639 94.8777L291.35 94.1739L290.639 94.8777ZM553.024 129.562L552.451 128.742L553.024 129.562ZM602.5 114V115H603.5V114H602.5ZM544.301 135.651L543.729 134.831L544.301 135.651ZM495.5 151H494.5V152H495.5V151ZM495.5 149V148H494.5V149H495.5ZM543.156 134.011L543.729 134.831L543.156 134.011ZM551.879 127.922L552.451 128.742L551.879 127.922ZM602.5 112H603.5V111H602.5V112ZM744.5 39.484L743.5 39.5V39.5L744.5 39.484ZM744.441 35.819L745.441 35.803L745.383 32.138L743.572 35.325L744.441 35.819ZM747 195.984L746 196L747 195.984ZM747.016 197V198H748.032L748.016 196.984L747.016 197ZM37.5 197H36.5V198H37.5V197ZM37.5 133V132H36.5V133H37.5ZM39.5 133H40.5V132H39.5V133ZM39.5 195H38.5V196H39.5V195ZM744.984 195V196H746L745.984 194.984L744.984 195ZM742.559 43.181L743.559 43.165L743.5 39.5L741.689 42.687L742.559 43.181ZM697.36 122.73L696.491 122.236V122.236L697.36 122.73ZM695.715 125.302L694.902 124.721L695.715 125.302ZM654.918 132.063L655.5 131.25L654.918 132.063ZM651.781 129.818L650.968 129.236L650.386 130.049L651.199 130.631L651.781 129.818ZM652.945 128.192L653.527 127.378L652.714 126.796L652.132 127.61L652.945 128.192ZM656.082 130.437L655.5 131.25L656.082 130.437ZM694.089 124.139L694.902 124.721L694.902 124.72L694.089 124.139ZM695.622 121.742L696.491 122.236V122.236L695.622 121.742ZM742.631 39.006L741.761 38.512V38.512L742.631 39.006ZM231.894 86.6844C245.784 73.1875 267.954 73.3986 281.584 87.1576L283.005 85.7501C268.602 71.2117 245.177 70.9886 230.5 85.25L231.894 86.6844ZM224.413 93.9538L231.894 86.6844L230.5 85.25L223.019 92.5194L224.413 93.9538ZM177.425 111.999C194.895 112.658 211.874 106.137 224.413 93.9538L223.019 92.5194C210.872 104.322 194.424 110.639 177.5 110L177.425 111.999ZM130.286 125.679C144.117 116.163 160.649 111.366 177.425 111.999L177.5 110C160.294 109.351 143.338 114.272 129.152 124.031L130.286 125.679ZM120.884 132.148L130.286 125.679L129.152 124.031L119.75 130.5L120.884 132.148ZM52.6603 139.417C75.1688 148.678 100.832 145.943 120.884 132.148L119.75 130.5C100.255 143.912 75.3047 146.571 53.4213 137.568L52.6603 139.417ZM38.3157 133.515L52.6603 139.417L53.4213 137.568L39.0767 131.666L38.3157 133.515ZM38.5324 130.361L37.7714 132.21L39.621 132.971L40.3819 131.122L38.5324 130.361ZM54.1822 135.718L39.8376 129.816L39.0767 131.666L53.4213 137.568L54.1822 135.718ZM118.616 128.852C99.6783 141.882 75.4406 144.464 54.1822 135.718L53.4213 137.568C75.3047 146.571 100.255 143.912 119.75 130.5L118.616 128.852ZM128.019 122.383L118.616 128.852L119.75 130.5L129.152 124.031L128.019 122.383ZM177.575 108.001C159.939 107.336 142.559 112.38 128.019 122.383L129.152 124.031C143.338 114.272 160.294 109.351 177.5 110L177.575 108.001ZM221.625 91.085C209.871 102.507 193.953 108.619 177.575 108.001L177.5 110C194.424 110.639 210.872 104.322 223.019 92.5194L221.625 91.085ZM229.106 83.8156L221.625 91.085L223.019 92.5194L230.5 85.25L229.106 83.8156ZM284.426 84.3425C269.251 69.0248 244.57 68.7897 229.106 83.8156L230.5 85.25C245.177 70.9886 268.602 71.2117 283.005 85.7501L284.426 84.3425ZM292.771 92.7663L284.426 84.3425L283.005 85.7501L291.35 94.1739L292.771 92.7663ZM336.5 111C320.075 111 304.331 104.435 292.771 92.7663L291.35 94.1739C303.285 106.222 319.541 113 336.5 113V111ZM356.411 111H336.5V113H356.411V111ZM369.372 110.39C365.064 110.796 360.738 111 356.411 111V113C360.801 113 365.189 112.793 369.56 112.381L369.372 110.39ZM389.312 108.509L369.372 110.39L369.56 112.381L389.5 110.5L389.312 108.509ZM438.104 122.964C424.312 112.035 406.831 106.856 389.312 108.509L389.5 110.5C406.506 108.896 423.474 113.923 436.861 124.532L438.104 122.964ZM449.473 131.974L438.104 122.964L436.861 124.532L448.231 133.541L449.473 131.974ZM448.393 134.946L449.636 133.379L448.068 132.137L446.826 133.704L448.393 134.946ZM435.619 126.099L446.989 135.109L448.231 133.541L436.861 124.532L435.619 126.099ZM389.688 112.491C406.18 110.935 422.636 115.811 435.619 126.099L436.861 124.532C423.474 113.923 406.506 108.896 389.5 110.5L389.688 112.491ZM369.748 114.372L389.688 112.491L389.5 110.5L369.56 112.381L369.748 114.372ZM356.411 115C360.864 115 365.315 114.791 369.748 114.372L369.56 112.381C365.189 112.793 360.801 113 356.411 113V115ZM336.5 115H356.411V113H336.5V115ZM289.929 95.5815C302.24 108.009 319.007 115 336.5 115V113C319.541 113 303.285 106.222 291.35 94.1739L289.929 95.5815ZM281.584 87.1576L289.929 95.5815L291.35 94.1739L283.005 85.7501L281.584 87.1576ZM553.596 130.382C567.938 120.369 585.008 115 602.5 115V113C584.599 113 567.129 118.495 552.451 128.742L553.596 130.382ZM544.874 136.471L553.596 130.382L552.451 128.742L543.729 134.831L544.874 136.471ZM495.5 152C513.16 152 530.394 146.579 544.874 136.471L543.729 134.831C529.585 144.705 512.75 150 495.5 150V152ZM494.5 149V151H496.5V149H494.5ZM542.584 133.191C528.775 142.831 512.341 148 495.5 148V150C512.75 150 529.585 144.705 543.729 134.831L542.584 133.191ZM551.306 127.102L542.584 133.191L543.729 134.831L552.451 128.742L551.306 127.102ZM602.5 111C584.189 111 566.32 116.62 551.306 127.102L552.451 128.742C567.129 118.495 584.599 113 602.5 113V111ZM603.5 114V112H601.5V114H603.5ZM745.5 39.4681L745.441 35.803L743.441 35.835L743.5 39.5L745.5 39.4681ZM748 195.968L745.5 39.4681L743.5 39.5L746 196L748 195.968ZM748.016 196.984L748 195.968L746 196L746.016 197.016L748.016 196.984ZM746 198H747.016V196H746V198ZM38.5 198H746V196H38.5V198ZM37.5 198H38.5V196H37.5V198ZM36.5 196V197H38.5V196H36.5ZM36.5 133V196H38.5V133H36.5ZM39.5 132H37.5V134H39.5V132ZM40.5 195V133H38.5V195H40.5ZM744.984 194H39.5V196H744.984V194ZM741.559 43.1969L743.984 195.016L745.984 194.984L743.559 43.165L741.559 43.1969ZM698.23 123.224L743.428 43.675L741.689 42.687L696.491 122.236L698.23 123.224ZM696.528 125.884C697.142 125.028 697.71 124.14 698.23 123.224L696.491 122.236C696.005 123.091 695.475 123.92 694.902 124.721L696.528 125.884ZM654.336 132.876C667.918 142.597 686.808 139.466 696.528 125.884L694.902 124.721C685.825 137.404 668.184 140.328 655.5 131.25L654.336 132.876ZM651.199 130.631L654.336 132.876L655.5 131.25L652.363 129.005L651.199 130.631ZM652.132 127.61L650.968 129.236L652.594 130.4L653.758 128.774L652.132 127.61ZM656.664 129.624L653.527 127.378L652.363 129.005L655.5 131.25L656.664 129.624ZM693.276 123.557C684.841 135.342 668.449 138.058 656.664 129.624L655.5 131.25C668.184 140.328 685.825 137.404 694.902 124.721L693.276 123.557ZM694.752 121.248C694.301 122.042 693.808 122.813 693.276 123.557L694.902 124.72C695.475 123.92 696.005 123.091 696.491 122.236L694.752 121.248ZM741.761 38.512L694.752 121.248L696.491 122.236L743.5 39.5L741.761 38.512ZM743.572 35.325L741.761 38.512L743.5 39.5L745.311 36.313L743.572 35.325Z" fill="#FF5066"/>
<path d="M447.299 134.717L446.515 134.096L445.894 134.88L446.678 135.501L447.299 134.717ZM495.5 151.5V152.5H496.5V151.5H495.5ZM449.162 132.366L449.783 131.582L449 130.961L448.379 131.745L449.162 132.366ZM495.5 148.5H496.5V147.5H495.5V148.5ZM602.5 114.5H601.5V115.5H602.5V114.5ZM651.49 130.225L650.908 131.038L651.49 130.225ZM602.5 111.5V110.5H601.5V111.5H602.5ZM653.236 127.785L652.654 128.598L653.236 127.785ZM656.373 130.03L657.186 130.612L657.768 129.799L656.955 129.217L656.373 130.03ZM654.627 132.47L654.045 133.283L654.858 133.865L655.44 133.052L654.627 132.47ZM446.678 135.501C460.57 146.509 477.775 152.5 495.5 152.5V150.5C478.226 150.5 461.459 144.662 447.92 133.933L446.678 135.501ZM448.379 131.745L446.515 134.096L448.083 135.338L449.946 132.987L448.379 131.745ZM495.5 147.5C478.902 147.5 462.792 141.89 449.783 131.582L448.541 133.149C461.903 143.738 478.451 149.5 495.5 149.5V147.5ZM496.5 151.5V148.5H494.5V151.5H496.5ZM602.5 115.5C619.862 115.5 636.789 120.933 650.908 131.038L652.072 129.411C637.614 119.064 620.28 113.5 602.5 113.5V115.5ZM601.5 111.5V114.5H603.5V111.5H601.5ZM653.818 126.972C638.85 116.26 620.906 110.5 602.5 110.5V112.5C620.488 112.5 638.026 118.129 652.654 128.598L653.818 126.972ZM656.955 129.217L653.818 126.972L652.654 128.598L655.791 130.843L656.955 129.217ZM655.44 133.052L657.186 130.612L655.56 129.448L653.814 131.888L655.44 133.052ZM650.908 131.038L654.045 133.283L655.209 131.657L652.072 129.411L650.908 131.038Z" fill="#FFDDE5"/>
<circle cx="363.5" cy="112.5" r="4.27778" fill="#FF507C" stroke="white" stroke-width="2.44444"/>
<circle cx="416.5" cy="112.5" r="4.27778" fill="#FF507C" stroke="white" stroke-width="2.44444"/>
<g filter="url(#filter0_d)">
<path fill-rule="evenodd" clip-rule="evenodd" d="M400.218 75.092C400 75.5198 400 76.0799 400 77.2V94.8C400 95.9201 400 96.4802 400.218 96.908C400.41 97.2843 400.716 97.5903 401.092 97.782C401.52 98 402.08 98 403.2 98H414.239L416.286 100.744L418.333 98H428.8C429.92 98 430.48 98 430.908 97.782C431.284 97.5903 431.59 97.2843 431.782 96.908C432 96.4802 432 95.9201 432 94.8V77.2C432 76.0799 432 75.5198 431.782 75.092C431.59 74.7157 431.284 74.4097 430.908 74.218C430.48 74 429.92 74 428.8 74H403.2C402.08 74 401.52 74 401.092 74.218C400.716 74.4097 400.41 74.7157 400.218 75.092Z" fill="white"/>
</g>
<path d="M413.747 87.7111H415.073V88.7901H413.747V90.8571H412.525V88.7901H408.287V87.6461L412.2 81.6531H413.747V87.7111ZM412.525 83.0961H412.499L409.587 87.7111H412.525V83.0961ZM419.489 81.4191C420.035 81.4191 420.503 81.5448 420.893 81.7961C421.292 82.0475 421.617 82.3941 421.868 82.8361C422.128 83.2695 422.319 83.7808 422.44 84.3701C422.562 84.9595 422.622 85.5878 422.622 86.2551C422.622 86.9311 422.562 87.5638 422.44 88.1531C422.319 88.7338 422.128 89.2451 421.868 89.6871C421.617 90.1205 421.292 90.4628 420.893 90.7141C420.503 90.9655 420.035 91.0911 419.489 91.0911C418.943 91.0911 418.471 90.9655 418.072 90.7141C417.674 90.4628 417.344 90.1205 417.084 89.6871C416.833 89.2451 416.647 88.7338 416.525 88.1531C416.404 87.5638 416.343 86.9311 416.343 86.2551C416.343 85.5878 416.404 84.9595 416.525 84.3701C416.647 83.7808 416.833 83.2695 417.084 82.8361C417.344 82.3941 417.674 82.0475 418.072 81.7961C418.471 81.5448 418.943 81.4191 419.489 81.4191ZM419.489 82.4721C419.108 82.4721 418.796 82.5978 418.553 82.8491C418.311 83.0918 418.12 83.4038 417.981 83.7851C417.851 84.1578 417.76 84.5651 417.708 85.0071C417.656 85.4491 417.63 85.8651 417.63 86.2551C417.63 86.6451 417.656 87.0611 417.708 87.5031C417.76 87.9451 417.851 88.3525 417.981 88.7251C418.12 89.0978 418.311 89.4098 418.553 89.6611C418.796 89.9038 419.108 90.0251 419.489 90.0251C419.862 90.0251 420.165 89.9038 420.399 89.6611C420.642 89.4098 420.833 89.0978 420.971 88.7251C421.11 88.3525 421.205 87.9451 421.257 87.5031C421.309 87.0611 421.335 86.6451 421.335 86.2551C421.335 85.8651 421.309 85.4491 421.257 85.0071C421.205 84.5651 421.11 84.1578 420.971 83.7851C420.833 83.4038 420.642 83.0918 420.399 82.8491C420.165 82.5978 419.862 82.4721 419.489 82.4721Z" fill="black"/>
<circle cx="522.5" cy="144.5" r="4.27778" fill="#FF507C" stroke="white" stroke-width="2.44444"/>
<circle cx="575.5" cy="117.5" r="4.27778" fill="#FF507C" stroke="white" stroke-width="2.44444"/>
<circle cx="681.5" cy="134.5" r="4.27778" fill="#FF507C" stroke="white" stroke-width="2.44444"/>
<circle cx="310.5" cy="106.5" r="4.27778" fill="#FF507C" stroke="white" stroke-width="2.44444"/>
<circle cx="257.5" cy="74.5" r="4.27778" fill="#FF507C" stroke="white" stroke-width="2.44444"/>
<circle cx="204.5" cy="104.5" r="4.27778" fill="#FF507C" stroke="white" stroke-width="2.44444"/>
<circle cx="151.5" cy="113.5" r="4.27778" fill="#FF507C" stroke="white" stroke-width="2.44444"/>
<circle cx="98.5" cy="139.5" r="4.27778" fill="#FF507C" stroke="white" stroke-width="2.44444"/>
</g>
<defs>
<filter id="filter0_d" x="380" y="62" width="72" height="66.7436" filterUnits="userSpaceOnUse" color-interpolation-filters="sRGB">
<feFlood flood-opacity="0" result="BackgroundImageFix"/>
<feColorMatrix in="SourceAlpha" type="matrix" values="0 0 0 0 0 0 0 0 0 0 0 0 0 0 0 0 0 0 127 0" result="hardAlpha"/>
<feOffset dy="8"/>
<feGaussianBlur stdDeviation="10"/>
<feColorMatrix type="matrix" values="0 0 0 0 0 0 0 0 0 0 0 0 0 0 0 0 0 0 0.1 0"/>
<feBlend mode="normal" in2="BackgroundImageFix" result="effect1_dropShadow"/>
<feBlend mode="normal" in="SourceGraphic" in2="effect1_dropShadow" result="shape"/>
</filter>
<clipPath id="clip0">
<rect width="746" height="229" fill="white"/>
</clipPath>
<clipPath id="clip1">
<rect width="746" height="52" fill="white"/>
</clipPath>
</defs>
</svg>
