<svg width="21" height="20" viewBox="0 0 21 20" fill="none" xmlns="http://www.w3.org/2000/svg">
<path d="M1 18V6.56619L10.0857 1.11474C10.2109 1.03966 10.3541 1 10.5 1C10.6459 1 10.7891 1.03966 10.9143 1.11474L14.2875 3.1387L19.5145 6.27489C19.8157 6.45561 20 6.78112 20 7.13238V18C20 18.5523 19.5523 19 19 19H2C1.44772 19 1 18.5523 1 18Z" stroke="white" stroke-width="2"/>
<mask id="path-2-inside-1" fill="white">
<path fill-rule="evenodd" clip-rule="evenodd" d="M0 7.76639C0 7.91132 0.0760413 8.04562 0.200318 8.12019L9.57125 13.7428C9.8518 13.9111 10.1728 14 10.5 14C10.8272 14 11.1482 13.9111 11.4287 13.7428L14.802 11.7188L20.7631 8.14215C20.9101 8.05396 21 7.89512 21 7.72371C21 6.96511 20.1724 6.49655 19.5219 6.88684L11.4287 11.7428C11.1482 11.9111 10.8272 12 10.5 12C10.1728 12 9.8518 11.9111 9.57125 11.7428L1.47807 6.88684C0.827578 6.49655 0 6.96511 0 7.72371V7.76639Z"/>
</mask>
<path d="M14.802 11.7188L15.831 13.4338L14.802 11.7188ZM11.4287 11.7428L10.3998 10.0278L11.4287 11.7428ZM20.7631 8.14215L21.7921 9.85713L20.7631 8.14215ZM11.4287 13.7428L10.3998 12.0278L11.4287 13.7428ZM9.57125 13.7428L10.6002 12.0278L9.57125 13.7428ZM19.5219 6.88684L20.5509 8.60183L19.5219 6.88684ZM0.200318 8.12019L1.22931 6.4052L0.200318 8.12019ZM1.22931 6.4052L10.6002 12.0278L8.54226 15.4577L-0.828674 9.83518L1.22931 6.4052ZM10.3998 12.0278L13.773 10.0038L15.831 13.4338L12.4577 15.4577L10.3998 12.0278ZM13.773 10.0038L19.7341 6.42716L21.7921 9.85713L15.831 13.4338L13.773 10.0038ZM20.5509 8.60183L12.4577 13.4577L10.3998 10.0278L18.4929 5.17186L20.5509 8.60183ZM8.54226 13.4577L0.449081 8.60183L2.50706 5.17186L10.6002 10.0278L8.54226 13.4577ZM2 7.72371V7.76639H-2V7.72371H2ZM0.449081 8.60183C1.13163 9.01136 2 8.5197 2 7.72371H-2C-2 5.41052 0.523522 3.98173 2.50706 5.17186L0.449081 8.60183ZM10.5 14C9.81034 14 9.13364 13.8126 8.54226 13.4577L10.6002 10.0278C10.57 10.0096 10.5353 10 10.5 10V14ZM12.4577 13.4577C11.8664 13.8126 11.1897 14 10.5 14V10C10.4647 10 10.43 10.0096 10.3998 10.0278L12.4577 13.4577ZM19.7341 6.42716C19.2787 6.70042 19 7.1926 19 7.72371H23C23 8.59765 22.5415 9.4075 21.7921 9.85713L19.7341 6.42716ZM10.5 12C10.4647 12 10.43 12.0096 10.3998 12.0278L12.4577 15.4577C11.8664 15.8126 11.1897 16 10.5 16V12ZM10.6002 12.0278C10.57 12.0096 10.5353 12 10.5 12V16C9.81034 16 9.13364 15.8126 8.54226 15.4577L10.6002 12.0278ZM19 7.72371C19 8.5197 19.8684 9.01136 20.5509 8.60183L18.4929 5.17186C20.4765 3.98173 23 5.41052 23 7.72371H19ZM-0.828674 9.83518C-1.55536 9.39916 -2 8.61385 -2 7.76639H2C2 7.2088 1.70744 6.69209 1.22931 6.4052L-0.828674 9.83518Z" fill="white" mask="url(#path-2-inside-1)"/>
</svg>
