<svg width="24" height="24" viewBox="0 0 24 24" fill="none" xmlns="http://www.w3.org/2000/svg">
<rect x="0.849731" y="0.578545" width="23.04" height="23.04" fill="#D8D8D8" fill-opacity="0.01"/>
<path d="M6.93245 5.94859C9.73005 3.19038 14.2714 3.19049 17.0688 5.94878C19.8573 8.69998 19.857 13.1528 17.0682 15.9036C17.0681 15.9037 17.0681 15.9037 17.068 15.9037L12.0001 20.9007L6.93205 15.9036C6.93204 15.9036 6.93203 15.9036 6.93202 15.9036C4.14245 13.1529 4.14264 8.69912 6.93245 5.94859ZM11.6879 21.2086C11.6879 21.2085 11.6879 21.2085 11.6879 21.2085L11.6879 21.2086ZM12.3122 21.2085C12.3123 21.2085 12.3123 21.2085 12.3123 21.2086L12.3122 21.2085Z" stroke="#6F7E90" stroke-width="2"/>
<ellipse cx="12" cy="11.04" rx="2.4" ry="2.4" fill="#6F7E90"/>
</svg>
