<svg width="32" height="32" viewBox="0 0 32 32" fill="none" xmlns="http://www.w3.org/2000/svg">
<rect width="32" height="32" rx="6" fill="#6236FF"/>
<path fill-rule="evenodd" clip-rule="evenodd" d="M21.8182 11.3H10.1818C9.13891 11.3 8.29091 12.1745 8.29091 13.25V20.75C8.29091 21.8255 9.13964 22.7 10.1818 22.7H21.8182C22.8611 22.7 23.7091 21.8247 23.7091 20.75V13.25C23.7091 12.1745 22.8611 11.3 21.8182 11.3ZM21.8182 13.1461C21.882 13.1461 21.9313 13.197 21.9313 13.25V20.75C21.9313 20.8026 21.8817 20.8538 21.8182 20.8538H10.1818C10.1184 20.8538 10.0687 20.8026 10.0687 20.75V13.25C10.0687 13.197 10.118 13.1461 10.1818 13.1461H21.8182ZM21.0848 14.5463C21.0876 14.5503 21.0909 14.5508 21.0944 14.5483L20.7844 14.7778L20.7685 14.7636L21.0874 14.5274C21.0822 14.5313 21.0808 14.5405 21.0848 14.5463ZM11.2312 14.7628L15.5948 17.9754C15.7179 18.0658 15.8643 18.1134 16.0138 18.1134C16.1648 18.1134 16.3108 18.0655 16.4343 17.9735L20.7685 14.7636C20.4676 14.5017 20.0226 14.472 19.6887 14.7203L16.0131 17.1772L12.3081 14.7183C11.9743 14.4722 11.5314 14.5015 11.2312 14.7628ZM11.2155 14.7768L15.5873 17.9953C15.8435 18.1834 16.1864 18.1834 16.4421 17.9932L20.7844 14.7778C20.8326 14.8218 20.8768 14.872 20.916 14.9281C21.2016 15.3386 21.1106 15.9102 20.7139 16.2026L16.9516 18.7241C16.6768 18.929 16.3492 19.0365 16.0138 19.0365C15.6817 19.0365 15.3558 18.9305 15.0811 18.7288L11.2878 16.2046C10.89 15.9129 10.7977 15.3419 11.0816 14.9302C11.1214 14.8728 11.1664 14.8216 11.2155 14.7768ZM11.2155 14.7768L11.2312 14.7628L10.9124 14.528C10.9171 14.5315 10.9185 14.5401 10.9148 14.5454C10.9119 14.5496 10.9079 14.5503 10.9049 14.5481L11.2155 14.7768Z" fill="white"/>
</svg>
