<svg width="24" height="24" viewBox="0 0 24 24" fill="none" xmlns="http://www.w3.org/2000/svg">
<rect width="24" height="24" fill="#D8D8D8" fill-opacity="0.01"/>
<path d="M18.2 12.0529V19.16H13.9239H13.9239H13.9239H13.9238H13.9238H13.9238H13.9238H13.9238H13.9238H13.9237H13.9237H13.9237H13.9237H13.9237H13.9237H13.9236H13.9236H13.9236H13.9236H13.9236H13.9236H13.9235H13.9235H13.9235H13.9235H13.9235H13.9235H13.9234H13.9234H13.9234H13.9234H13.9234H13.9234H13.9233H13.9233H13.9233H13.9233H13.9233H13.9233H13.9232H13.9232H13.9232H13.9232H13.9232H13.9232H13.9231H13.9231H13.9231H13.9231H13.9231H13.9231H13.923H13.923H13.923H13.923H13.923H13.9229H13.9229H13.9229H13.9229H13.9229H13.9229H13.9228H13.9228H13.9228H13.9228H13.9228H13.9228H13.9227H13.9227H13.9227H13.9227H13.9227H13.9227H13.9226H13.9226H13.9226H13.9226H13.9226H13.9226H13.9225H13.9225H13.9225H13.9225H13.9225H13.9225H13.9224H13.9224H13.9224H13.9224H13.9224H13.9224H13.9223H13.9223H13.9223H13.9223H13.9223H13.9223H13.9222H13.9222H13.9222H13.9222H13.9222H13.9222H13.9221H13.9221H13.9221H13.9221H13.9221H13.9221H13.922H13.922H13.922H13.922H13.922H13.922H13.9219H13.9219H13.9219H13.9219H13.9219H13.9219H13.9218H13.9218H13.9218H13.9218H13.9218H13.9218H13.9217H13.9217H13.9217H13.9217H13.9217H13.9216H13.9216H13.9216H13.9216H13.9216H13.9216H13.9215H13.9215H13.9215H13.9215H13.9215H13.9215H13.9214H13.9214H13.9214H13.9214H13.9214H13.9214H13.9213H13.9213H13.9213H13.9213H13.9213H13.9213H13.9212H13.9212H13.9212H13.9212H13.9212H13.9212H13.9211H13.9211H13.9211H13.9211H13.9211H13.9211H13.921H13.921H13.921H13.921H13.921H13.921H13.9209H13.9209H13.9209H13.9209H13.9209H13.9209H13.9208H13.9208H13.9208H13.9208H13.9208H13.9208H13.9207H13.9207H13.9207H13.9207H13.9207H13.9207H13.9206H13.9206H13.9206H13.9206H13.9206H13.9205H13.9205H13.9205H13.9205H13.9205H13.9205H13.9204H13.9204H13.9204H13.9204H13.9204H13.9204H13.9203H13.9203H13.9203H13.9203H13.9203H13.9203H13.9202H13.9202H13.9202H13.9202H13.9202H13.9202H13.9201H13.9201H13.9201H13.9201H13.9201H13.9201H13.92H13.92H13.92H13.92H13.92H13.92H13.9199H13.9199H13.9199H13.9199H13.9199H13.9199H13.9198H13.9198H13.9198H13.9198H13.9198H13.9198H13.9197H13.9197H13.9197H13.9197H13.9197H13.9197H13.9196H13.9196H13.9196H13.9196H13.9196H13.9196H13.9195H13.9195H13.9195H13.9195H13.9195H13.9194H13.9194H13.9194H13.9194H13.9194H13.9194H13.9193H13.9193H13.9193H13.9193H13.9193H13.9193H13.9192H13.9192H13.9192H13.9192H13.9192H13.9192H13.9191H13.9191H13.9191H13.9191H13.9191H13.9191H13.919H13.919H13.919H13.919H13.919H13.919H13.9189H13.9189H13.9189H13.9189H13.9189H13.9189H13.9188H13.9188H13.9188H13.9188H13.9188H13.9188H13.9187H13.9187H13.9187H13.9187H13.9187H13.9187H13.9186H13.9186H13.9186H13.9186H13.9186H13.9186H13.9185H13.9185H13.9185H13.9185H13.9185H13.9185H13.9184H13.9184H13.9184H13.9184H13.9184H13.9184H13.9183H13.9183H13.9183H13.9183H13.9183H13.9183H13.9182H13.9182H13.9182H13.9182H13.9182H13.9181H13.9181H13.9181H13.9181H13.9181H13.9181H13.918H13.918H13.918H13.918H13.918H13.918H13.9179H13.9179H13.9179H13.9179H13.9179H13.9179H13.9178H13.9178H13.9178H13.9178H13.9178H13.9178H13.9177H13.9177H13.9177H13.9177H13.9177H13.9177H13.9176H13.9176H13.9176H13.9176H13.9176H13.9176H13.9175H13.9175H13.9175H13.9175H13.9175H13.9175H13.9174H13.9174H13.9174H13.9174H13.9174H13.9174H13.9173H13.9173H13.9173H13.9173H13.9173H13.9173H13.9172H13.9172H13.9172H13.9172H13.9172H13.9172H13.9171H13.9171H13.9171H13.9171H13.9171H13.917H13.917H13.917H13.917H13.917H13.917H13.9169H13.9169H13.9169H13.9169H13.9169H13.9169H13.9168H13.9168H13.9168H13.9168H13.9168H13.9168H13.9167H13.9167H13.9167H13.9167H13.9167H13.9167H13.9166H13.9166H13.9166H13.9166H13.9166H13.9166H13.9165H13.9165H13.9165H13.9165H13.9165H13.9165H13.9164H13.9164H13.9164H13.9164H13.9164H13.9164H13.9163H13.9163H13.9163H13.9163H13.9163H13.9163H13.9162H13.9162H13.9162H13.9162H13.9162H13.9162H13.9161H13.9161H13.9161H13.9161H13.9161H13.9161H13.916H13.916H13.916H13.916H13.916H13.9159H13.9159H13.9159H13.9159H13.9159H13.9159H13.9158H13.9158H13.9158H13.9158H13.9158H13.9158H13.9157H13.9157H13.9157H13.9157H13.9157H13.9157H13.9156H13.9156H13.9156H13.9156H13.9156H13.9156H13.9155H13.9155H13.9155H13.9155H13.9155H13.9155H13.9154H13.9154H13.9154H13.9154H13.9154H13.9154H13.9153H13.9153H13.9153H13.9153H13.9153H13.9153H13.9152H5.80005V12.0529C5.80005 8.59917 8.58849 5.8 12 5.8C15.4107 5.8 18.2 8.59926 18.2 12.0529Z" stroke="#6F7E90" stroke-width="2"/>
<path d="M9.6001 19.2H14.4001V19.68C14.4001 21.0055 13.3256 22.08 12.0001 22.08V22.08C10.6746 22.08 9.6001 21.0055 9.6001 19.68V19.2Z" fill="#6F7E90"/>
<rect x="9.6001" y="2.88" width="4.8" height="3.84" rx="1.92" fill="#6F7E90"/>
</svg>
