<svg width="32" height="32" viewBox="0 0 32 32" fill="none" xmlns="http://www.w3.org/2000/svg">
<rect width="32" height="32" rx="6" fill="#20E0A5"/>
<path d="M16 11.6364C13.5935 11.6364 11.6363 13.5943 11.6363 16C11.6363 16.2675 11.4189 16.4848 11.1515 16.4848C10.884 16.4848 10.6666 16.2675 10.6666 16C10.6666 13.0586 13.0594 10.6667 16 10.6667C16.7919 10.6667 17.5555 10.8364 18.2682 11.1717C18.5107 11.2856 18.6149 11.5741 18.501 11.8174C18.387 12.0598 18.0985 12.1648 17.8561 12.0493C17.2727 11.7753 16.648 11.6364 16 11.6364Z" fill="white"/>
<circle cx="15.9999" cy="17.7778" r="1.77778" fill="white"/>
<rect x="15.1111" y="13.3333" width="1.77778" height="4.44444" rx="0.888889" fill="white"/>
<path d="M8.88889 16C8.88889 12.0796 12.0796 8.88889 16 8.88889C19.9204 8.88889 23.1111 12.0796 23.1111 16C23.1111 19.9204 19.9204 23.1111 16 23.1111C12.0796 23.1111 8.88889 19.9204 8.88889 16Z" stroke="white" stroke-width="1.77778"/>
</svg>
