<svg width="20" height="20" viewBox="0 0 20 20" fill="none" xmlns="http://www.w3.org/2000/svg">
<path d="M5.11651 17.4303L4.80048 17.2085L4.41745 17.2567L1.28464 17.6505L2.2186 14.6543L2.33488 14.2812L2.16747 13.9282C1.60519 12.7424 1.28869 11.4108 1.28869 10C1.28869 5.00835 5.24135 1 10.0713 1C14.9012 1 18.8539 5.00856 18.8539 10C18.8539 14.9914 14.9012 19 10.0713 19C8.23351 19 6.52871 18.4211 5.11651 17.4303Z" stroke="white" stroke-width="2"/>
<path d="M14.6011 8.39308L12.3447 7.60545L11.4773 5.38031C11.3131 4.95509 10.9168 4.8743 10.5923 5.19955L8.87332 6.9115L6.59151 6.75757C6.12776 6.7249 5.88637 7.0425 6.05246 7.46696L7.01876 9.96115L6.28817 12.2014C6.14555 12.634 6.40395 12.9387 6.86525 12.8816L9.5303 12.5612L11.8411 13.8978C12.2406 14.1304 12.6022 13.9525 12.6488 13.5005L12.8973 11.1614L14.8044 9.25401C15.1306 8.93011 15.0394 8.54462 14.6011 8.39308Z" fill="white"/>
</svg>
